<?xml version="1.0" encoding="UTF-8"?>
<!DOCTYPE svg PUBLIC "-//W3C//DTD SVG 1.1//EN" "http://www.w3.org/Graphics/SVG/1.1/DTD/svg11.dtd">
<svg xmlns="http://www.w3.org/2000/svg" version="1.1" width="1380px" height="844px" style="shape-rendering:geometricPrecision; text-rendering:geometricPrecision; image-rendering:optimizeQuality; fill-rule:evenodd; clip-rule:evenodd" xmlns:xlink="http://www.w3.org/1999/xlink">
<g><path style="opacity:0.943" fill="#313131" d="M 153.5,302.5 C 167.5,302.5 181.5,302.5 195.5,302.5C 195.5,303.5 195.5,304.5 195.5,305.5C 217.283,309.802 234.116,321.469 246,340.5C 258.028,361.565 263.028,384.231 261,408.5C 208.567,409.165 156.067,409.831 103.5,410.5C 104.228,424.652 107.061,438.652 112,452.5C 118.055,466.788 127.889,477.621 141.5,485C 146.151,486.882 150.818,488.549 155.5,490C 201.224,498.002 229.557,479.836 240.5,435.5C 246.833,435.5 253.167,435.5 259.5,435.5C 254.187,470.671 234.854,494.171 201.5,506C 136.303,517.286 97.4692,491.453 85,428.5C 84.3333,414.5 84.3333,400.5 85,386.5C 85.3333,386.833 85.6667,387.167 86,387.5C 88.7561,360.587 100.256,338.087 120.5,320C 128.596,313.485 137.596,308.819 147.5,306C 149.473,305.505 151.473,305.338 153.5,305.5C 153.5,304.5 153.5,303.5 153.5,302.5 Z M 157.5,320.5 C 200.841,314.573 228.341,332.573 240,374.5C 241.032,380.822 241.865,387.156 242.5,393.5C 196.5,393.5 150.5,393.5 104.5,393.5C 105.55,369.104 115.217,348.77 133.5,332.5C 141.434,327.783 149.434,323.783 157.5,320.5 Z"/></g>
<g><path style="opacity:0.932" fill="#313131" d="M 460.5,574.5 C 460.5,485.5 460.5,396.5 460.5,307.5C 466.167,307.5 471.833,307.5 477.5,307.5C 477.333,319.838 477.5,332.171 478,344.5C 488.079,323.226 504.579,310.226 527.5,305.5C 527.5,304.5 527.5,303.5 527.5,302.5C 541.167,302.5 554.833,302.5 568.5,302.5C 568.5,303.5 568.5,304.5 568.5,305.5C 589.693,309.532 606.526,320.532 619,338.5C 635.87,367.901 641.037,399.401 634.5,433C 633.619,443.817 630.286,453.983 624.5,463.5C 619.237,476.314 610.57,486.814 598.5,495C 591.2,499.484 583.534,503.15 575.5,506C 559.536,507.552 543.536,507.885 527.5,507C 505.283,503.795 488.783,492.295 478,472.5C 477.5,506.498 477.333,540.498 477.5,574.5C 471.833,574.5 466.167,574.5 460.5,574.5 Z M 529.5,320.5 C 570.928,314.118 598.762,330.451 613,369.5C 614.515,374.74 615.849,380.073 617,385.5C 621.605,414.174 616.605,440.84 602,465.5C 592.703,478.032 580.536,486.032 565.5,489.5C 518.305,498.014 489.805,479.014 480,432.5C 479.648,423.51 478.815,414.677 477.5,406C 478.496,392.674 480.33,379.508 483,366.5C 488.576,350.14 498.576,337.14 513,327.5C 518.663,325.244 524.163,322.91 529.5,320.5 Z"/></g>
<g><path style="opacity:0.959" fill="#313131" d="M 826.5,302.5 C 840.183,302.167 853.85,302.501 867.5,303.5C 900.097,312.599 920.93,333.599 930,366.5C 933.144,380.255 934.477,394.255 934,408.5C 881.572,409.497 829.072,409.831 776.5,409.5C 776.064,429.875 781.231,448.542 792,465.5C 801.414,477.942 813.581,486.109 828.5,490C 871.474,497.963 899.64,481.463 913,440.5C 913.494,438.866 913.66,437.199 913.5,435.5C 919.509,435.334 925.509,435.501 931.5,436C 926.986,471.215 907.653,494.548 873.5,506C 855.167,508 836.833,508 818.5,506C 790.931,496.097 772.431,477.264 763,449.5C 755.668,421.481 755.668,393.481 763,365.5C 768.571,349.857 777.071,336.024 788.5,324C 795.482,318.507 802.815,313.507 810.5,309C 815.807,307.5 821.141,306.334 826.5,305.5C 826.5,304.5 826.5,303.5 826.5,302.5 Z M 830.5,320.5 C 867.606,314.87 893.772,328.87 909,362.5C 912.603,372.551 914.77,382.884 915.5,393.5C 869.165,393.667 822.832,393.5 776.5,393C 778.398,376.962 783.564,361.795 792,347.5C 796.332,342.001 801.166,337.001 806.5,332.5C 814.398,327.846 822.398,323.846 830.5,320.5 Z"/></g>
<g><path style="opacity:0.952" fill="#313131" d="M 1012.5,302.5 C 1027.83,302.5 1043.17,302.5 1058.5,302.5C 1058.5,303.5 1058.5,304.5 1058.5,305.5C 1084.87,309.031 1101.37,323.698 1108,349.5C 1108.5,355.491 1108.67,361.491 1108.5,367.5C 1102.83,367.5 1097.17,367.5 1091.5,367.5C 1091.13,341.96 1078.46,326.46 1053.5,321C 1040.83,320.333 1028.17,320.333 1015.5,321C 1002.05,323.245 991.548,330.079 984,341.5C 977.919,358.925 982.753,372.425 998.5,382C 1016.31,388.966 1034.64,393.633 1053.5,396C 1062.86,398.3 1072.2,400.967 1081.5,404C 1098.51,410.672 1109.51,422.672 1114.5,440C 1119.17,467.333 1109.17,487.333 1084.5,500C 1069.89,506.605 1054.39,509.105 1038,507.5C 1008.1,510.413 984.104,500.079 966,476.5C 962.226,469.009 959.226,461.343 957,453.5C 956.501,448.177 956.334,442.844 956.5,437.5C 962.167,437.5 967.833,437.5 973.5,437.5C 979.482,474.131 1001.15,491.798 1038.5,490.5C 1049.32,490.593 1059.99,489.427 1070.5,487C 1092.23,478.138 1100.56,462.638 1095.5,440.5C 1089.8,430.426 1081.47,423.592 1070.5,420C 1054.84,414.952 1038.84,411.285 1022.5,409C 1013.78,406.759 1005.11,404.092 996.5,401C 985.083,396.375 975.583,389.208 968,379.5C 954.546,342.918 966.379,318.418 1003.5,306C 1006.48,305.502 1009.48,305.335 1012.5,305.5C 1012.5,304.5 1012.5,303.5 1012.5,302.5 Z"/></g>
<g><path style="opacity:0.949" fill="#313131" d="M 1194.5,302.5 C 1209.83,302.5 1225.17,302.5 1240.5,302.5C 1240.5,303.5 1240.5,304.5 1240.5,305.5C 1266.37,308.939 1282.7,323.272 1289.5,348.5C 1290.5,354.798 1290.83,361.132 1290.5,367.5C 1284.83,367.5 1279.17,367.5 1273.5,367.5C 1273.09,341.924 1260.42,326.424 1235.5,321C 1222.83,320.333 1210.17,320.333 1197.5,321C 1191.74,322.709 1186.08,324.709 1180.5,327C 1163.34,338.159 1159.17,352.992 1168,371.5C 1170.5,374.667 1173.33,377.5 1176.5,380C 1195.21,388.639 1214.87,393.972 1235.5,396C 1244.86,398.3 1254.2,400.967 1263.5,404C 1291.72,416.861 1302.22,438.694 1295,469.5C 1289.69,483.485 1280.19,493.651 1266.5,500C 1251.78,506.615 1236.28,509.115 1220,507.5C 1190.09,510.407 1166.09,500.074 1148,476.5C 1141.2,464.38 1138.04,451.38 1138.5,437.5C 1144.21,437.171 1149.87,437.505 1155.5,438.5C 1157.68,457.124 1166.68,471.957 1182.5,483C 1188.32,485.939 1194.32,488.272 1200.5,490C 1216.7,491.176 1232.7,490.51 1248.5,488C 1274.56,479.625 1283.39,462.458 1275,436.5C 1271.15,430.538 1265.98,426.038 1259.5,423C 1239.11,415.556 1218.11,410.222 1196.5,407C 1181.18,403.434 1167.51,396.434 1155.5,386C 1150.83,381.303 1147.67,375.803 1146,369.5C 1140.6,332.549 1156.43,311.049 1193.5,305C 1194.25,304.329 1194.59,303.496 1194.5,302.5 Z"/></g>
<g><path style="opacity:0.114" fill="#333333" d="M 460.5,307.5 C 460.5,396.5 460.5,485.5 460.5,574.5C 459.167,530.338 458.5,485.838 458.5,441C 458.5,396.162 459.167,351.662 460.5,307.5 Z"/></g>
<g><path style="opacity:0.971" fill="#313131" d="M 752.5,305.5 C 754.833,305.5 757.167,305.5 759.5,305.5C 759.5,311.833 759.5,318.167 759.5,324.5C 729.326,322.17 706.826,334.17 692,360.5C 687.914,370.125 685.58,380.125 685,390.5C 684.5,391.5 684,392.5 683.5,393.5C 684.66,429.792 684.827,466.125 684,502.5C 678.464,504.425 672.631,505.092 666.5,504.5C 666.5,438.833 666.5,373.167 666.5,307.5C 672.206,307.171 677.872,307.505 683.5,308.5C 684.313,320.121 684.813,331.787 685,343.5C 690.377,333.454 697.877,325.287 707.5,319C 720.779,311.08 735.112,307.08 750.5,307C 751.416,306.722 752.082,306.222 752.5,305.5 Z"/></g>
<g><path style="opacity:0.99" fill="#313131" d="M 269.5,307.5 C 277.528,307.169 285.528,307.502 293.5,308.5C 313.239,334.308 332.739,360.308 352,386.5C 371.308,360.359 390.808,334.359 410.5,308.5C 418.138,307.503 425.804,307.169 433.5,307.5C 432.017,310.87 430.184,314.203 428,317.5C 406.518,345.103 385.018,372.769 363.5,400.5C 388.838,433.676 414.005,467.009 439,500.5C 439.49,501.793 439.657,503.127 439.5,504.5C 431.804,504.831 424.138,504.497 416.5,503.5C 395.214,474.042 373.714,444.708 352,415.5C 329.964,445.058 307.798,474.558 285.5,504C 278.508,504.5 271.508,504.666 264.5,504.5C 264.34,502.801 264.506,501.134 265,499.5C 290.484,467.183 314.984,434.183 338.5,400.5C 315.773,369.598 292.44,339.098 268.5,309C 269.056,308.617 269.389,308.117 269.5,307.5 Z"/></g>
</svg>
