<?xml version="1.0" encoding="UTF-8"?>
<!DOCTYPE svg PUBLIC "-//W3C//DTD SVG 1.1//EN" "http://www.w3.org/Graphics/SVG/1.1/DTD/svg11.dtd">
<svg xmlns="http://www.w3.org/2000/svg" version="1.1" width="1600px" height="800px" style="shape-rendering:geometricPrecision; text-rendering:geometricPrecision; image-rendering:optimizeQuality; fill-rule:evenodd; clip-rule:evenodd" xmlns:xlink="http://www.w3.org/1999/xlink">
<g><path style="opacity:0.953" fill="#ca9232" d="M 291.5,243.5 C 290.504,243.586 289.671,243.252 289,242.5C 286.955,235.721 282.789,233.554 276.5,236C 274.472,242.249 272.472,248.416 270.5,254.5C 271.223,248.494 272.056,242.494 273,236.5C 276.214,231.661 280.38,230.494 285.5,233C 287.903,236.311 289.903,239.811 291.5,243.5 Z"/></g>
<g><path style="opacity:1" fill="#fca412" d="M 291.5,243.5 C 304.147,265.451 316.313,287.785 328,310.5C 333.754,300.661 339.254,290.661 344.5,280.5C 351.141,275.623 356.308,276.957 360,284.5C 369.164,302.162 378.331,319.829 387.5,337.5C 378.221,348.447 368.221,358.78 357.5,368.5C 347.806,351.112 338.639,333.445 330,315.5C 328.817,314.269 327.651,314.269 326.5,315.5C 296.53,372.771 266.53,430.104 236.5,487.5C 236.624,488.107 236.957,488.44 237.5,488.5C 236.89,489.391 236.557,490.391 236.5,491.5C 238.428,493.474 240.761,494.974 243.5,496C 244.823,496.816 245.489,497.983 245.5,499.5C 241.577,498.205 237.91,496.372 234.5,494C 233.903,492.938 233.57,491.772 233.5,490.5C 236.052,471.287 239.052,452.287 242.5,433.5C 243.222,433.082 243.722,432.416 244,431.5C 244.498,428.518 244.665,425.518 244.5,422.5C 252.549,366.281 261.216,310.281 270.5,254.5C 272.472,248.416 274.472,242.249 276.5,236C 282.789,233.554 286.955,235.721 289,242.5C 289.671,243.252 290.504,243.586 291.5,243.5 Z"/></g>
<g><path style="opacity:0.504" fill="#000000" d="M 676.5,315.5 C 693.821,313.982 700.654,321.649 697,338.5C 689.384,348.609 680.551,349.776 670.5,342C 663.725,331.069 665.725,322.235 676.5,315.5 Z"/></g>
<g><path style="opacity:0.507" fill="#000000" d="M 557.5,316.5 C 590.833,316.5 624.167,316.5 657.5,316.5C 657.814,324.087 657.481,331.587 656.5,339C 631.169,339.5 605.836,339.667 580.5,339.5C 580.5,357.167 580.5,374.833 580.5,392.5C 603.5,392.5 626.5,392.5 649.5,392.5C 649.5,399.833 649.5,407.167 649.5,414.5C 626.5,414.5 603.5,414.5 580.5,414.5C 580.5,438.5 580.5,462.5 580.5,486.5C 572.833,486.5 565.167,486.5 557.5,486.5C 557.5,429.833 557.5,373.167 557.5,316.5 Z"/></g>
<g><path style="opacity:0.514" fill="#000000" d="M 908.5,316.5 C 916.167,316.5 923.833,316.5 931.5,316.5C 931.577,339.189 931.411,361.856 931,384.5C 936.789,376.717 944.289,371.217 953.5,368C 986.859,361.933 1009.69,374.766 1022,406.5C 1030.47,437.179 1022.31,462.345 997.5,482C 978.847,493.242 960.18,493.242 941.5,482C 937.333,479.167 933.833,475.667 931,471.5C 930.501,476.489 930.334,481.489 930.5,486.5C 923.167,486.5 915.833,486.5 908.5,486.5C 908.5,429.833 908.5,373.167 908.5,316.5 Z M 957.5,387.5 C 980.6,385.109 995.1,395.109 1001,417.5C 1004.15,433.529 1000.32,447.529 989.5,459.5C 975.993,469.943 961.66,471.11 946.5,463C 933.631,451.413 928.464,436.913 931,419.5C 933.637,403.493 942.47,392.826 957.5,387.5 Z"/></g>
<g><path style="opacity:1" fill="#f4810b" d="M 357.5,368.5 C 317.833,408.833 277.833,448.833 237.5,488.5C 236.957,488.44 236.624,488.107 236.5,487.5C 266.53,430.104 296.53,372.771 326.5,315.5C 327.651,314.269 328.817,314.269 330,315.5C 338.639,333.445 347.806,351.112 357.5,368.5 Z"/></g>
<g><path style="opacity:1" fill="#feca2b" d="M 444.5,341.5 C 452.157,387.112 459.491,432.778 466.5,478.5C 466.356,482.375 466.69,486.208 467.5,490C 467.156,491.365 466.489,492.532 465.5,493.5C 454.876,498.145 444.543,503.312 434.5,509C 431.825,510.906 429.492,513.072 427.5,515.5C 420.996,520.255 413.996,524.255 406.5,527.5C 402.954,527.559 399.621,528.392 396.5,530C 386.029,536.406 375.362,542.572 364.5,548.5C 363.614,549.325 363.281,550.325 363.5,551.5C 363.167,551.5 362.833,551.5 362.5,551.5C 360.801,551.34 359.134,551.506 357.5,552C 357.833,552.333 358.167,552.667 358.5,553C 353.167,553.667 347.833,553.667 342.5,553C 342.833,552.667 343.167,552.333 343.5,552C 337.035,548.6 330.702,544.933 324.5,541C 322.26,540.023 319.927,539.523 317.5,539.5C 307.418,534.958 297.752,529.625 288.5,523.5C 288.489,521.983 287.823,520.816 286.5,520C 278.671,515.92 271.004,511.587 263.5,507C 260.439,504.965 257.105,503.799 253.5,503.5C 250.246,503.206 247.579,501.873 245.5,499.5C 245.489,497.983 244.823,496.816 243.5,496C 240.761,494.974 238.428,493.474 236.5,491.5C 299.965,428.535 363.299,365.368 426.5,302C 430.198,299.675 433.365,300.175 436,303.5C 439.073,315.276 441.073,327.276 442,339.5C 442.708,340.381 443.542,341.047 444.5,341.5 Z"/></g>
<g><path style="opacity:0.515" fill="#000000" d="M 833.5,365.5 C 862.618,365.118 882.118,378.451 892,405.5C 893.959,414.389 894.793,423.389 894.5,432.5C 864.5,432.5 834.5,432.5 804.5,432.5C 804.406,449.581 812.406,461.081 828.5,467C 842.326,470.515 854.492,467.682 865,458.5C 867.06,455.714 868.56,452.714 869.5,449.5C 877.145,450.878 884.145,453.712 890.5,458C 880.543,479.244 863.709,490.077 840,490.5C 809.585,488.411 790.252,472.744 782,443.5C 777.599,422.079 781.932,402.745 795,385.5C 805.288,373.802 818.121,367.135 833.5,365.5 Z M 829.5,387.5 C 848.234,384.446 861.401,391.446 869,408.5C 869.494,410.134 869.66,411.801 869.5,413.5C 848.156,413.833 826.823,413.5 805.5,412.5C 809.485,400.184 817.485,391.851 829.5,387.5 Z"/></g>
<g><path style="opacity:0.51" fill="#000000" d="M 1081.5,365.5 C 1100.87,364.532 1116.87,371.199 1129.5,385.5C 1134.43,393.795 1137.26,402.795 1138,412.5C 1138.67,436.833 1138.67,461.167 1138,485.5C 1130.59,486.481 1123.09,486.814 1115.5,486.5C 1115.67,481.489 1115.5,476.489 1115,471.5C 1105.8,483.603 1093.46,489.936 1078,490.5C 1046.7,488.212 1032.37,471.545 1035,440.5C 1040.73,425.771 1051.23,416.271 1066.5,412C 1083.21,408.465 1099.54,409.632 1115.5,415.5C 1115.58,401.064 1108.58,391.897 1094.5,388C 1078.94,385.29 1066.94,390.457 1058.5,403.5C 1051.58,401.101 1044.91,398.101 1038.5,394.5C 1047.66,377.092 1061.99,367.425 1081.5,365.5 Z M 1081.5,429.5 C 1088.89,429.253 1096.22,429.753 1103.5,431C 1107.71,431.524 1111.55,433.024 1115,435.5C 1115.39,446.786 1110.89,455.62 1101.5,462C 1089.01,470.148 1076.34,470.481 1063.5,463C 1056.15,452.888 1057.15,443.555 1066.5,435C 1071.34,432.386 1076.34,430.553 1081.5,429.5 Z"/></g>
<g><path style="opacity:0.513" fill="#000000" d="M 1193.5,365.5 C 1215.83,364.511 1232.16,373.678 1242.5,393C 1236.34,396.728 1229.84,399.894 1223,402.5C 1220.1,395.268 1214.93,390.435 1207.5,388C 1200.5,387.333 1193.5,387.333 1186.5,388C 1181.61,389.516 1177.78,392.35 1175,396.5C 1173.48,402.979 1175.64,407.813 1181.5,411C 1194.52,414.241 1207.52,417.575 1220.5,421C 1240.69,429.556 1247.86,444.389 1242,465.5C 1237.02,475.748 1229.19,482.914 1218.5,487C 1186.14,496.289 1162.47,486.123 1147.5,456.5C 1153.84,453.217 1160.34,450.217 1167,447.5C 1177.2,467.965 1193.03,473.799 1214.5,465C 1221.65,458.601 1222.32,451.601 1216.5,444C 1214.33,442.414 1212,441.08 1209.5,440C 1200.59,437.618 1191.59,435.618 1182.5,434C 1171.97,431.155 1163.13,425.655 1156,417.5C 1146.61,397.781 1151.45,382.614 1170.5,372C 1177.93,368.553 1185.6,366.386 1193.5,365.5 Z"/></g>
<g><path style="opacity:0.514" fill="#000000" d="M 1304.5,365.5 C 1334.08,365.021 1353.58,378.688 1363,406.5C 1364.82,415.072 1365.65,423.739 1365.5,432.5C 1335.17,432.5 1304.83,432.5 1274.5,432.5C 1276.85,454.181 1288.85,466.181 1310.5,468.5C 1319.62,468.77 1327.62,465.936 1334.5,460C 1337.07,456.333 1339.73,452.833 1342.5,449.5C 1348.65,451.44 1354.65,453.773 1360.5,456.5C 1360.42,461.349 1358.59,465.682 1355,469.5C 1343.49,483.338 1328.65,490.338 1310.5,490.5C 1272.82,486.655 1253.16,465.822 1251.5,428C 1252.09,399.426 1265.42,379.426 1291.5,368C 1296.01,367.386 1300.35,366.552 1304.5,365.5 Z M 1299.5,387.5 C 1321.06,384.093 1335.06,392.593 1341.5,413C 1319.84,413.5 1298.17,413.667 1276.5,413.5C 1279.94,401.064 1287.6,392.397 1299.5,387.5 Z"/></g>
<g><path style="opacity:0.513" fill="#000000" d="M 771.5,366.5 C 775.415,367.267 779.415,367.767 783.5,368C 785.651,368.265 787.318,369.265 788.5,371C 786.254,377.661 783.587,384.161 780.5,390.5C 772.89,390.038 765.223,390.538 757.5,392C 747.161,396.812 741.327,404.979 740,416.5C 739.5,439.831 739.333,463.164 739.5,486.5C 731.833,486.5 724.167,486.5 716.5,486.5C 716.5,447.5 716.5,408.5 716.5,369.5C 723.833,369.5 731.167,369.5 738.5,369.5C 738.334,374.844 738.501,380.177 739,385.5C 746.99,374.095 757.824,367.762 771.5,366.5 Z"/></g>
<g><path style="opacity:0.488" fill="#000000" d="M 670.5,369.5 C 678.5,369.5 686.5,369.5 694.5,369.5C 694.5,408.5 694.5,447.5 694.5,486.5C 686.5,486.5 678.5,486.5 670.5,486.5C 670.5,447.5 670.5,408.5 670.5,369.5 Z"/></g>
<g><path style="opacity:0.875" fill="#90682a" d="M 244.5,422.5 C 244.665,425.518 244.498,428.518 244,431.5C 243.722,432.416 243.222,433.082 242.5,433.5C 242.646,429.613 243.313,425.946 244.5,422.5 Z"/></g>
<g><path style="opacity:1" fill="#f6cb4c" d="M 444.5,341.5 C 443.542,341.047 442.708,340.381 442,339.5C 441.073,327.276 439.073,315.276 436,303.5C 433.365,300.175 430.198,299.675 426.5,302C 363.299,365.368 299.965,428.535 236.5,491.5C 236.557,490.391 236.89,489.391 237.5,488.5C 277.833,448.833 317.833,408.833 357.5,368.5C 368.221,358.78 378.221,348.447 387.5,337.5C 400.551,324.95 413.551,312.117 426.5,299C 432.344,296.836 436.51,298.669 439,304.5C 441.03,316.814 442.863,329.147 444.5,341.5 Z"/></g>
<g><path style="opacity:1" fill="#d59b29" d="M 466.5,478.5 C 468.507,483.608 468.84,488.942 467.5,494.5C 454.102,501.531 440.769,508.531 427.5,515.5C 429.492,513.072 431.825,510.906 434.5,509C 444.543,503.312 454.876,498.145 465.5,493.5C 466.489,492.532 467.156,491.365 467.5,490C 466.69,486.208 466.356,482.375 466.5,478.5 Z"/></g>
<g><path style="opacity:1" fill="#dfa128" d="M 253.5,503.5 C 257.105,503.799 260.439,504.965 263.5,507C 271.004,511.587 278.671,515.92 286.5,520C 287.823,520.816 288.489,521.983 288.5,523.5C 280.439,519.634 272.439,515.468 264.5,511C 260.572,508.765 256.905,506.265 253.5,503.5 Z"/></g>
<g><path style="opacity:0.961" fill="#dfa026" d="M 406.5,527.5 C 392.304,535.764 377.971,543.764 363.5,551.5C 363.281,550.325 363.614,549.325 364.5,548.5C 375.362,542.572 386.029,536.406 396.5,530C 399.621,528.392 402.954,527.559 406.5,527.5 Z"/></g>
<g><path style="opacity:0.961" fill="#d49825" d="M 317.5,539.5 C 319.927,539.523 322.26,540.023 324.5,541C 330.702,544.933 337.035,548.6 343.5,552C 343.167,552.333 342.833,552.667 342.5,553C 347.833,553.667 353.167,553.667 358.5,553C 358.167,552.667 357.833,552.333 357.5,552C 359.134,551.506 360.801,551.34 362.5,551.5C 361.251,553.136 359.584,554.303 357.5,555C 353.167,555.667 348.833,555.667 344.5,555C 335.111,550.312 326.111,545.145 317.5,539.5 Z"/></g>
</svg>
