<?xml version="1.0" encoding="UTF-8"?>
<!DOCTYPE svg PUBLIC "-//W3C//DTD SVG 1.1//EN" "http://www.w3.org/Graphics/SVG/1.1/DTD/svg11.dtd">
<svg xmlns="http://www.w3.org/2000/svg" version="1.1" width="3000px" height="3317px" style="shape-rendering:geometricPrecision; text-rendering:geometricPrecision; image-rendering:optimizeQuality; fill-rule:evenodd; clip-rule:evenodd" xmlns:xlink="http://www.w3.org/1999/xlink">
<g><path style="opacity:0.991" fill="#fefefe" d="M 1467.5,943.5 C 1705.17,943.167 1942.83,943.5 2180.5,944.5C 2129.9,1092.31 2079.9,1240.31 2030.5,1388.5C 2076.98,1399.15 2110.15,1426.15 2130,1469.5C 2146.56,1512.26 2143.4,1553.42 2120.5,1593C 2155.75,1653.62 2161.91,1717.12 2139,1783.5C 2113.95,1844.21 2070.79,1886.38 2009.5,1910C 1987.73,1918.03 1965.39,1924.03 1942.5,1928C 1903.75,1933.87 1865.09,1940.2 1826.5,1947C 1780.1,1958.24 1735.43,1974.24 1692.5,1995C 1635.2,2023.48 1577.53,2051.15 1519.5,2078C 1487.46,2091.79 1454.46,2102.79 1420.5,2111C 1332.7,2131.72 1254.7,2113.05 1186.5,2055C 1142.8,2011.07 1119.63,1957.9 1117,1895.5C 1113.81,1829.13 1126.14,1765.8 1154,1705.5C 1166.95,1676.92 1180.45,1648.59 1194.5,1620.5C 1155.47,1578.18 1144.97,1529.51 1163,1474.5C 1183.42,1426.02 1219.59,1397.19 1271.5,1388C 1337.95,1382.47 1386.12,1409.3 1416,1468.5C 1438.4,1529.41 1426.23,1582.24 1379.5,1627C 1366.23,1637.8 1351.57,1646.3 1335.5,1652.5C 1312.49,1704.64 1321.83,1750.14 1363.5,1789C 1368.36,1792.69 1373.36,1796.19 1378.5,1799.5C 1460.24,1765.25 1525.91,1711.42 1575.5,1638C 1525.75,1603.82 1505.25,1556.66 1514,1496.5C 1527.54,1440.46 1562.04,1404.46 1617.5,1388.5C 1567.09,1240.26 1517.09,1091.93 1467.5,943.5 Z"/></g>
<g><path style="opacity:1" fill="#ab6377" d="M 1542.5,998.5 C 1730,997.167 1917.67,997.167 2105.5,998.5C 2105.38,999.107 2105.04,999.44 2104.5,999.5C 1917.33,998.5 1730,998.167 1542.5,998.5 Z"/></g>
<g><path style="opacity:1" fill="#99425b" d="M 1542.5,998.5 C 1730,998.167 1917.33,998.5 2104.5,999.5C 2060.1,1129.7 2016.1,1260.03 1972.5,1390.5C 1966.66,1391.06 1961.16,1392.73 1956,1395.5C 1912.02,1306.2 1868.02,1216.86 1824,1127.5C 1780.17,1215.83 1736.33,1304.17 1692.5,1392.5C 1692,1392.83 1691.5,1393.17 1691,1393.5C 1685.6,1391.64 1680.1,1390.31 1674.5,1389.5C 1630.9,1259.03 1586.9,1128.7 1542.5,998.5 Z"/></g>
<g><path style="opacity:1" fill="#99425b" d="M 1873.5,1485.5 C 1868.93,1486.44 1864.26,1486.77 1859.5,1486.5C 1832.83,1486.67 1806.16,1486.5 1779.5,1486C 1771.78,1460.39 1758.12,1438.55 1738.5,1420.5C 1766.74,1363.01 1795.24,1305.68 1824,1248.5C 1852.5,1306.84 1881,1365.17 1909.5,1423.5C 1897.22,1436.97 1887.05,1451.97 1879,1468.5C 1876.58,1474 1874.75,1479.67 1873.5,1485.5 Z"/></g>
<g><path style="opacity:1" fill="#99425b" d="M 1638.5,1439.5 C 1680.25,1438.13 1709.42,1456.46 1726,1494.5C 1736.44,1531.5 1727.28,1562.66 1698.5,1588C 1676.32,1603.51 1651.99,1608.17 1625.5,1602C 1583.8,1586.78 1563.97,1556.94 1566,1512.5C 1573.65,1471.68 1597.82,1447.35 1638.5,1439.5 Z"/></g>
<g><path style="opacity:1" fill="#99425b" d="M 1995.5,1439.5 C 2037.4,1438.77 2066.4,1457.6 2082.5,1496C 2092.58,1535.75 2081.25,1567.75 2048.5,1592C 2023.5,1606.4 1997.5,1608.4 1970.5,1598C 1930.25,1575.99 1915.08,1542.49 1925,1497.5C 1937.55,1464.78 1961.05,1445.45 1995.5,1439.5 Z"/></g>
<g><path style="opacity:1" fill="#99425b" d="M 1279.5,1440.5 C 1322.67,1438.32 1352.51,1456.98 1369,1496.5C 1379.73,1538.33 1367.23,1571.16 1331.5,1595C 1294.58,1612.98 1261.08,1608.15 1231,1580.5C 1206.53,1551.81 1201.86,1520.14 1217,1485.5C 1230.92,1460.8 1251.75,1445.8 1279.5,1440.5 Z"/></g>
<g><path style="opacity:1" fill="#dec3cb" d="M 1873.5,1485.5 C 1871.6,1486.8 1869.27,1487.47 1866.5,1487.5C 1863.97,1487.5 1861.64,1487.16 1859.5,1486.5C 1864.26,1486.77 1868.93,1486.44 1873.5,1485.5 Z"/></g>
<g><path style="opacity:1" fill="#99425b" d="M 1798.5,1539.5 C 1822.18,1539.26 1845.85,1539.6 1869.5,1540.5C 1877.89,1590.79 1905.23,1626.63 1951.5,1648C 1988.09,1662.34 2024.43,1661.67 2060.5,1646C 2067.55,1642.77 2074.22,1638.93 2080.5,1634.5C 2081.09,1634.71 2081.59,1635.04 2082,1635.5C 2102.55,1679.88 2103.88,1724.88 2086,1770.5C 2064.77,1815.39 2030.6,1845.89 1983.5,1862C 1971.61,1865.74 1959.61,1869.07 1947.5,1872C 1906.52,1878.76 1865.52,1885.43 1824.5,1892C 1781.12,1901.46 1739.12,1915.13 1698.5,1933C 1642.92,1959.12 1587.59,1985.79 1532.5,2013C 1493.37,2032.16 1452.7,2047.16 1410.5,2058C 1345.88,2074.54 1286.88,2063.21 1233.5,2024C 1203.24,1999 1184.07,1967.17 1176,1928.5C 1164.84,1864.47 1171.84,1802.47 1197,1742.5C 1210.32,1710.86 1224.98,1679.86 1241,1649.5C 1252.22,1653.55 1263.72,1656.71 1275.5,1659C 1259.29,1727.7 1277.62,1785.37 1330.5,1832C 1343.93,1842.47 1358.43,1851.31 1374,1858.5C 1481.04,1820.62 1565.2,1753.95 1626.5,1658.5C 1678.43,1663.1 1721.26,1645.77 1755,1606.5C 1769.93,1586.97 1779.1,1564.97 1782.5,1540.5C 1788.03,1540.82 1793.36,1540.49 1798.5,1539.5 Z"/></g>
</svg>
