<?xml version="1.0" encoding="UTF-8"?>
<!DOCTYPE svg PUBLIC "-//W3C//DTD SVG 1.1//EN" "http://www.w3.org/Graphics/SVG/1.1/DTD/svg11.dtd">
<svg xmlns="http://www.w3.org/2000/svg" version="1.1" width="600px" height="600px" style="shape-rendering:geometricPrecision; text-rendering:geometricPrecision; image-rendering:optimizeQuality; fill-rule:evenodd; clip-rule:evenodd" xmlns:xlink="http://www.w3.org/1999/xlink">
<g><path style="opacity:0.875" fill="#8eb6d7" d="M 328.5,49.5 C 327.608,47.6382 327.441,45.6382 328,43.5C 327.051,45.0931 325.885,46.4264 324.5,47.5C 324.834,44.8322 326.167,42.8322 328.5,41.5C 329.8,44.3092 329.8,46.9759 328.5,49.5 Z"/></g>
<g><path style="opacity:0.686" fill="#9fc0da" d="M 324.5,47.5 C 324.573,49.0269 323.906,50.0269 322.5,50.5C 322.427,48.9731 323.094,47.9731 324.5,47.5 Z"/></g>
<g><path style="opacity:1" fill="#186aad" d="M 328.5,49.5 C 328.789,53.1064 328.456,56.6064 327.5,60C 328.711,65.7283 329.377,71.5616 329.5,77.5C 329.054,80.0101 329.72,82.0101 331.5,83.5C 333.362,87.7501 335.028,92.0834 336.5,96.5C 336.725,99.5458 338.058,101.879 340.5,103.5C 340.427,105.027 341.094,106.027 342.5,106.5C 342.738,108.404 343.738,109.738 345.5,110.5C 346.5,113.5 348.5,115.5 351.5,116.5C 351.5,117.167 351.833,117.5 352.5,117.5C 353.167,120.167 354.833,121.833 357.5,122.5C 358.167,122.5 358.5,122.833 358.5,123.5C 359.585,125.587 361.251,126.92 363.5,127.5C 366.475,128.655 369.142,130.322 371.5,132.5C 376.123,137.314 381.79,140.314 388.5,141.5C 393.784,143.039 399.118,144.373 404.5,145.5C 405.492,147.026 406.992,147.693 409,147.5C 410.385,147.486 411.551,147.152 412.5,146.5C 424.902,147.432 436.902,145.765 448.5,141.5C 452.286,140.979 453.953,142.313 453.5,145.5C 450.683,149.837 447.016,153.17 442.5,155.5C 438.771,157.694 434.771,159.361 430.5,160.5C 430.137,161.183 429.804,161.85 429.5,162.5C 414.913,167.741 399.913,168.741 384.5,165.5C 384.209,164.351 383.376,163.684 382,163.5C 379.538,162.841 377.038,162.507 374.5,162.5C 369.409,159.796 364.076,157.463 358.5,155.5C 355.669,154.921 353.336,153.588 351.5,151.5C 350.089,149.086 348.089,147.419 345.5,146.5C 344.833,146.167 344.167,145.833 343.5,145.5C 342.833,142.833 341.167,141.167 338.5,140.5C 338.5,138.5 337.5,137.5 335.5,137.5C 335.167,136.833 334.833,136.167 334.5,135.5C 334.167,134.5 333.5,133.833 332.5,133.5C 332.573,131.973 331.906,130.973 330.5,130.5C 330.262,128.596 329.262,127.262 327.5,126.5C 326.662,126.158 326.328,125.492 326.5,124.5C 325.587,122.914 325.587,121.414 326.5,120C 325.299,119.097 324.465,117.931 324,116.5C 323.617,117.056 323.117,117.389 322.5,117.5C 321.662,117.158 321.328,116.492 321.5,115.5C 320.065,110.51 318.065,105.844 315.5,101.5C 315.5,101.167 315.5,100.833 315.5,100.5C 315.768,98.901 315.434,97.5676 314.5,96.5C 314.5,96.1667 314.5,95.8333 314.5,95.5C 313.861,88.8523 313.527,82.1856 313.5,75.5C 313.366,73.7085 313.699,72.0418 314.5,70.5C 316.101,67.4498 317.101,64.1165 317.5,60.5C 317.5,60.1667 317.5,59.8333 317.5,59.5C 319.924,56.9922 321.59,53.9922 322.5,50.5C 323.906,50.0269 324.573,49.0269 324.5,47.5C 325.885,46.4264 327.051,45.0931 328,43.5C 327.441,45.6382 327.608,47.6382 328.5,49.5 Z"/></g>
<g><path style="opacity:0.482" fill="#c2d8e9" d="M 322.5,50.5 C 321.59,53.9922 319.924,56.9922 317.5,59.5C 318.39,56.0516 320.057,53.0516 322.5,50.5 Z"/></g>
<g><path style="opacity:0.063" fill="#8eb8d7" d="M 317.5,60.5 C 317.101,64.1165 316.101,67.4498 314.5,70.5C 313.957,70.44 313.624,70.1067 313.5,69.5C 314.469,66.2314 315.802,63.2314 317.5,60.5 Z"/></g>
<g><path style="opacity:0.847" fill="#77a4cc" d="M 250.5,85.5 C 249.839,83.866 249.506,82.0326 249.5,80C 250.421,74.839 250.921,69.6723 251,64.5C 249.629,66.0414 248.129,67.3747 246.5,68.5C 247.882,65.6057 249.882,63.1057 252.5,61C 253.483,60.4092 254.15,60.7425 254.5,62C 252.637,69.7373 251.303,77.5707 250.5,85.5 Z"/></g>
<g><path style="opacity:0.999" fill="#1269ab" d="M 250.5,85.5 C 250.5,86.1667 250.5,86.8333 250.5,87.5C 249.179,90.5982 248.512,94.0982 248.5,98C 248.512,101.902 249.179,105.402 250.5,108.5C 250.5,110.833 250.5,113.167 250.5,115.5C 249.99,118.388 250.656,120.721 252.5,122.5C 252.5,122.833 252.5,123.167 252.5,123.5C 251.004,127.178 251.671,130.511 254.5,133.5C 255.89,135.169 256.223,136.836 255.5,138.5C 255.77,142.358 257.103,145.691 259.5,148.5C 259.461,151.089 260.461,153.089 262.5,154.5C 262.5,154.833 262.5,155.167 262.5,155.5C 262.427,157.027 263.094,158.027 264.5,158.5C 264.5,158.833 264.5,159.167 264.5,159.5C 264.932,160.71 265.599,161.71 266.5,162.5C 266.427,164.027 267.094,165.027 268.5,165.5C 268.427,167.027 269.094,168.027 270.5,168.5C 270.738,170.404 271.738,171.738 273.5,172.5C 273.427,174.027 274.094,175.027 275.5,175.5C 276.08,177.749 277.413,179.415 279.5,180.5C 279.833,181.5 280.5,182.167 281.5,182.5C 282.833,183.167 283.833,184.167 284.5,185.5C 284.833,186.5 285.5,187.167 286.5,187.5C 286.833,188.5 287.5,189.167 288.5,189.5C 288.833,190.5 289.5,191.167 290.5,191.5C 297.19,196.531 303.857,201.531 310.5,206.5C 311.802,208.822 313.802,210.155 316.5,210.5C 316.833,210.5 317.167,210.5 317.5,210.5C 319.331,212.776 321.664,214.609 324.5,216C 326.65,217.411 328.984,218.245 331.5,218.5C 332.911,220.539 334.911,221.539 337.5,221.5C 337.833,221.5 338.167,221.5 338.5,221.5C 339.287,223.104 340.62,223.771 342.5,223.5C 347.849,225.172 353.182,226.839 358.5,228.5C 358.791,229.649 359.624,230.316 361,230.5C 362.735,231.226 364.235,231.226 365.5,230.5C 368.482,230.963 371.482,231.296 374.5,231.5C 374.62,232.586 375.287,233.253 376.5,233.5C 377.416,233.457 378.083,233.124 378.5,232.5C 389.183,232.572 399.85,232.238 410.5,231.5C 416.024,231.669 421.024,230.336 425.5,227.5C 425.833,227.5 426.167,227.5 426.5,227.5C 431.088,226.978 435.088,225.312 438.5,222.5C 440.153,222.34 441.486,221.674 442.5,220.5C 444.566,218.801 446.9,217.468 449.5,216.5C 451.027,216.573 452.027,215.906 452.5,214.5C 454.027,214.573 455.027,213.906 455.5,212.5C 457.404,212.262 458.738,211.262 459.5,209.5C 460.579,207.457 462.246,206.124 464.5,205.5C 468.167,203.833 470.833,201.167 472.5,197.5C 473.492,197.328 474.158,197.662 474.5,198.5C 474.672,199.492 474.338,200.158 473.5,200.5C 471.659,202.849 470.326,205.515 469.5,208.5C 468.094,208.973 467.427,209.973 467.5,211.5C 467.5,211.833 467.5,212.167 467.5,212.5C 466.026,213.436 465.026,214.77 464.5,216.5C 463.094,216.973 462.427,217.973 462.5,219.5C 461.299,221.909 459.633,223.909 457.5,225.5C 453.434,228.563 450.101,232.229 447.5,236.5C 447.167,236.5 446.833,236.5 446.5,236.5C 444.5,236.5 443.5,237.5 443.5,239.5C 441.628,241.604 439.295,242.937 436.5,243.5C 433.489,244.669 430.822,246.336 428.5,248.5C 419.042,254.381 408.709,258.381 397.5,260.5C 397.44,259.957 397.107,259.624 396.5,259.5C 393.891,260.23 391.224,260.73 388.5,261C 386.881,261.236 385.881,262.069 385.5,263.5C 383.167,263.5 380.833,263.5 378.5,263.5C 377.551,262.848 376.385,262.514 375,262.5C 373.319,262.608 372.152,263.275 371.5,264.5C 367.167,264.5 362.833,264.5 358.5,264.5C 356.342,262.78 353.675,261.947 350.5,262C 347.304,261.195 344.304,261.362 341.5,262.5C 340.041,262.567 338.708,262.234 337.5,261.5C 334.732,260.133 331.732,259.133 328.5,258.5C 327.893,258.624 327.56,258.957 327.5,259.5C 325.447,259.598 323.78,258.931 322.5,257.5C 318.557,255.037 314.224,253.37 309.5,252.5C 307.486,252.608 305.82,251.942 304.5,250.5C 304.027,249.094 303.027,248.427 301.5,248.5C 300.508,248.672 299.842,248.338 299.5,247.5C 298.486,246.326 297.153,245.66 295.5,245.5C 290.635,243.237 286.302,240.237 282.5,236.5C 282.027,235.094 281.027,234.427 279.5,234.5C 279.167,234.5 278.833,234.5 278.5,234.5C 277.5,231.5 275.5,229.5 272.5,228.5C 267.167,223.833 262.167,218.833 257.5,213.5C 256.92,211.251 255.587,209.585 253.5,208.5C 252.094,208.027 251.427,207.027 251.5,205.5C 251.167,204.5 250.5,203.833 249.5,203.5C 249.13,200.733 247.796,198.733 245.5,197.5C 243.917,195.337 242.584,193.004 241.5,190.5C 240.59,187.008 238.924,184.008 236.5,181.5C 234.94,179.046 233.94,176.38 233.5,173.5C 233.741,171.102 233.074,169.102 231.5,167.5C 231.741,165.102 231.074,163.102 229.5,161.5C 229.5,161.167 229.5,160.833 229.5,160.5C 229.165,155.823 228.665,151.156 228,146.5C 227.764,144.881 226.931,143.881 225.5,143.5C 225.619,135.783 225.619,128.116 225.5,120.5C 226.748,119.666 227.415,118.333 227.5,116.5C 228.277,111.506 228.944,106.506 229.5,101.5C 230.025,97.467 231.358,93.8004 233.5,90.5C 234.674,89.4863 235.34,88.153 235.5,86.5C 235.5,86.1667 235.5,85.8333 235.5,85.5C 237.022,84.5688 238.355,83.4021 239.5,82C 240.704,78.1908 242.371,74.6908 244.5,71.5C 245.906,71.0269 246.573,70.0269 246.5,68.5C 248.129,67.3747 249.629,66.0414 251,64.5C 250.921,69.6723 250.421,74.839 249.5,80C 249.506,82.0326 249.839,83.866 250.5,85.5 Z"/></g>
<g><path style="opacity:1" fill="#a3c5df" d="M 246.5,68.5 C 246.573,70.0269 245.906,71.0269 244.5,71.5C 244.427,69.9731 245.094,68.9731 246.5,68.5 Z"/></g>
<g><path style="opacity:1" fill="#89acd2" d="M 244.5,71.5 C 242.371,74.6908 240.704,78.1908 239.5,82C 238.355,83.4021 237.022,84.5688 235.5,85.5C 237.506,80.1454 240.506,75.4787 244.5,71.5 Z"/></g>
<g><path style="opacity:0.894" fill="#95bad8" d="M 329.5,77.5 C 330.738,79.2143 331.405,81.2143 331.5,83.5C 329.72,82.0101 329.054,80.0101 329.5,77.5 Z"/></g>
<g><path style="opacity:0.227" fill="#87b2d4" d="M 313.5,75.5 C 313.527,82.1856 313.861,88.8523 314.5,95.5C 313.06,91.5936 312.394,87.4269 312.5,83C 312.503,80.3097 312.836,77.8097 313.5,75.5 Z"/></g>
<g><path style="opacity:0.212" fill="#c0d8e9" d="M 235.5,86.5 C 235.34,88.153 234.674,89.4863 233.5,90.5C 233.229,88.6203 233.896,87.287 235.5,86.5 Z"/></g>
<g><path style="opacity:1" fill="#6ca1cb" d="M 250.5,87.5 C 250.5,94.5 250.5,101.5 250.5,108.5C 249.179,105.402 248.512,101.902 248.5,98C 248.512,94.0982 249.179,90.5982 250.5,87.5 Z"/></g>
<g><path style="opacity:1" fill="#0f68ab" d="M 158.5,114.5 C 158.5,114.833 158.5,115.167 158.5,115.5C 157.167,116.5 157.167,117.5 158.5,118.5C 158.5,119.167 158.5,119.833 158.5,120.5C 156.598,123.337 155.931,126.671 156.5,130.5C 156.833,131.167 157.167,131.833 157.5,132.5C 156.2,134.223 155.533,136.39 155.5,139C 155.504,141.361 155.837,143.527 156.5,145.5C 156.5,146.167 156.5,146.833 156.5,147.5C 155.84,148.964 155.507,150.631 155.5,152.5C 155.316,155.205 155.983,157.538 157.5,159.5C 157.5,160.167 157.5,160.833 157.5,161.5C 156.84,162.964 156.507,164.631 156.5,166.5C 156.556,168.64 157.223,170.306 158.5,171.5C 158.5,171.833 158.5,172.167 158.5,172.5C 157.106,177.074 157.773,181.408 160.5,185.5C 160.5,185.833 160.5,186.167 160.5,186.5C 160.41,189.152 161.076,191.485 162.5,193.5C 162.259,195.898 162.926,197.898 164.5,199.5C 164.263,200.791 164.596,201.791 165.5,202.5C 166.11,203.391 166.443,204.391 166.5,205.5C 166.263,206.791 166.596,207.791 167.5,208.5C 167.796,210.403 168.463,212.07 169.5,213.5C 170.338,213.842 170.672,214.508 170.5,215.5C 170.461,218.089 171.461,220.089 173.5,221.5C 175.008,223.181 176.008,225.181 176.5,227.5C 176.427,229.027 177.094,230.027 178.5,230.5C 178.5,230.833 178.5,231.167 178.5,231.5C 178.932,232.71 179.599,233.71 180.5,234.5C 180.738,236.404 181.738,237.738 183.5,238.5C 184.674,239.514 185.34,240.847 185.5,242.5C 185.833,243.5 186.5,244.167 187.5,244.5C 187.427,246.027 188.094,247.027 189.5,247.5C 189.427,249.027 190.094,250.027 191.5,250.5C 191.833,251.5 192.5,252.167 193.5,252.5C 193.738,254.404 194.738,255.738 196.5,256.5C 198.091,259.431 200.091,262.098 202.5,264.5C 204.988,269.655 208.988,272.988 214.5,274.5C 215.5,275.167 216.5,275.833 217.5,276.5C 217.5,278.5 218.5,279.5 220.5,279.5C 222.858,281.529 225.192,283.529 227.5,285.5C 228.262,287.262 229.596,288.262 231.5,288.5C 233.296,290.9 235.63,292.567 238.5,293.5C 240.147,295.326 242.147,296.66 244.5,297.5C 245.492,297.328 246.158,297.662 246.5,298.5C 247.802,300.822 249.802,302.155 252.5,302.5C 255.161,305.502 258.495,307.502 262.5,308.5C 264.38,308.229 265.713,308.896 266.5,310.5C 270.581,313.874 275.247,316.207 280.5,317.5C 280.833,317.5 281.167,317.5 281.5,317.5C 284.192,320.181 287.525,321.514 291.5,321.5C 293.5,321.833 295.5,322.167 297.5,322.5C 298.122,324.335 299.456,325.502 301.5,326C 305.682,326.78 309.849,327.614 314,328.5C 314.765,328.43 315.265,328.097 315.5,327.5C 317.216,327.629 318.883,327.962 320.5,328.5C 322.713,330.312 325.047,330.645 327.5,329.5C 348.341,331.543 369.008,330.543 389.5,326.5C 390.946,327.613 392.613,327.78 394.5,327C 399.805,325.666 404.805,323.833 409.5,321.5C 413.866,318.988 418.533,316.988 423.5,315.5C 425.38,315.771 426.713,315.104 427.5,313.5C 434.159,309.503 440.825,305.503 447.5,301.5C 450.089,300.581 452.089,298.914 453.5,296.5C 455.833,296.167 457.167,294.833 457.5,292.5C 459.5,290.833 461.5,289.167 463.5,287.5C 464.338,287.842 464.672,288.508 464.5,289.5C 462.654,291.03 461.654,293.03 461.5,295.5C 459.75,296.659 458.75,298.326 458.5,300.5C 457.094,300.973 456.427,301.973 456.5,303.5C 455.026,304.436 454.026,305.77 453.5,307.5C 451.262,312.071 448.262,316.071 444.5,319.5C 439.167,324.167 434.167,329.167 429.5,334.5C 427.167,334.833 425.833,336.167 425.5,338.5C 424.833,338.833 424.167,339.167 423.5,339.5C 421.596,339.738 420.262,340.738 419.5,342.5C 416.725,345.605 413.392,347.938 409.5,349.5C 405.495,350.498 402.161,352.498 399.5,355.5C 397.151,357.341 394.485,358.674 391.5,359.5C 387.863,360.263 384.53,361.597 381.5,363.5C 380.22,364.931 378.553,365.598 376.5,365.5C 374.102,365.259 372.102,365.926 370.5,367.5C 368.485,368.924 366.152,369.59 363.5,369.5C 360.772,369.171 358.438,369.837 356.5,371.5C 353.57,372.299 350.57,372.632 347.5,372.5C 343.988,371.945 340.988,372.612 338.5,374.5C 327.489,375.568 316.489,375.568 305.5,374.5C 297.466,372.133 289.133,371.133 280.5,371.5C 274.545,370.95 268.878,369.616 263.5,367.5C 259.915,365.194 255.915,363.861 251.5,363.5C 247.797,361.321 243.797,359.655 239.5,358.5C 238.209,358.737 237.209,358.404 236.5,357.5C 236.279,356.265 235.612,355.265 234.5,354.5C 230.015,353.085 225.682,351.419 221.5,349.5C 214.803,346.489 208.803,342.489 203.5,337.5C 203.027,336.094 202.027,335.427 200.5,335.5C 198.091,334.299 196.091,332.633 194.5,330.5C 194.027,329.094 193.027,328.427 191.5,328.5C 184.167,321.833 177.167,314.833 170.5,307.5C 169.92,305.251 168.587,303.585 166.5,302.5C 165.833,302.5 165.5,302.167 165.5,301.5C 165.167,300.5 164.5,299.833 163.5,299.5C 163.5,299.167 163.5,298.833 163.5,298.5C 163.167,297.5 162.5,296.833 161.5,296.5C 161.573,294.973 160.906,293.973 159.5,293.5C 156.395,290.725 154.062,287.392 152.5,283.5C 151.89,281.566 150.89,279.899 149.5,278.5C 149.573,276.973 148.906,275.973 147.5,275.5C 146.662,275.158 146.328,274.492 146.5,273.5C 146.573,271.973 145.906,270.973 144.5,270.5C 143.326,269.486 142.66,268.153 142.5,266.5C 141.588,262.749 139.922,259.416 137.5,256.5C 137.585,253.351 136.585,250.684 134.5,248.5C 134.598,246.447 133.931,244.78 132.5,243.5C 132.741,241.102 132.074,239.102 130.5,237.5C 130.741,235.102 130.074,233.102 128.5,231.5C 127.659,229.621 127.325,227.621 127.5,225.5C 127.829,222.772 127.163,220.438 125.5,218.5C 124.85,216.565 124.517,214.565 124.5,212.5C 125.645,210.047 125.312,207.713 123.5,205.5C 122.686,200.881 122.353,196.214 122.5,191.5C 123.833,187.833 123.833,184.167 122.5,180.5C 122.569,175.146 122.902,169.813 123.5,164.5C 125.344,162.721 126.01,160.388 125.5,157.5C 125.5,157.167 125.5,156.833 125.5,156.5C 127.163,154.562 127.829,152.228 127.5,149.5C 129.101,146.45 130.101,143.116 130.5,139.5C 131.931,138.22 132.598,136.553 132.5,134.5C 133.674,133.486 134.34,132.153 134.5,130.5C 135.674,129.486 136.34,128.153 136.5,126.5C 137.674,125.486 138.34,124.153 138.5,122.5C 138.527,120.801 139.194,119.467 140.5,118.5C 142.522,116.469 144.189,114.135 145.5,111.5C 145.427,109.973 146.094,108.973 147.5,108.5C 150.556,106.051 152.889,103.051 154.5,99.5C 156.296,98.2073 157.963,96.7073 159.5,95C 160.483,94.4092 161.15,94.7425 161.5,96C 159.432,101.97 158.432,108.137 158.5,114.5 Z"/></g>
<g><path style="opacity:0.616" fill="#bad4e7" d="M 314.5,96.5 C 315.434,97.5676 315.768,98.901 315.5,100.5C 313.862,99.2954 313.529,97.9621 314.5,96.5 Z"/></g>
<g><path style="opacity:0.839" fill="#98bad9" d="M 336.5,96.5 C 338.199,98.5664 339.532,100.9 340.5,103.5C 338.058,101.879 336.725,99.5458 336.5,96.5 Z"/></g>
<g><path style="opacity:1" fill="#81abd1" d="M 154.5,99.5 C 152.889,103.051 150.556,106.051 147.5,108.5C 148.952,104.799 151.285,101.799 154.5,99.5 Z"/></g>
<g><path style="opacity:0.004" fill="#bad3e6" d="M 315.5,101.5 C 318.065,105.844 320.065,110.51 321.5,115.5C 318.303,111.425 316.303,106.759 315.5,101.5 Z"/></g>
<g><path style="opacity:0.008" fill="#c3d9e9" d="M 340.5,103.5 C 342.048,103.821 342.715,104.821 342.5,106.5C 341.094,106.027 340.427,105.027 340.5,103.5 Z"/></g>
<g><path style="opacity:1" fill="#83aed2" d="M 158.5,114.5 C 158.432,108.137 159.432,101.97 161.5,96C 161.15,94.7425 160.483,94.4092 159.5,95C 157.963,96.7073 156.296,98.2073 154.5,99.5C 155.789,96.2104 158.123,93.8771 161.5,92.5C 161.833,93.6667 162.167,94.8333 162.5,96C 161.296,102.321 159.963,108.488 158.5,114.5 Z"/></g>
<g><path style="opacity:1" fill="#a1c2dd" d="M 342.5,106.5 C 344.262,107.262 345.262,108.596 345.5,110.5C 343.738,109.738 342.738,108.404 342.5,106.5 Z"/></g>
<g><path style="opacity:1" fill="#9bbdda" d="M 345.5,110.5 C 347.882,112.215 349.882,114.215 351.5,116.5C 348.5,115.5 346.5,113.5 345.5,110.5 Z"/></g>
<g><path style="opacity:0.259" fill="#82afd2" d="M 229.5,101.5 C 228.944,106.506 228.277,111.506 227.5,116.5C 227.415,118.333 226.748,119.666 225.5,120.5C 226.075,113.886 227.408,107.553 229.5,101.5 Z"/></g>
<g><path style="opacity:0.627" fill="#c2d9ea" d="M 145.5,111.5 C 144.189,114.135 142.522,116.469 140.5,118.5C 141.069,115.281 142.736,112.948 145.5,111.5 Z"/></g>
<g><path style="opacity:0.98" fill="#abcbe2" d="M 158.5,115.5 C 159.833,116.5 159.833,117.5 158.5,118.5C 157.167,117.5 157.167,116.5 158.5,115.5 Z"/></g>
<g><path style="opacity:0.427" fill="#9bbfdb" d="M 250.5,115.5 C 251.612,117.599 252.279,119.933 252.5,122.5C 250.656,120.721 249.99,118.388 250.5,115.5 Z"/></g>
<g><path style="opacity:0.875" fill="#acc9e0" d="M 352.5,117.5 C 354.5,118.833 356.167,120.5 357.5,122.5C 354.833,121.833 353.167,120.167 352.5,117.5 Z"/></g>
<g><path style="opacity:1" fill="#799cc9" d="M 326.5,124.5 C 324.412,122.664 323.079,120.331 322.5,117.5C 323.117,117.389 323.617,117.056 324,116.5C 324.465,117.931 325.299,119.097 326.5,120C 325.587,121.414 325.587,122.914 326.5,124.5 Z"/></g>
<g><path style="opacity:0.239" fill="#9ec3de" d="M 138.5,122.5 C 138.34,124.153 137.674,125.486 136.5,126.5C 136.229,124.62 136.896,123.287 138.5,122.5 Z"/></g>
<g><path style="opacity:0.663" fill="#7ba8cf" d="M 158.5,120.5 C 158.101,124.011 157.434,127.344 156.5,130.5C 155.931,126.671 156.598,123.337 158.5,120.5 Z"/></g>
<g><path style="opacity:0.484" fill="#a5c5df" d="M 358.5,123.5 C 360.749,124.08 362.415,125.413 363.5,127.5C 361.251,126.92 359.585,125.587 358.5,123.5 Z"/></g>
<g><path style="opacity:0.255" fill="#9ac0dc" d="M 136.5,126.5 C 136.34,128.153 135.674,129.486 134.5,130.5C 134.229,128.62 134.896,127.287 136.5,126.5 Z"/></g>
<g><path style="opacity:0.325" fill="#86b0d2" d="M 252.5,123.5 C 253.167,126.833 253.833,130.167 254.5,133.5C 251.671,130.511 251.004,127.178 252.5,123.5 Z"/></g>
<g><path style="opacity:0.09" fill="#d4e3ef" d="M 327.5,126.5 C 329.262,127.262 330.262,128.596 330.5,130.5C 328.554,129.965 327.554,128.632 327.5,126.5 Z"/></g>
<g><path style="opacity:0.753" fill="#c1d9e9" d="M 134.5,130.5 C 134.34,132.153 133.674,133.486 132.5,134.5C 132.229,132.62 132.896,131.287 134.5,130.5 Z"/></g>
<g><path style="opacity:0.059" fill="#d2e3ef" d="M 330.5,130.5 C 331.906,130.973 332.573,131.973 332.5,133.5C 331.094,133.027 330.427,132.027 330.5,130.5 Z"/></g>
<g><path style="opacity:0.043" fill="#e7eff5" d="M 332.5,133.5 C 333.5,133.833 334.167,134.5 334.5,135.5C 333.167,135.5 332.5,134.833 332.5,133.5 Z"/></g>
<g><path style="opacity:0.702" fill="#7babd0" d="M 371.5,132.5 C 377.048,135.773 382.714,138.773 388.5,141.5C 381.79,140.314 376.123,137.314 371.5,132.5 Z"/></g>
<g><path style="opacity:0.137" fill="#b9d4e7" d="M 132.5,134.5 C 132.598,136.553 131.931,138.22 130.5,139.5C 130.402,137.447 131.069,135.78 132.5,134.5 Z"/></g>
<g><path style="opacity:0.176" fill="#d5e4f0" d="M 335.5,137.5 C 337.5,137.5 338.5,138.5 338.5,140.5C 336.81,140.144 335.81,139.144 335.5,137.5 Z"/></g>
<g><path style="opacity:0.956" fill="#8cb6d7" d="M 157.5,132.5 C 157.769,136.931 157.436,141.265 156.5,145.5C 155.837,143.527 155.504,141.361 155.5,139C 155.533,136.39 156.2,134.223 157.5,132.5 Z"/></g>
<g><path style="opacity:1" fill="#afc9df" d="M 338.5,140.5 C 341.167,141.167 342.833,142.833 343.5,145.5C 341.5,144.167 339.833,142.5 338.5,140.5 Z"/></g>
<g><path style="opacity:1" fill="#8db4d5" d="M 255.5,138.5 C 257.403,141.53 258.737,144.863 259.5,148.5C 257.103,145.691 255.77,142.358 255.5,138.5 Z"/></g>
<g><path style="opacity:1" fill="#6592c4" d="M 453.5,145.5 C 453.953,142.313 452.286,140.979 448.5,141.5C 451.729,139.853 455.063,138.186 458.5,136.5C 459.583,137.365 459.749,138.365 459,139.5C 457.366,141.837 455.533,143.837 453.5,145.5 Z"/></g>
<g><path style="opacity:0.2" fill="#adcbe2" d="M 130.5,139.5 C 130.101,143.116 129.101,146.45 127.5,149.5C 127.59,145.786 128.59,142.452 130.5,139.5 Z"/></g>
<g><path style="opacity:0.918" fill="#85afd3" d="M 404.5,145.5 C 407.127,146.092 409.794,146.425 412.5,146.5C 411.551,147.152 410.385,147.486 409,147.5C 406.992,147.693 405.492,147.026 404.5,145.5 Z"/></g>
<g><path style="opacity:0.871" fill="#82aed1" d="M 225.5,143.5 C 226.931,143.881 227.764,144.881 228,146.5C 228.665,151.156 229.165,155.823 229.5,160.5C 227.805,155.044 226.471,149.377 225.5,143.5 Z"/></g>
<g><path style="opacity:0.514" fill="#a6c4dd" d="M 345.5,146.5 C 348.089,147.419 350.089,149.086 351.5,151.5C 348.911,150.581 346.911,148.914 345.5,146.5 Z"/></g>
<g><path style="opacity:0.416" fill="#bed5e6" d="M 259.5,148.5 C 261.008,150.181 262.008,152.181 262.5,154.5C 260.461,153.089 259.461,151.089 259.5,148.5 Z"/></g>
<g><path style="opacity:0.141" fill="#a5c6df" d="M 127.5,149.5 C 127.829,152.228 127.163,154.562 125.5,156.5C 125.41,153.848 126.076,151.515 127.5,149.5 Z"/></g>
<g><path style="opacity:0.4" fill="#b8d2e6" d="M 262.5,155.5 C 263.906,155.973 264.573,156.973 264.5,158.5C 263.094,158.027 262.427,157.027 262.5,155.5 Z"/></g>
<g><path style="opacity:0.071" fill="#8cb6d7" d="M 156.5,147.5 C 157.483,151.298 157.817,155.298 157.5,159.5C 155.983,157.538 155.316,155.205 155.5,152.5C 155.507,150.631 155.84,148.964 156.5,147.5 Z"/></g>
<g><path style="opacity:0.016" fill="#87b4d5" d="M 358.5,155.5 C 364.076,157.463 369.409,159.796 374.5,162.5C 368.404,161.698 363.07,159.365 358.5,155.5 Z"/></g>
<g><path style="opacity:0.031" fill="#dce9f3" d="M 264.5,159.5 C 266.048,159.821 266.715,160.821 266.5,162.5C 265.599,161.71 264.932,160.71 264.5,159.5 Z"/></g>
<g><path style="opacity:1" fill="#6898c7" d="M 442.5,155.5 C 438.929,159.121 434.596,161.454 429.5,162.5C 429.804,161.85 430.137,161.183 430.5,160.5C 434.771,159.361 438.771,157.694 442.5,155.5 Z"/></g>
<g><path style="opacity:0.416" fill="#88b2d4" d="M 125.5,157.5 C 126.01,160.388 125.344,162.721 123.5,164.5C 123.721,161.933 124.388,159.599 125.5,157.5 Z"/></g>
<g><path style="opacity:0.118" fill="#78a8ce" d="M 374.5,162.5 C 377.038,162.507 379.538,162.841 382,163.5C 383.376,163.684 384.209,164.351 384.5,165.5C 380.917,164.993 377.583,163.993 374.5,162.5 Z"/></g>
<g><path style="opacity:0.651" fill="#96bdda" d="M 229.5,161.5 C 231.074,163.102 231.741,165.102 231.5,167.5C 229.926,165.898 229.259,163.898 229.5,161.5 Z"/></g>
<g><path style="opacity:0.561" fill="#b2cfe4" d="M 266.5,162.5 C 267.906,162.973 268.573,163.973 268.5,165.5C 267.094,165.027 266.427,164.027 266.5,162.5 Z"/></g>
<g><path style="opacity:0.902" fill="#adc9de" d="M 268.5,165.5 C 269.906,165.973 270.573,166.973 270.5,168.5C 269.094,168.027 268.427,167.027 268.5,165.5 Z"/></g>
<g><path style="opacity:0.902" fill="#6fa2cc" d="M 157.5,161.5 C 157.616,164.86 157.949,168.193 158.5,171.5C 157.223,170.306 156.556,168.64 156.5,166.5C 156.507,164.631 156.84,162.964 157.5,161.5 Z"/></g>
<g><path style="opacity:0.02" fill="#d1e2ef" d="M 270.5,168.5 C 272.446,169.035 273.446,170.368 273.5,172.5C 271.738,171.738 270.738,170.404 270.5,168.5 Z"/></g>
<g><path style="opacity:0.031" fill="#90bad9" d="M 231.5,167.5 C 233.074,169.102 233.741,171.102 233.5,173.5C 231.926,171.898 231.259,169.898 231.5,167.5 Z"/></g>
<g><path style="opacity:0.929" fill="#accbe3" d="M 273.5,172.5 C 274.906,172.973 275.573,173.973 275.5,175.5C 274.094,175.027 273.427,174.027 273.5,172.5 Z"/></g>
<g><path style="opacity:0.969" fill="#6d9fca" d="M 158.5,172.5 C 159.422,176.448 160.089,180.781 160.5,185.5C 157.773,181.408 157.106,177.074 158.5,172.5 Z"/></g>
<g><path style="opacity:1" fill="#92b8d7" d="M 275.5,175.5 C 277.587,176.585 278.92,178.251 279.5,180.5C 277.413,179.415 276.08,177.749 275.5,175.5 Z"/></g>
<g><path style="opacity:0.008" fill="#d9e4ec" d="M 279.5,180.5 C 280.833,180.5 281.5,181.167 281.5,182.5C 280.5,182.167 279.833,181.5 279.5,180.5 Z"/></g>
<g><path style="opacity:0.973" fill="#9ec2dd" d="M 122.5,180.5 C 123.833,184.167 123.833,187.833 122.5,191.5C 121.167,187.833 121.167,184.167 122.5,180.5 Z"/></g>
<g><path style="opacity:0.463" fill="#cfe0ee" d="M 236.5,181.5 C 238.924,184.008 240.59,187.008 241.5,190.5C 239.057,187.948 237.39,184.948 236.5,181.5 Z"/></g>
<g><path style="opacity:0.012" fill="#ecf3f9" d="M 284.5,185.5 C 285.833,185.5 286.5,186.167 286.5,187.5C 285.5,187.167 284.833,186.5 284.5,185.5 Z"/></g>
<g><path style="opacity:0.016" fill="#edf4f9" d="M 286.5,187.5 C 287.833,187.5 288.5,188.167 288.5,189.5C 287.5,189.167 286.833,188.5 286.5,187.5 Z"/></g>
<g><path style="opacity:0.004" fill="#e2eaef" d="M 288.5,189.5 C 289.833,189.5 290.5,190.167 290.5,191.5C 289.5,191.167 288.833,190.5 288.5,189.5 Z"/></g>
<g><path style="opacity:0.58" fill="#93bad8" d="M 160.5,186.5 C 162.163,188.438 162.829,190.772 162.5,193.5C 161.076,191.485 160.41,189.152 160.5,186.5 Z"/></g>
<g><path style="opacity:1" fill="#96bbd9" d="M 474.5,198.5 C 474.158,197.662 473.492,197.328 472.5,197.5C 473.322,195.272 474.655,194.605 476.5,195.5C 476.058,196.739 475.391,197.739 474.5,198.5 Z"/></g>
<g><path style="opacity:0.737" fill="#a8c8df" d="M 162.5,193.5 C 164.074,195.102 164.741,197.102 164.5,199.5C 162.926,197.898 162.259,195.898 162.5,193.5 Z"/></g>
<g><path style="opacity:0.31" fill="#d0e2ef" d="M 164.5,199.5 C 165.267,200.172 165.934,201.005 166.5,202C 166.272,202.399 165.938,202.565 165.5,202.5C 164.596,201.791 164.263,200.791 164.5,199.5 Z"/></g>
<g><path style="opacity:0.008" fill="#bfd4e8" d="M 245.5,197.5 C 247.796,198.733 249.13,200.733 249.5,203.5C 247.684,201.882 246.351,199.882 245.5,197.5 Z"/></g>
<g><path style="opacity:1" fill="#86add1" d="M 472.5,197.5 C 470.833,201.167 468.167,203.833 464.5,205.5C 466.833,202.5 469.5,199.833 472.5,197.5 Z"/></g>
<g><path style="opacity:0.024" fill="#e0ecf4" d="M 249.5,203.5 C 250.5,203.833 251.167,204.5 251.5,205.5C 250.167,205.5 249.5,204.833 249.5,203.5 Z"/></g>
<g><path style="opacity:0.467" fill="#d3e3f0" d="M 166.5,205.5 C 168.481,206.105 168.815,207.105 167.5,208.5C 166.596,207.791 166.263,206.791 166.5,205.5 Z"/></g>
<g><path style="opacity:0.024" fill="#b6d1e6" d="M 473.5,200.5 C 473.206,203.754 471.873,206.421 469.5,208.5C 470.326,205.515 471.659,202.849 473.5,200.5 Z"/></g>
<g><path style="opacity:0.067" fill="#cddfed" d="M 253.5,208.5 C 255.587,209.585 256.92,211.251 257.5,213.5C 255.413,212.415 254.08,210.749 253.5,208.5 Z"/></g>
<g><path style="opacity:0.282" fill="#8bb6d6" d="M 310.5,206.5 C 312.853,207.34 314.853,208.674 316.5,210.5C 313.802,210.155 311.802,208.822 310.5,206.5 Z"/></g>
<g><path style="opacity:0.161" fill="#cfe0ed" d="M 167.5,208.5 C 169.213,209.635 169.88,211.302 169.5,213.5C 168.463,212.07 167.796,210.403 167.5,208.5 Z"/></g>
<g><path style="opacity:0.404" fill="#9abfdb" d="M 459.5,209.5 C 458.738,211.262 457.404,212.262 455.5,212.5C 456.262,210.738 457.596,209.738 459.5,209.5 Z"/></g>
<g><path style="opacity:0.435" fill="#b6d0e4" d="M 469.5,208.5 C 469.715,210.179 469.048,211.179 467.5,211.5C 467.427,209.973 468.094,208.973 469.5,208.5 Z"/></g>
<g><path style="opacity:0.612" fill="#7cabd0" d="M 123.5,205.5 C 125.312,207.713 125.645,210.047 124.5,212.5C 123.532,210.393 123.198,208.059 123.5,205.5 Z"/></g>
<g><path style="opacity:0.98" fill="#9cc1db" d="M 455.5,212.5 C 455.027,213.906 454.027,214.573 452.5,214.5C 452.973,213.094 453.973,212.427 455.5,212.5 Z"/></g>
<g><path style="opacity:0.039" fill="#e3edf5" d="M 467.5,212.5 C 467.446,214.632 466.446,215.965 464.5,216.5C 465.026,214.77 466.026,213.436 467.5,212.5 Z"/></g>
<g><path style="opacity:0.627" fill="#82b0d3" d="M 317.5,210.5 C 322.446,212.803 327.113,215.469 331.5,218.5C 328.984,218.245 326.65,217.411 324.5,216C 321.664,214.609 319.331,212.776 317.5,210.5 Z"/></g>
<g><path style="opacity:0.886" fill="#9cc1dc" d="M 452.5,214.5 C 452.027,215.906 451.027,216.573 449.5,216.5C 449.973,215.094 450.973,214.427 452.5,214.5 Z"/></g>
<g><path style="opacity:0.525" fill="#b5cfe2" d="M 170.5,215.5 C 172.346,217.03 173.346,219.03 173.5,221.5C 171.461,220.089 170.461,218.089 170.5,215.5 Z"/></g>
<g><path style="opacity:0.086" fill="#bbd4e8" d="M 464.5,216.5 C 464.573,218.027 463.906,219.027 462.5,219.5C 462.427,217.973 463.094,216.973 464.5,216.5 Z"/></g>
<g><path style="opacity:0.565" fill="#89b5d6" d="M 331.5,218.5 C 333.819,218.992 335.819,219.992 337.5,221.5C 334.911,221.539 332.911,220.539 331.5,218.5 Z"/></g>
<g><path style="opacity:0.792" fill="#90b8d8" d="M 125.5,218.5 C 127.163,220.438 127.829,222.772 127.5,225.5C 126.076,223.485 125.41,221.152 125.5,218.5 Z"/></g>
<g><path style="opacity:0.824" fill="#abcbe2" d="M 442.5,220.5 C 441.486,221.674 440.153,222.34 438.5,222.5C 439.287,220.896 440.62,220.229 442.5,220.5 Z"/></g>
<g><path style="opacity:0.431" fill="#9fc3de" d="M 338.5,221.5 C 340.153,221.66 341.486,222.326 342.5,223.5C 340.62,223.771 339.287,223.104 338.5,221.5 Z"/></g>
<g><path style="opacity:1" fill="#7baad0" d="M 438.5,222.5 C 435.088,225.312 431.088,226.978 426.5,227.5C 430.262,225.462 434.262,223.796 438.5,222.5 Z"/></g>
<g><path style="opacity:0.09" fill="#d3e1eb" d="M 457.5,225.5 C 454.899,229.771 451.566,233.437 447.5,236.5C 450.101,232.229 453.434,228.563 457.5,225.5 Z"/></g>
<g><path style="opacity:0.329" fill="#e0eaf2" d="M 176.5,227.5 C 177.906,227.973 178.573,228.973 178.5,230.5C 177.094,230.027 176.427,229.027 176.5,227.5 Z"/></g>
<g><path style="opacity:0.29" fill="#76a8cf" d="M 358.5,228.5 C 361.01,228.927 363.343,229.593 365.5,230.5C 364.235,231.226 362.735,231.226 361,230.5C 359.624,230.316 358.791,229.649 358.5,228.5 Z"/></g>
<g><path style="opacity:0.075" fill="#9fc1dd" d="M 272.5,228.5 C 275.5,229.5 277.5,231.5 278.5,234.5C 276.167,232.833 274.167,230.833 272.5,228.5 Z"/></g>
<g><path style="opacity:1" fill="#629ac7" d="M 425.5,227.5 C 421.024,230.336 416.024,231.669 410.5,231.5C 415.345,229.925 420.345,228.592 425.5,227.5 Z"/></g>
<g><path style="opacity:0.02" fill="#e0ebf2" d="M 178.5,231.5 C 180.048,231.821 180.715,232.821 180.5,234.5C 179.599,233.71 178.932,232.71 178.5,231.5 Z"/></g>
<g><path style="opacity:0.016" fill="#bfd7e7" d="M 128.5,231.5 C 130.074,233.102 130.741,235.102 130.5,237.5C 128.926,235.898 128.259,233.898 128.5,231.5 Z"/></g>
<g><path style="opacity:0.89" fill="#75a7ce" d="M 374.5,231.5 C 376.099,231.232 377.432,231.566 378.5,232.5C 378.083,233.124 377.416,233.457 376.5,233.5C 375.287,233.253 374.62,232.586 374.5,231.5 Z"/></g>
<g><path style="opacity:0.98" fill="#9fc1dc" d="M 279.5,234.5 C 281.027,234.427 282.027,235.094 282.5,236.5C 280.973,236.573 279.973,235.906 279.5,234.5 Z"/></g>
<g><path style="opacity:0.004" fill="#d9e7f1" d="M 180.5,234.5 C 182.446,235.035 183.446,236.368 183.5,238.5C 181.738,237.738 180.738,236.404 180.5,234.5 Z"/></g>
<g><path style="opacity:0.322" fill="#c4d9ea" d="M 446.5,236.5 C 445.833,237.833 444.833,238.833 443.5,239.5C 443.5,237.5 444.5,236.5 446.5,236.5 Z"/></g>
<g><path style="opacity:0.247" fill="#b2ccdf" d="M 130.5,237.5 C 132.074,239.102 132.741,241.102 132.5,243.5C 130.926,241.898 130.259,239.898 130.5,237.5 Z"/></g>
<g><path style="opacity:0.027" fill="#dbe8f2" d="M 185.5,242.5 C 186.833,242.5 187.5,243.167 187.5,244.5C 186.5,244.167 185.833,243.5 185.5,242.5 Z"/></g>
<g><path style="opacity:0.91" fill="#c5daea" d="M 187.5,244.5 C 188.906,244.973 189.573,245.973 189.5,247.5C 188.094,247.027 187.427,246.027 187.5,244.5 Z"/></g>
<g><path style="opacity:0.004" fill="#cde0ee" d="M 132.5,243.5 C 133.931,244.78 134.598,246.447 134.5,248.5C 132.787,247.365 132.12,245.698 132.5,243.5 Z"/></g>
<g><path style="opacity:0.408" fill="#9ec2dc" d="M 295.5,245.5 C 297.153,245.66 298.486,246.326 299.5,247.5C 297.62,247.771 296.287,247.104 295.5,245.5 Z"/></g>
<g><path style="opacity:0.071" fill="#88b3d5" d="M 436.5,243.5 C 434.516,246.164 431.849,247.831 428.5,248.5C 430.822,246.336 433.489,244.669 436.5,243.5 Z"/></g>
<g><path style="opacity:0.047" fill="#b9d2e6" d="M 189.5,247.5 C 191.048,247.821 191.715,248.821 191.5,250.5C 190.094,250.027 189.427,249.027 189.5,247.5 Z"/></g>
<g><path style="opacity:0.698" fill="#a7c8e0" d="M 301.5,248.5 C 303.027,248.427 304.027,249.094 304.5,250.5C 302.973,250.573 301.973,249.906 301.5,248.5 Z"/></g>
<g><path style="opacity:0.027" fill="#e2edf4" d="M 191.5,250.5 C 192.833,250.5 193.5,251.167 193.5,252.5C 192.5,252.167 191.833,251.5 191.5,250.5 Z"/></g>
<g><path style="opacity:0.569" fill="#a2c5df" d="M 134.5,248.5 C 136.585,250.684 137.585,253.351 137.5,256.5C 135.98,254.11 134.98,251.443 134.5,248.5 Z"/></g>
<g><path style="opacity:0.58" fill="#7babd1" d="M 309.5,252.5 C 314.224,253.37 318.557,255.037 322.5,257.5C 318.447,256.65 314.447,255.484 310.5,254C 309.944,253.617 309.611,253.117 309.5,252.5 Z"/></g>
<g><path style="opacity:0.945" fill="#afcce2" d="M 193.5,252.5 C 195.262,253.262 196.262,254.596 196.5,256.5C 194.738,255.738 193.738,254.404 193.5,252.5 Z"/></g>
<g><path style="opacity:1" fill="#8bb2d4" d="M 196.5,256.5 C 199.573,258.569 201.906,261.236 203.5,264.5C 203.167,264.5 202.833,264.5 202.5,264.5C 200.091,262.098 198.091,259.431 196.5,256.5 Z"/></g>
<g><path style="opacity:0.133" fill="#74a6cd" d="M 327.5,259.5 C 327.56,258.957 327.893,258.624 328.5,258.5C 331.732,259.133 334.732,260.133 337.5,261.5C 333.963,261.689 330.63,261.023 327.5,259.5 Z"/></g>
<g><path style="opacity:0.369" fill="#699cc8" d="M 397.5,260.5 C 393.615,261.49 389.615,262.49 385.5,263.5C 385.881,262.069 386.881,261.236 388.5,261C 391.224,260.73 393.891,260.23 396.5,259.5C 397.107,259.624 397.44,259.957 397.5,260.5 Z"/></g>
<g><path style="opacity:0.008" fill="#adcbe2" d="M 137.5,256.5 C 139.922,259.416 141.588,262.749 142.5,266.5C 140.088,263.632 138.421,260.299 137.5,256.5 Z"/></g>
<g><path style="opacity:1" fill="#4f8bbf" d="M 358.5,264.5 C 352.64,264.283 346.973,263.617 341.5,262.5C 344.304,261.362 347.304,261.195 350.5,262C 353.675,261.947 356.342,262.78 358.5,264.5 Z"/></g>
<g><path style="opacity:1" fill="#5e96c5" d="M 378.5,263.5 C 376.393,264.468 374.059,264.802 371.5,264.5C 372.152,263.275 373.319,262.608 375,262.5C 376.385,262.514 377.551,262.848 378.5,263.5 Z"/></g>
<g><path style="opacity:1" fill="#5187bd" d="M 202.5,264.5 C 202.833,264.5 203.167,264.5 203.5,264.5C 207.472,267.47 211.138,270.804 214.5,274.5C 208.988,272.988 204.988,269.655 202.5,264.5 Z"/></g>
<g><path style="opacity:0.043" fill="#d8e6f1" d="M 144.5,270.5 C 145.906,270.973 146.573,271.973 146.5,273.5C 145.094,273.027 144.427,272.027 144.5,270.5 Z"/></g>
<g><path style="opacity:0.361" fill="#bad3e7" d="M 147.5,275.5 C 148.906,275.973 149.573,276.973 149.5,278.5C 148.094,278.027 147.427,277.027 147.5,275.5 Z"/></g>
<g><path style="opacity:0.141" fill="#b4d0e4" d="M 217.5,276.5 C 218.833,277.167 219.833,278.167 220.5,279.5C 218.5,279.5 217.5,278.5 217.5,276.5 Z"/></g>
<g><path style="opacity:0.325" fill="#d6e5f1" d="M 149.5,278.5 C 150.89,279.899 151.89,281.566 152.5,283.5C 150.259,282.7 149.259,281.034 149.5,278.5 Z"/></g>
<g><path style="opacity:0.149" fill="#9fc1db" d="M 227.5,285.5 C 229.404,285.738 230.738,286.738 231.5,288.5C 229.596,288.262 228.262,287.262 227.5,285.5 Z"/></g>
<g><path style="opacity:0.008" fill="#b5cfe3" d="M 464.5,289.5 C 464.672,288.508 464.338,287.842 463.5,287.5C 466.023,283.227 466.856,283.56 466,288.5C 465.617,289.056 465.117,289.389 464.5,289.5 Z"/></g>
<g><path style="opacity:0.808" fill="#90b9d7" d="M 231.5,288.5 C 234.37,289.433 236.704,291.1 238.5,293.5C 235.63,292.567 233.296,290.9 231.5,288.5 Z"/></g>
<g><path style="opacity:0.004" fill="#b5d1e5" d="M 464.5,289.5 C 464.346,291.97 463.346,293.97 461.5,295.5C 461.654,293.03 462.654,291.03 464.5,289.5 Z"/></g>
<g><path style="opacity:0.337" fill="#aacae2" d="M 238.5,293.5 C 241.198,293.845 243.198,295.178 244.5,297.5C 242.147,296.66 240.147,295.326 238.5,293.5 Z"/></g>
<g><path style="opacity:1" fill="#9fc1db" d="M 457.5,292.5 C 457.167,294.833 455.833,296.167 453.5,296.5C 454.5,294.833 455.833,293.5 457.5,292.5 Z"/></g>
<g><path style="opacity:0.169" fill="#bed5e5" d="M 159.5,293.5 C 160.906,293.973 161.573,294.973 161.5,296.5C 160.094,296.027 159.427,295.027 159.5,293.5 Z"/></g>
<g><path style="opacity:0.004" fill="#deeaf3" d="M 161.5,296.5 C 162.5,296.833 163.167,297.5 163.5,298.5C 162.167,298.5 161.5,297.833 161.5,296.5 Z"/></g>
<g><path style="opacity:0.169" fill="#c6daeb" d="M 461.5,295.5 C 461.25,297.674 460.25,299.341 458.5,300.5C 458.75,298.326 459.75,296.659 461.5,295.5 Z"/></g>
<g><path style="opacity:0.875" fill="#8db4d5" d="M 453.5,296.5 C 452.089,298.914 450.089,300.581 447.5,301.5C 448.911,299.086 450.911,297.419 453.5,296.5 Z"/></g>
<g><path style="opacity:0.004" fill="#f2f6f9" d="M 163.5,299.5 C 164.5,299.833 165.167,300.5 165.5,301.5C 164.167,301.5 163.5,300.833 163.5,299.5 Z"/></g>
<g><path style="opacity:0.251" fill="#94bcd9" d="M 246.5,298.5 C 248.853,299.34 250.853,300.674 252.5,302.5C 249.802,302.155 247.802,300.822 246.5,298.5 Z"/></g>
<g><path style="opacity:0.055" fill="#c9ddec" d="M 458.5,300.5 C 458.573,302.027 457.906,303.027 456.5,303.5C 456.427,301.973 457.094,300.973 458.5,300.5 Z"/></g>
<g><path style="opacity:0.184" fill="#bcd4e6" d="M 166.5,302.5 C 168.587,303.585 169.92,305.251 170.5,307.5C 168.413,306.415 167.08,304.749 166.5,302.5 Z"/></g>
<g><path style="opacity:0.596" fill="#82b0d3" d="M 252.5,302.5 C 256.173,304 259.506,306 262.5,308.5C 258.495,307.502 255.161,305.502 252.5,302.5 Z"/></g>
<g><path style="opacity:0.216" fill="#c8dceb" d="M 456.5,303.5 C 456.446,305.632 455.446,306.965 453.5,307.5C 454.026,305.77 455.026,304.436 456.5,303.5 Z"/></g>
<g><path style="opacity:0.541" fill="#91bad8" d="M 427.5,313.5 C 426.713,315.104 425.38,315.771 423.5,315.5C 424.514,314.326 425.847,313.66 427.5,313.5 Z"/></g>
<g><path style="opacity:0.788" fill="#75a8cf" d="M 266.5,310.5 C 271.516,312.341 276.182,314.674 280.5,317.5C 275.247,316.207 270.581,313.874 266.5,310.5 Z"/></g>
<g><path style="opacity:0.561" fill="#6ea2cc" d="M 281.5,317.5 C 285.127,318.321 288.46,319.654 291.5,321.5C 287.525,321.514 284.192,320.181 281.5,317.5 Z"/></g>
<g><path style="opacity:1" fill="#5b94c3" d="M 297.5,322.5 C 303.586,324.2 309.586,325.867 315.5,327.5C 315.265,328.097 314.765,328.43 314,328.5C 309.849,327.614 305.682,326.78 301.5,326C 299.456,325.502 298.122,324.335 297.5,322.5 Z"/></g>
<g><path style="opacity:1" fill="#699fc9" d="M 409.5,321.5 C 404.805,323.833 399.805,325.666 394.5,327C 392.613,327.78 390.946,327.613 389.5,326.5C 396.173,324.831 402.839,323.164 409.5,321.5 Z"/></g>
<g><path style="opacity:0.906" fill="#bad4e6" d="M 191.5,328.5 C 193.027,328.427 194.027,329.094 194.5,330.5C 192.973,330.573 191.973,329.906 191.5,328.5 Z"/></g>
<g><path style="opacity:0.976" fill="#7aa9cf" d="M 320.5,328.5 C 323.059,328.198 325.393,328.532 327.5,329.5C 325.047,330.645 322.713,330.312 320.5,328.5 Z"/></g>
<g><path style="opacity:0.059" fill="#c0d7e7" d="M 444.5,319.5 C 440.5,325.5 435.5,330.5 429.5,334.5C 434.167,329.167 439.167,324.167 444.5,319.5 Z"/></g>
<g><path style="opacity:0.275" fill="#a9c8e0" d="M 429.5,334.5 C 428.5,336.167 427.167,337.5 425.5,338.5C 425.833,336.167 427.167,334.833 429.5,334.5 Z"/></g>
<g><path style="opacity:0.62" fill="#9ec2de" d="M 200.5,335.5 C 202.027,335.427 203.027,336.094 203.5,337.5C 201.973,337.573 200.973,336.906 200.5,335.5 Z"/></g>
<g><path style="opacity:0.078" fill="#9abfdb" d="M 423.5,339.5 C 422.738,341.262 421.404,342.262 419.5,342.5C 420.262,340.738 421.596,339.738 423.5,339.5 Z"/></g>
<g><path style="opacity:0.251" fill="#8fb8d8" d="M 409.5,349.5 C 406.506,352 403.173,354 399.5,355.5C 402.161,352.498 405.495,350.498 409.5,349.5 Z"/></g>
<g><path style="opacity:1" fill="#6e9bc9" d="M 221.5,349.5 C 225.682,351.419 230.015,353.085 234.5,354.5C 235.612,355.265 236.279,356.265 236.5,357.5C 230.984,355.578 225.984,352.912 221.5,349.5 Z"/></g>
<g><path style="opacity:0.506" fill="#8cb7d7" d="M 239.5,358.5 C 243.797,359.655 247.797,361.321 251.5,363.5C 246.952,362.885 242.952,361.219 239.5,358.5 Z"/></g>
<g><path style="opacity:0.035" fill="#89b5d5" d="M 391.5,359.5 C 388.63,361.794 385.297,363.128 381.5,363.5C 384.53,361.597 387.863,360.263 391.5,359.5 Z"/></g>
<g><path style="opacity:1" fill="#689ec9" d="M 251.5,363.5 C 255.915,363.861 259.915,365.194 263.5,367.5C 259.085,367.139 255.085,365.806 251.5,363.5 Z"/></g>
<g><path style="opacity:0.659" fill="#8cb7d7" d="M 376.5,365.5 C 374.898,367.074 372.898,367.741 370.5,367.5C 372.102,365.926 374.102,365.259 376.5,365.5 Z"/></g>
<g><path style="opacity:0.031" fill="#79aad0" d="M 363.5,369.5 C 361.485,370.924 359.152,371.59 356.5,371.5C 358.438,369.837 360.772,369.171 363.5,369.5 Z"/></g>
<g><path style="opacity:0.855" fill="#5691c2" d="M 280.5,371.5 C 289.133,371.133 297.466,372.133 305.5,374.5C 296.894,374.635 288.561,373.635 280.5,371.5 Z"/></g>
<g><path style="opacity:1" fill="#76a6ce" d="M 347.5,372.5 C 344.727,373.657 341.727,374.324 338.5,374.5C 340.988,372.612 343.988,371.945 347.5,372.5 Z"/></g>
<g><path style="opacity:0.11" fill="#8d9096" d="M 184.5,415.5 C 180.5,416.833 176.5,416.833 172.5,415.5C 176.5,414.167 180.5,414.167 184.5,415.5 Z"/></g>
<g><path style="opacity:0.933" fill="#60656e" d="M 170.5,415.5 C 170.389,416.117 170.056,416.617 169.5,417C 167.153,417.436 164.819,417.936 162.5,418.5C 161.584,418.457 160.917,418.124 160.5,417.5C 163.802,416.706 167.135,416.04 170.5,415.5 Z"/></g>
<g><path style="opacity:0.997" fill="#141c29" d="M 170.5,415.5 C 171.167,415.5 171.833,415.5 172.5,415.5C 176.5,416.833 180.5,416.833 184.5,415.5C 190.6,415.784 196.267,417.451 201.5,420.5C 202.733,422.796 204.733,424.13 207.5,424.5C 208.5,424.833 209.167,425.5 209.5,426.5C 209.81,428.144 210.81,429.144 212.5,429.5C 212.427,431.027 213.094,432.027 214.5,432.5C 214.427,434.027 215.094,435.027 216.5,435.5C 216.66,437.153 217.326,438.486 218.5,439.5C 218.232,441.099 218.566,442.432 219.5,443.5C 220.234,444.708 220.567,446.041 220.5,447.5C 220.365,453.181 220.032,458.848 219.5,464.5C 219.5,464.833 219.5,465.167 219.5,465.5C 218.566,466.568 218.232,467.901 218.5,469.5C 218.5,469.833 218.5,470.167 218.5,470.5C 216.926,472.102 216.259,474.102 216.5,476.5C 215.262,478.214 214.595,480.214 214.5,482.5C 212.926,484.102 212.259,486.102 212.5,488.5C 211.069,489.78 210.402,491.447 210.5,493.5C 209.463,494.93 208.796,496.597 208.5,498.5C 211.589,499.785 214.922,500.451 218.5,500.5C 218.5,502.167 218.5,503.833 218.5,505.5C 218.5,505.833 218.5,506.167 218.5,506.5C 215.787,511.369 214.454,516.702 214.5,522.5C 194.167,522.5 173.833,522.5 153.5,522.5C 152.666,521.252 151.333,520.585 149.5,520.5C 147.955,520.511 146.622,520.844 145.5,521.5C 144.833,521.5 144.167,521.5 143.5,521.5C 141.794,519.464 139.461,518.464 136.5,518.5C 135.508,518.672 134.842,518.338 134.5,517.5C 131.526,514.862 128.526,512.195 125.5,509.5C 125.573,507.973 124.906,506.973 123.5,506.5C 122.662,506.158 122.328,505.492 122.5,504.5C 122.405,502.214 121.738,500.214 120.5,498.5C 119.218,489.169 119.218,479.836 120.5,470.5C 120.5,470.167 120.5,469.833 120.5,469.5C 121.451,468.081 121.784,466.415 121.5,464.5C 121.5,464.167 121.5,463.833 121.5,463.5C 123.074,461.898 123.741,459.898 123.5,457.5C 124.931,456.22 125.598,454.553 125.5,452.5C 126.674,451.486 127.34,450.153 127.5,448.5C 128.674,447.486 129.34,446.153 129.5,444.5C 130.906,444.027 131.573,443.027 131.5,441.5C 133.547,439.45 135.214,437.117 136.5,434.5C 139.167,432.5 141.5,430.167 143.5,427.5C 146.68,425.745 149.68,423.745 152.5,421.5C 155.241,421.293 157.574,420.293 159.5,418.5C 159.5,417.833 159.833,417.5 160.5,417.5C 160.917,418.124 161.584,418.457 162.5,418.5C 164.819,417.936 167.153,417.436 169.5,417C 170.056,416.617 170.389,416.117 170.5,415.5 Z M 172.5,438.5 C 174.833,438.5 177.167,438.5 179.5,438.5C 182.86,439.623 186.193,440.957 189.5,442.5C 190.512,443.872 191.512,445.205 192.5,446.5C 193.129,449.397 194.129,452.064 195.5,454.5C 195.5,455.5 195.5,456.5 195.5,457.5C 194.463,458.93 193.796,460.597 193.5,462.5C 193.5,462.833 193.5,463.167 193.5,463.5C 193.414,465.677 192.747,467.677 191.5,469.5C 191.624,470.107 191.957,470.44 192.5,470.5C 192.5,470.833 192.5,471.167 192.5,471.5C 190.56,473.63 189.894,475.964 190.5,478.5C 189.262,480.214 188.595,482.214 188.5,484.5C 188.5,484.833 188.5,485.167 188.5,485.5C 187.262,487.214 186.595,489.214 186.5,491.5C 186.5,491.833 186.5,492.167 186.5,492.5C 184.837,494.438 184.171,496.772 184.5,499.5C 176.833,499.5 169.167,499.5 161.5,499.5C 159.708,499.634 158.042,499.301 156.5,498.5C 154.5,497.833 152.5,497.167 150.5,496.5C 149.833,495.167 148.833,494.167 147.5,493.5C 147.672,492.508 147.338,491.842 146.5,491.5C 146.5,486.167 146.5,480.833 146.5,475.5C 147.641,471.687 148.974,467.854 150.5,464C 149.944,463.617 149.611,463.117 149.5,462.5C 151.074,460.898 151.741,458.898 151.5,456.5C 152.931,455.22 153.598,453.553 153.5,451.5C 155.788,447.544 158.788,444.211 162.5,441.5C 165.85,440.497 169.183,439.497 172.5,438.5 Z"/></g>
<g><path style="opacity:0.282" fill="#84888f" d="M 159.5,418.5 C 157.574,420.293 155.241,421.293 152.5,421.5C 154.426,419.707 156.759,418.707 159.5,418.5 Z"/></g>
<g><path style="opacity:1" fill="#71767f" d="M 201.5,420.5 C 203.882,421.351 205.882,422.684 207.5,424.5C 204.733,424.13 202.733,422.796 201.5,420.5 Z"/></g>
<g><path style="opacity:0.784" fill="#80848b" d="M 152.5,421.5 C 149.68,423.745 146.68,425.745 143.5,427.5C 145.63,424.263 148.63,422.263 152.5,421.5 Z"/></g>
<g><path style="opacity:0.169" fill="#a2a4a9" d="M 518.5,426.5 C 527.318,425.507 536.318,425.173 545.5,425.5C 545.923,427.781 545.256,429.448 543.5,430.5C 543.557,429.391 543.89,428.391 544.5,427.5C 536.016,426.507 527.349,426.174 518.5,426.5 Z"/></g>
<g><path style="opacity:1" fill="#595f67" d="M 518.5,426.5 C 527.349,426.174 536.016,426.507 544.5,427.5C 535.827,427.334 527.16,427.5 518.5,428C 517.627,429.045 516.627,429.878 515.5,430.5C 515.738,428.596 516.738,427.262 518.5,426.5 Z"/></g>
<g><path style="opacity:0.039" fill="#c7c9cc" d="M 209.5,426.5 C 211.19,426.856 212.19,427.856 212.5,429.5C 210.81,429.144 209.81,428.144 209.5,426.5 Z"/></g>
<g><path style="opacity:1" fill="#151d28" d="M 544.5,427.5 C 543.89,428.391 543.557,429.391 543.5,430.5C 542.599,431.29 541.932,432.29 541.5,433.5C 541.34,435.153 540.674,436.486 539.5,437.5C 538.5,437.833 537.833,438.5 537.5,439.5C 536.662,439.842 536.328,440.508 536.5,441.5C 535.094,441.973 534.427,442.973 534.5,444.5C 533.299,446.909 531.633,448.909 529.5,450.5C 528.094,450.973 527.427,451.973 527.5,453.5C 527.5,454.167 527.167,454.5 526.5,454.5C 524.738,455.262 523.738,456.596 523.5,458.5C 522.299,460.909 520.633,462.909 518.5,464.5C 517.094,464.973 516.427,465.973 516.5,467.5C 516.167,468.5 515.5,469.167 514.5,469.5C 512.738,470.262 511.738,471.596 511.5,473.5C 510.094,473.973 509.427,474.973 509.5,476.5C 509.167,477.5 508.5,478.167 507.5,478.5C 506.094,478.973 505.427,479.973 505.5,481.5C 504.094,481.973 503.427,482.973 503.5,484.5C 503.068,485.71 502.401,486.71 501.5,487.5C 499.738,488.262 498.738,489.596 498.5,491.5C 497.599,492.29 496.932,493.29 496.5,494.5C 496.5,494.833 496.5,495.167 496.5,495.5C 495.094,495.973 494.427,496.973 494.5,498.5C 494.672,499.492 494.338,500.158 493.5,500.5C 489.515,505.473 486.848,511.14 485.5,517.5C 484.596,518.209 484.263,519.209 484.5,520.5C 476.316,520.826 468.316,520.492 460.5,519.5C 461.234,518.292 461.567,516.959 461.5,515.5C 463.163,513.562 463.829,511.228 463.5,508.5C 463.5,505.5 463.5,502.5 463.5,499.5C 463.785,496.171 463.118,493.171 461.5,490.5C 461.5,490.167 461.5,489.833 461.5,489.5C 461.405,487.214 460.738,485.214 459.5,483.5C 459.41,479.786 458.41,476.452 456.5,473.5C 456.5,473.167 456.5,472.833 456.5,472.5C 456.425,469.794 456.092,467.127 455.5,464.5C 464.103,463.912 472.436,464.578 480.5,466.5C 480.5,466.833 480.5,467.167 480.5,467.5C 480.595,469.786 481.262,471.786 482.5,473.5C 482.238,474.978 482.571,476.311 483.5,477.5C 484.952,476.06 485.952,474.394 486.5,472.5C 487.906,472.027 488.573,471.027 488.5,469.5C 490.822,468.198 492.155,466.198 492.5,463.5C 494.262,462.738 495.262,461.404 495.5,459.5C 495.328,458.508 495.662,457.842 496.5,457.5C 498.262,456.738 499.262,455.404 499.5,453.5C 501.262,452.738 502.262,451.404 502.5,449.5C 504.326,447.853 505.66,445.853 506.5,443.5C 508.262,442.738 509.262,441.404 509.5,439.5C 509.328,438.508 509.662,437.842 510.5,437.5C 511.906,437.027 512.573,436.027 512.5,434.5C 514.262,433.738 515.262,432.404 515.5,430.5C 516.627,429.878 517.627,429.045 518.5,428C 527.16,427.5 535.827,427.334 544.5,427.5 Z"/></g>
<g><path style="opacity:0.91" fill="#aaabb1" d="M 212.5,429.5 C 213.906,429.973 214.573,430.973 214.5,432.5C 213.094,432.027 212.427,431.027 212.5,429.5 Z"/></g>
<g><path style="opacity:0.957" fill="#a2a5ab" d="M 143.5,427.5 C 141.5,430.167 139.167,432.5 136.5,434.5C 137.833,431.167 140.167,428.833 143.5,427.5 Z"/></g>
<g><path style="opacity:0.051" fill="#bbc2c6" d="M 515.5,430.5 C 515.262,432.404 514.262,433.738 512.5,434.5C 512.554,432.368 513.554,431.035 515.5,430.5 Z"/></g>
<g><path style="opacity:0.016" fill="#dfe0e2" d="M 543.5,430.5 C 543.715,432.179 543.048,433.179 541.5,433.5C 541.932,432.29 542.599,431.29 543.5,430.5 Z"/></g>
<g><path style="opacity:0.616" fill="#c1c4c7" d="M 214.5,432.5 C 215.906,432.973 216.573,433.973 216.5,435.5C 215.094,435.027 214.427,434.027 214.5,432.5 Z"/></g>
<g><path style="opacity:0.995" fill="#151d29" d="M 357.5,436.5 C 361.5,436.5 365.5,436.5 369.5,436.5C 373.544,438.682 377.877,440.682 382.5,442.5C 383.833,444.5 385.5,446.167 387.5,447.5C 387.427,449.027 388.094,450.027 389.5,450.5C 390.434,451.568 390.768,452.901 390.5,454.5C 390.182,459.032 390.515,463.366 391.5,467.5C 391.552,469.903 391.219,472.236 390.5,474.5C 388.96,476.838 388.294,479.505 388.5,482.5C 388.5,482.833 388.5,483.167 388.5,483.5C 387.167,484.5 387.167,485.5 388.5,486.5C 388.5,486.833 388.5,487.167 388.5,487.5C 370.402,488.154 352.402,488.821 334.5,489.5C 334.5,490.167 334.5,490.833 334.5,491.5C 333.853,492.274 333.52,493.274 333.5,494.5C 333.34,496.355 334.007,497.688 335.5,498.5C 336.221,500.382 337.221,500.715 338.5,499.5C 338.833,499.5 339.167,499.5 339.5,499.5C 339.711,501.424 340.377,501.757 341.5,500.5C 347.167,500.5 352.833,500.5 358.5,500.5C 366.097,502.467 374.097,503.134 382.5,502.5C 381.908,505.127 381.575,507.794 381.5,510.5C 381.5,510.833 381.5,511.167 381.5,511.5C 379.126,514.686 378.126,518.353 378.5,522.5C 363.167,522.5 347.833,522.5 332.5,522.5C 332.209,521.351 331.376,520.684 330,520.5C 328.93,520.528 328.097,520.861 327.5,521.5C 326.041,521.567 324.708,521.234 323.5,520.5C 322.713,518.896 321.38,518.229 319.5,518.5C 316.911,517.581 314.911,515.914 313.5,513.5C 312.202,509.912 310.536,506.579 308.5,503.5C 308.5,501.167 308.5,498.833 308.5,496.5C 310.223,494.22 310.889,491.553 310.5,488.5C 310.5,487.833 310.5,487.167 310.5,486.5C 312.118,483.829 312.785,480.829 312.5,477.5C 312.5,477.167 312.5,476.833 312.5,476.5C 314.074,474.898 314.741,472.898 314.5,470.5C 314.5,470.167 314.5,469.833 314.5,469.5C 315.404,468.791 315.737,467.791 315.5,466.5C 315.328,465.508 315.662,464.842 316.5,464.5C 318.204,461.744 319.537,458.744 320.5,455.5C 321.906,455.027 322.573,454.027 322.5,452.5C 324.5,451.167 326.167,449.5 327.5,447.5C 329.027,447.573 330.027,446.906 330.5,445.5C 334.335,443.75 338.001,441.75 341.5,439.5C 341.833,439.5 342.167,439.5 342.5,439.5C 347.712,438.953 352.712,437.953 357.5,436.5 Z M 352.5,457.5 C 357.873,457.43 362.54,459.097 366.5,462.5C 366.5,464.833 366.5,467.167 366.5,469.5C 356.985,469.827 347.652,469.494 338.5,468.5C 340.25,467.341 341.25,465.674 341.5,463.5C 342.833,462.833 343.833,461.833 344.5,460.5C 347.257,459.488 349.924,458.488 352.5,457.5 Z"/></g>
<g><path style="opacity:0.494" fill="#caccce" d="M 512.5,434.5 C 512.573,436.027 511.906,437.027 510.5,437.5C 510.427,435.973 511.094,434.973 512.5,434.5 Z"/></g>
<g><path style="opacity:0.016" fill="#8e9298" d="M 115.5,446.5 C 115.318,444.409 115.652,442.409 116.5,440.5C 108.528,439.502 100.528,439.169 92.5,439.5C 100.433,437.532 108.766,436.865 117.5,437.5C 117.932,440.877 117.265,443.877 115.5,446.5 Z"/></g>
<g><path style="opacity:0.11" fill="#e5eaed" d="M 216.5,435.5 C 218.104,436.287 218.771,437.62 218.5,439.5C 217.326,438.486 216.66,437.153 216.5,435.5 Z"/></g>
<g><path style="opacity:0.016" fill="#d2d4d6" d="M 260.5,438.5 C 252.981,438.175 245.648,438.508 238.5,439.5C 238.598,441.553 237.931,443.22 236.5,444.5C 236.674,442.139 237.007,439.806 237.5,437.5C 245.352,437.175 253.018,437.508 260.5,438.5 Z"/></g>
<g><path style="opacity:1" fill="#4a505a" d="M 357.5,436.5 C 352.712,437.953 347.712,438.953 342.5,439.5C 347.061,436.982 352.061,435.982 357.5,436.5 Z"/></g>
<g><path style="opacity:0.987" fill="#141c28" d="M 432.5,437.5 C 436.833,437.5 441.167,437.5 445.5,437.5C 452.035,438.222 458.702,439.055 465.5,440C 469.075,440.454 472.075,441.954 474.5,444.5C 475.338,444.842 475.672,445.508 475.5,446.5C 475.263,447.791 475.596,448.791 476.5,449.5C 476.5,449.833 476.5,450.167 476.5,450.5C 476.111,453.553 476.777,456.22 478.5,458.5C 462.008,459.497 445.342,459.83 428.5,459.5C 426.656,461.279 425.99,463.612 426.5,466.5C 426.5,466.833 426.5,467.167 426.5,467.5C 424.777,469.78 424.111,472.447 424.5,475.5C 424.5,475.833 424.5,476.167 424.5,476.5C 421.254,486.832 418.921,497.499 417.5,508.5C 417.5,508.833 417.5,509.167 417.5,509.5C 415.777,511.78 415.111,514.447 415.5,517.5C 415.5,517.833 415.5,518.167 415.5,518.5C 414.733,519.172 414.066,520.005 413.5,521C 406.476,521.831 399.476,521.664 392.5,520.5C 393.374,518.253 393.708,515.92 393.5,513.5C 393.5,513.167 393.5,512.833 393.5,512.5C 395.223,510.22 395.889,507.553 395.5,504.5C 395.5,504.167 395.5,503.833 395.5,503.5C 397.584,501.007 397.917,498.34 396.5,495.5C 396.5,495.167 396.5,494.833 396.5,494.5C 398.176,493.817 398.843,492.483 398.5,490.5C 398.5,489.833 398.5,489.167 398.5,488.5C 399.924,486.485 400.59,484.152 400.5,481.5C 400.5,480.833 400.5,480.167 400.5,479.5C 402.223,477.22 402.889,474.553 402.5,471.5C 402.5,471.167 402.5,470.833 402.5,470.5C 404.223,468.22 404.889,465.553 404.5,462.5C 404.5,462.167 404.5,461.833 404.5,461.5C 405.451,460.081 405.784,458.415 405.5,456.5C 405.5,456.167 405.5,455.833 405.5,455.5C 407.04,453.162 407.706,450.495 407.5,447.5C 407.5,447.167 407.5,446.833 407.5,446.5C 408.537,445.07 409.204,443.403 409.5,441.5C 417.302,440.225 424.968,438.892 432.5,437.5 Z"/></g>
<g><path style="opacity:0.016" fill="#70757d" d="M 445.5,437.5 C 451.842,437.334 458.175,437.5 464.5,438C 467.376,438.438 470.043,439.438 472.5,441C 473.823,441.816 474.489,442.983 474.5,444.5C 472.075,441.954 469.075,440.454 465.5,440C 458.702,439.055 452.035,438.222 445.5,437.5 Z"/></g>
<g><path style="opacity:0.318" fill="#9699a0" d="M 136.5,434.5 C 135.214,437.117 133.547,439.45 131.5,441.5C 132.01,438.326 133.677,435.992 136.5,434.5 Z"/></g>
<g><path style="opacity:0.11" fill="#81868d" d="M 172.5,438.5 C 169.183,439.497 165.85,440.497 162.5,441.5C 164.763,439.206 167.596,437.872 171,437.5C 171.765,437.57 172.265,437.903 172.5,438.5 Z"/></g>
<g><path style="opacity:0.11" fill="#7a7e86" d="M 189.5,442.5 C 186.193,440.957 182.86,439.623 179.5,438.5C 183.482,437.684 186.815,439.017 189.5,442.5 Z"/></g>
<g><path style="opacity:0.89" fill="#96999e" d="M 238.5,439.5 C 245.648,438.508 252.981,438.175 260.5,438.5C 260.806,441.385 260.473,444.052 259.5,446.5C 259.5,444.167 259.5,441.833 259.5,439.5C 252.5,439.5 245.5,439.5 238.5,439.5 Z"/></g>
<g><path style="opacity:0.992" fill="#161c29" d="M 289.5,438.5 C 297.243,437.87 304.576,438.537 311.5,440.5C 309.744,441.552 309.077,443.219 309.5,445.5C 309.5,445.833 309.5,446.167 309.5,446.5C 306.849,453.828 305.182,461.495 304.5,469.5C 304.5,470.167 304.5,470.833 304.5,471.5C 302.777,473.78 302.111,476.447 302.5,479.5C 302.5,479.833 302.5,480.167 302.5,480.5C 300.777,482.78 300.111,485.447 300.5,488.5C 300.5,488.833 300.5,489.167 300.5,489.5C 299.549,490.919 299.216,492.585 299.5,494.5C 299.567,495.959 299.234,497.292 298.5,498.5C 297.539,500.265 297.205,502.265 297.5,504.5C 295.882,507.171 295.215,510.171 295.5,513.5C 295.5,513.833 295.5,514.167 295.5,514.5C 293.777,516.78 293.111,519.447 293.5,522.5C 279.167,522.5 264.833,522.5 250.5,522.5C 249.848,521.275 248.681,520.608 247,520.5C 245.615,520.514 244.449,520.848 243.5,521.5C 243.167,521.5 242.833,521.5 242.5,521.5C 241.105,519.621 239.105,518.621 236.5,518.5C 235.421,516.457 233.754,515.124 231.5,514.5C 230.662,514.158 230.328,513.492 230.5,512.5C 229.871,509.603 228.871,506.936 227.5,504.5C 227.5,501.5 227.5,498.5 227.5,495.5C 228.906,490.885 229.906,486.051 230.5,481C 230.472,479.93 230.139,479.097 229.5,478.5C 229.5,478.167 229.5,477.833 229.5,477.5C 231.256,476.448 231.923,474.781 231.5,472.5C 231.5,471.833 231.5,471.167 231.5,470.5C 233.118,467.829 233.785,464.829 233.5,461.5C 233.5,461.167 233.5,460.833 233.5,460.5C 235.223,458.22 235.889,455.553 235.5,452.5C 235.5,452.167 235.5,451.833 235.5,451.5C 236.461,449.735 236.795,447.735 236.5,445.5C 236.5,445.167 236.5,444.833 236.5,444.5C 237.931,443.22 238.598,441.553 238.5,439.5C 245.5,439.5 252.5,439.5 259.5,439.5C 259.5,441.833 259.5,444.167 259.5,446.5C 259.5,447.167 259.5,447.833 259.5,448.5C 257.882,451.171 257.215,454.171 257.5,457.5C 257.595,460.697 256.928,463.697 255.5,466.5C 253.443,470.802 252.443,475.469 252.5,480.5C 252.5,486.833 252.5,493.167 252.5,499.5C 260.316,500.492 268.316,500.826 276.5,500.5C 276.5,498.833 276.5,497.167 276.5,495.5C 276.5,494.833 276.5,494.167 276.5,493.5C 278.163,491.562 278.829,489.228 278.5,486.5C 278.5,486.167 278.5,485.833 278.5,485.5C 280.04,483.162 280.706,480.495 280.5,477.5C 280.5,477.167 280.5,476.833 280.5,476.5C 282.413,473.96 282.746,471.293 281.5,468.5C 281.5,468.167 281.5,467.833 281.5,467.5C 283.176,466.817 283.843,465.483 283.5,463.5C 283.5,462.833 283.5,462.167 283.5,461.5C 285.163,459.562 285.829,457.228 285.5,454.5C 285.5,454.167 285.5,453.833 285.5,453.5C 287.04,451.162 287.706,448.495 287.5,445.5C 287.5,445.167 287.5,444.833 287.5,444.5C 289.074,442.898 289.741,440.898 289.5,438.5 Z"/></g>
<g><path style="opacity:0.369" fill="#81868d" d="M 369.5,436.5 C 374.523,437.181 378.856,439.181 382.5,442.5C 377.877,440.682 373.544,438.682 369.5,436.5 Z"/></g>
<g><path style="opacity:0.89" fill="#404751" d="M 432.5,437.5 C 424.968,438.892 417.302,440.225 409.5,441.5C 409.5,440.5 409.5,439.5 409.5,438.5C 417.08,437.534 424.747,437.201 432.5,437.5 Z"/></g>
<g><path style="opacity:0.031" fill="#d8e1e4" d="M 539.5,437.5 C 539.5,438.833 538.833,439.5 537.5,439.5C 537.833,438.5 538.5,437.833 539.5,437.5 Z"/></g>
<g><path style="opacity:1" fill="#1c222e" d="M 92.5,439.5 C 100.528,439.169 108.528,439.502 116.5,440.5C 115.652,442.409 115.318,444.409 115.5,446.5C 115.5,447.167 115.5,447.833 115.5,448.5C 113.837,450.438 113.171,452.772 113.5,455.5C 113.833,456.167 114.167,456.833 114.5,457.5C 113.833,457.5 113.167,457.5 112.5,457.5C 104.833,457.5 97.1667,457.5 89.5,457.5C 89.5,456.5 89.5,455.5 89.5,454.5C 89.5,454.167 89.5,453.833 89.5,453.5C 91.1628,451.562 91.8294,449.228 91.5,446.5C 91.448,444.097 91.7814,441.764 92.5,439.5 Z"/></g>
<g><path style="opacity:0.267" fill="#dddee0" d="M 537.5,439.5 C 539.031,440.925 538.698,441.591 536.5,441.5C 536.328,440.508 536.662,439.842 537.5,439.5 Z"/></g>
<g><path style="opacity:0.949" fill="#96999f" d="M 311.5,440.5 C 311.204,442.403 310.537,444.07 309.5,445.5C 309.077,443.219 309.744,441.552 311.5,440.5 Z"/></g>
<g><path style="opacity:0.569" fill="#8e939a" d="M 341.5,439.5 C 338.001,441.75 334.335,443.75 330.5,445.5C 333.4,442.214 337.067,440.214 341.5,439.5 Z"/></g>
<g><path style="opacity:0.953" fill="#91949b" d="M 509.5,439.5 C 509.262,441.404 508.262,442.738 506.5,443.5C 506.738,441.596 507.738,440.262 509.5,439.5 Z"/></g>
<g><path style="opacity:0.91" fill="#b0b2b7" d="M 218.5,439.5 C 220.138,440.705 220.471,442.038 219.5,443.5C 218.566,442.432 218.232,441.099 218.5,439.5 Z"/></g>
<g><path style="opacity:0.157" fill="#bcbfc4" d="M 382.5,442.5 C 385.167,443.167 386.833,444.833 387.5,447.5C 385.5,446.167 383.833,444.5 382.5,442.5 Z"/></g>
<g><path style="opacity:0.467" fill="#9ea2a7" d="M 131.5,441.5 C 131.573,443.027 130.906,444.027 129.5,444.5C 129.427,442.973 130.094,441.973 131.5,441.5 Z"/></g>
<g><path style="opacity:0.969" fill="#8c8f96" d="M 289.5,438.5 C 289.741,440.898 289.074,442.898 287.5,444.5C 286.957,444.44 286.624,444.107 286.5,443.5C 286.957,441.402 287.957,439.736 289.5,438.5 Z"/></g>
<g><path style="opacity:0.008" fill="#d4d5d8" d="M 536.5,441.5 C 536.573,443.027 535.906,444.027 534.5,444.5C 534.427,442.973 535.094,441.973 536.5,441.5 Z"/></g>
<g><path style="opacity:0.475" fill="#9ea3aa" d="M 409.5,438.5 C 409.5,439.5 409.5,440.5 409.5,441.5C 409.204,443.403 408.537,445.07 407.5,446.5C 407.294,443.505 407.96,440.838 409.5,438.5 Z"/></g>
<g><path style="opacity:0.106" fill="#c7c9cc" d="M 506.5,443.5 C 505.66,445.853 504.326,447.853 502.5,449.5C 502.87,446.733 504.204,444.733 506.5,443.5 Z"/></g>
<g><path style="opacity:0.298" fill="#cdd5da" d="M 129.5,444.5 C 129.34,446.153 128.674,447.486 127.5,448.5C 127.229,446.62 127.896,445.287 129.5,444.5 Z"/></g>
<g><path style="opacity:0.98" fill="#6f757d" d="M 330.5,445.5 C 330.027,446.906 329.027,447.573 327.5,447.5C 327.973,446.094 328.973,445.427 330.5,445.5 Z"/></g>
<g><path style="opacity:0.31" fill="#b6babe" d="M 192.5,446.5 C 194.982,448.503 195.982,451.169 195.5,454.5C 194.129,452.064 193.129,449.397 192.5,446.5 Z"/></g>
<g><path style="opacity:0.357" fill="#94989e" d="M 236.5,445.5 C 236.795,447.735 236.461,449.735 235.5,451.5C 234.516,449.402 234.849,447.402 236.5,445.5 Z"/></g>
<g><path style="opacity:0.047" fill="#cdcfd2" d="M 475.5,446.5 C 477.382,447.221 477.715,448.221 476.5,449.5C 475.596,448.791 475.263,447.791 475.5,446.5 Z"/></g>
<g><path style="opacity:0.518" fill="#a6abb0" d="M 387.5,447.5 C 388.906,447.973 389.573,448.973 389.5,450.5C 388.094,450.027 387.427,449.027 387.5,447.5 Z"/></g>
<g><path style="opacity:0.208" fill="#999da3" d="M 91.5,446.5 C 91.8294,449.228 91.1628,451.562 89.5,453.5C 89.4095,450.848 90.0762,448.515 91.5,446.5 Z"/></g>
<g><path style="opacity:0.306" fill="#d2d8db" d="M 127.5,448.5 C 127.34,450.153 126.674,451.486 125.5,452.5C 125.229,450.62 125.896,449.287 127.5,448.5 Z"/></g>
<g><path style="opacity:0.784" fill="#d0d3d6" d="M 327.5,447.5 C 326.167,449.5 324.5,451.167 322.5,452.5C 323.167,449.833 324.833,448.167 327.5,447.5 Z"/></g>
<g><path style="opacity:0.486" fill="#8c9096" d="M 287.5,445.5 C 287.706,448.495 287.04,451.162 285.5,453.5C 285.294,450.505 285.96,447.838 287.5,445.5 Z"/></g>
<g><path style="opacity:0.106" fill="#aaadb2" d="M 407.5,447.5 C 407.706,450.495 407.04,453.162 405.5,455.5C 405.294,452.505 405.96,449.838 407.5,447.5 Z"/></g>
<g><path style="opacity:0.784" fill="#9b9fa6" d="M 502.5,449.5 C 502.262,451.404 501.262,452.738 499.5,453.5C 499.738,451.596 500.738,450.262 502.5,449.5 Z"/></g>
<g><path style="opacity:0.039" fill="#bdbfc4" d="M 529.5,450.5 C 529.573,452.027 528.906,453.027 527.5,453.5C 527.427,451.973 528.094,450.973 529.5,450.5 Z"/></g>
<g><path style="opacity:0.255" fill="#757a81" d="M 220.5,447.5 C 221.163,449.473 221.496,451.639 221.5,454C 221.621,457.782 220.954,461.282 219.5,464.5C 220.032,458.848 220.365,453.181 220.5,447.5 Z"/></g>
<g><path style="opacity:0.914" fill="#81868d" d="M 259.5,448.5 C 259.58,451.781 258.913,454.781 257.5,457.5C 257.215,454.171 257.882,451.171 259.5,448.5 Z"/></g>
<g><path style="opacity:0.631" fill="#92959b" d="M 115.5,448.5 C 115.829,451.228 115.163,453.562 113.5,455.5C 113.171,452.772 113.837,450.438 115.5,448.5 Z"/></g>
<g><path style="opacity:0.616" fill="#6e737a" d="M 476.5,450.5 C 477.768,452.905 478.435,455.572 478.5,458.5C 476.777,456.22 476.111,453.553 476.5,450.5 Z"/></g>
<g><path style="opacity:0.514" fill="#a2a8b0" d="M 153.5,451.5 C 153.598,453.553 152.931,455.22 151.5,456.5C 151.402,454.447 152.069,452.78 153.5,451.5 Z"/></g>
<g><path style="opacity:0.702" fill="#9fa5ad" d="M 322.5,452.5 C 322.573,454.027 321.906,455.027 320.5,455.5C 320.427,453.973 321.094,452.973 322.5,452.5 Z"/></g>
<g><path style="opacity:0.176" fill="#babec3" d="M 125.5,452.5 C 125.598,454.553 124.931,456.22 123.5,457.5C 123.402,455.447 124.069,453.78 125.5,452.5 Z"/></g>
<g><path style="opacity:0.584" fill="#cdd0d2" d="M 499.5,453.5 C 499.262,455.404 498.262,456.738 496.5,457.5C 496.738,455.596 497.738,454.262 499.5,453.5 Z"/></g>
<g><path style="opacity:0.129" fill="#bcbec2" d="M 526.5,454.5 C 526.262,456.404 525.262,457.738 523.5,458.5C 523.738,456.596 524.738,455.262 526.5,454.5 Z"/></g>
<g><path style="opacity:0.922" fill="#8e9298" d="M 89.5,454.5 C 89.5,455.5 89.5,456.5 89.5,457.5C 97.1667,457.5 104.833,457.5 112.5,457.5C 104.684,458.492 96.6841,458.826 88.5,458.5C 88.2322,456.901 88.5655,455.568 89.5,454.5 Z"/></g>
<g><path style="opacity:0.051" fill="#dbdcde" d="M 112.5,457.5 C 113.167,457.5 113.833,457.5 114.5,457.5C 114.389,458.117 114.056,458.617 113.5,459C 104.99,459.823 96.6563,459.657 88.5,458.5C 96.6841,458.826 104.684,458.492 112.5,457.5 Z"/></g>
<g><path style="opacity:0.471" fill="#989da3" d="M 235.5,452.5 C 235.889,455.553 235.223,458.22 233.5,460.5C 233.294,457.505 233.96,454.838 235.5,452.5 Z"/></g>
<g><path style="opacity:0.137" fill="#9a9fa5" d="M 285.5,454.5 C 285.829,457.228 285.163,459.562 283.5,461.5C 283.41,458.848 284.076,456.515 285.5,454.5 Z"/></g>
<g><path style="opacity:0.059" fill="#c7c9cc" d="M 151.5,456.5 C 151.741,458.898 151.074,460.898 149.5,462.5C 149.259,460.102 149.926,458.102 151.5,456.5 Z"/></g>
<g><path style="opacity:0.082" fill="#8a8e95" d="M 352.5,457.5 C 349.924,458.488 347.257,459.488 344.5,460.5C 346.646,457.747 349.312,456.747 352.5,457.5 Z"/></g>
<g><path style="opacity:0.408" fill="#9da0a5" d="M 405.5,456.5 C 405.784,458.415 405.451,460.081 404.5,461.5C 403.957,461.44 403.624,461.107 403.5,460.5C 403.994,458.974 404.661,457.641 405.5,456.5 Z"/></g>
<g><path style="opacity:0.965" fill="#a1a4a9" d="M 123.5,457.5 C 123.741,459.898 123.074,461.898 121.5,463.5C 121.259,461.102 121.926,459.102 123.5,457.5 Z"/></g>
<g><path style="opacity:0.69" fill="#a9acb0" d="M 195.5,457.5 C 195.923,459.781 195.256,461.448 193.5,462.5C 193.796,460.597 194.463,458.93 195.5,457.5 Z"/></g>
<g><path style="opacity:0.02" fill="#bcc3c7" d="M 495.5,459.5 C 495.262,461.404 494.262,462.738 492.5,463.5C 492.554,461.368 493.554,460.035 495.5,459.5 Z"/></g>
<g><path style="opacity:0.388" fill="#a2a6ac" d="M 320.5,455.5 C 319.537,458.744 318.204,461.744 316.5,464.5C 316.495,460.773 317.829,457.773 320.5,455.5 Z"/></g>
<g><path style="opacity:0.478" fill="#777c84" d="M 428.5,459.5 C 428.279,462.067 427.612,464.401 426.5,466.5C 425.99,463.612 426.656,461.279 428.5,459.5 Z"/></g>
<g><path style="opacity:0.235" fill="#9da1a6" d="M 480.5,466.5 C 472.436,464.578 464.103,463.912 455.5,464.5C 456.092,467.127 456.425,469.794 456.5,472.5C 454.882,469.829 454.215,466.829 454.5,463.5C 463.167,463.5 471.833,463.5 480.5,463.5C 480.5,464.5 480.5,465.5 480.5,466.5 Z"/></g>
<g><path style="opacity:1" fill="#3a414b" d="M 112.5,466.5 C 111.833,466.5 111.167,466.5 110.5,466.5C 103.352,465.508 96.0191,465.175 88.5,465.5C 88.5,465.167 88.5,464.833 88.5,464.5C 96.3159,463.508 104.316,463.174 112.5,463.5C 112.5,464.5 112.5,465.5 112.5,466.5 Z"/></g>
<g><path style="opacity:0.373" fill="#b0b3b7" d="M 283.5,463.5 C 283.843,465.483 283.176,466.817 281.5,467.5C 281.66,465.847 282.326,464.514 283.5,463.5 Z"/></g>
<g><path style="opacity:0.063" fill="#898e94" d="M 309.5,446.5 C 310.043,446.56 310.376,446.893 310.5,447.5C 308.653,455.017 306.653,462.35 304.5,469.5C 305.182,461.495 306.849,453.828 309.5,446.5 Z"/></g>
<g><path style="opacity:1" fill="#80858b" d="M 390.5,454.5 C 391.952,456.848 392.618,459.514 392.5,462.5C 392.493,464.369 392.16,466.036 391.5,467.5C 390.515,463.366 390.182,459.032 390.5,454.5 Z"/></g>
<g><path style="opacity:0.196" fill="#c7c8cc" d="M 341.5,463.5 C 341.25,465.674 340.25,467.341 338.5,468.5C 338.75,466.326 339.75,464.659 341.5,463.5 Z"/></g>
<g><path style="opacity:1" fill="#585e67" d="M 366.5,462.5 C 368.96,465.011 368.96,467.344 366.5,469.5C 366.5,467.167 366.5,464.833 366.5,462.5 Z"/></g>
<g><path style="opacity:0.447" fill="#bdc0c4" d="M 492.5,463.5 C 492.155,466.198 490.822,468.198 488.5,469.5C 489.34,467.147 490.674,465.147 492.5,463.5 Z"/></g>
<g><path style="opacity:0.153" fill="#cdcfd2" d="M 518.5,464.5 C 518.573,466.027 517.906,467.027 516.5,467.5C 516.427,465.973 517.094,464.973 518.5,464.5 Z"/></g>
<g><path style="opacity:1" fill="#151d29" d="M 88.5,465.5 C 96.0191,465.175 103.352,465.508 110.5,466.5C 110.5,468.167 110.5,469.833 110.5,471.5C 110.5,471.833 110.5,472.167 110.5,472.5C 108.777,474.78 108.111,477.447 108.5,480.5C 108.5,480.833 108.5,481.167 108.5,481.5C 106.777,483.78 106.111,486.447 106.5,489.5C 106.5,489.833 106.5,490.167 106.5,490.5C 104.837,492.438 104.171,494.772 104.5,497.5C 104.5,497.833 104.5,498.167 104.5,498.5C 103.549,499.919 103.216,501.585 103.5,503.5C 103.567,504.959 103.234,506.292 102.5,507.5C 100.926,509.102 100.259,511.102 100.5,513.5C 99.7814,515.764 99.448,518.097 99.5,520.5C 98.0762,522.515 97.4095,524.848 97.5,527.5C 97.6747,529.621 97.3414,531.621 96.5,533.5C 94.7073,535.426 93.7073,537.759 93.5,540.5C 91.9925,542.181 90.9925,544.181 90.5,546.5C 87.7633,551.042 83.7633,553.875 78.5,555C 71.5079,555.5 64.5079,555.666 57.5,555.5C 56.0813,554.549 54.4147,554.216 52.5,554.5C 52.9629,551.518 53.2962,548.518 53.5,545.5C 53.5,545.167 53.5,544.833 53.5,544.5C 55.1628,542.562 55.8294,540.228 55.5,537.5C 55.5,537.167 55.5,536.833 55.5,536.5C 57.4553,536.201 58.7886,535.201 59.5,533.5C 61.8333,533.5 64.1667,533.5 66.5,533.5C 68.1788,533.715 69.1788,533.048 69.5,531.5C 70.6737,530.486 71.3404,529.153 71.5,527.5C 73.8744,525.066 75.2078,522.066 75.5,518.5C 75.5,518.167 75.5,517.833 75.5,517.5C 76.4345,516.432 76.7678,515.099 76.5,513.5C 76.5,513.167 76.5,512.833 76.5,512.5C 79.3294,509.511 79.9961,506.178 78.5,502.5C 78.5,502.167 78.5,501.833 78.5,501.5C 80.3079,500.082 80.9746,498.082 80.5,495.5C 80.5,495.167 80.5,494.833 80.5,494.5C 82.1745,491.493 82.8412,488.16 82.5,484.5C 82.5,484.167 82.5,483.833 82.5,483.5C 84.1628,481.562 84.8294,479.228 84.5,476.5C 84.5,476.167 84.5,475.833 84.5,475.5C 85.4345,474.432 85.7678,473.099 85.5,471.5C 86.4861,469.574 87.4861,467.574 88.5,465.5 Z"/></g>
<g><path style="opacity:0.51" fill="#b2b9bf" d="M 219.5,465.5 C 220.471,466.962 220.138,468.295 218.5,469.5C 218.232,467.901 218.566,466.568 219.5,465.5 Z"/></g>
<g><path style="opacity:0.745" fill="#a8acb2" d="M 110.5,466.5 C 111.167,466.5 111.833,466.5 112.5,466.5C 112.204,468.403 111.537,470.07 110.5,471.5C 110.5,469.833 110.5,468.167 110.5,466.5 Z"/></g>
<g><path style="opacity:0.537" fill="#9b9ea4" d="M 121.5,464.5 C 121.784,466.415 121.451,468.081 120.5,469.5C 119.957,469.44 119.624,469.107 119.5,468.5C 119.994,466.974 120.661,465.641 121.5,464.5 Z"/></g>
<g><path style="opacity:0.125" fill="#a4a7ab" d="M 233.5,461.5 C 233.785,464.829 233.118,467.829 231.5,470.5C 231.215,467.171 231.882,464.171 233.5,461.5 Z"/></g>
<g><path style="opacity:0.008" fill="#b2b5ba" d="M 88.5,464.5 C 88.5,464.833 88.5,465.167 88.5,465.5C 87.4861,467.574 86.4861,469.574 85.5,471.5C 85.1663,468.509 86.1663,466.176 88.5,464.5 Z"/></g>
<g><path style="opacity:0.694" fill="#949ba2" d="M 193.5,463.5 C 194.867,466.012 194.534,468.345 192.5,470.5C 191.957,470.44 191.624,470.107 191.5,469.5C 192.747,467.677 193.414,465.677 193.5,463.5 Z"/></g>
<g><path style="opacity:0.733" fill="#cfd2d4" d="M 315.5,466.5 C 315.737,467.791 315.404,468.791 314.5,469.5C 314.062,469.565 313.728,469.399 313.5,469C 314.066,468.005 314.733,467.172 315.5,466.5 Z"/></g>
<g><path style="opacity:0.349" fill="#8d9298" d="M 404.5,462.5 C 404.889,465.553 404.223,468.22 402.5,470.5C 402.294,467.505 402.96,464.838 404.5,462.5 Z"/></g>
<g><path style="opacity:0.835" fill="#9ea1a7" d="M 149.5,462.5 C 149.611,463.117 149.944,463.617 150.5,464C 148.974,467.854 147.641,471.687 146.5,475.5C 146.5,474.5 146.5,473.5 146.5,472.5C 146.757,468.829 147.757,465.495 149.5,462.5 Z"/></g>
<g><path style="opacity:0.922" fill="#868a91" d="M 426.5,467.5 C 426.435,470.428 425.768,473.095 424.5,475.5C 424.111,472.447 424.777,469.78 426.5,467.5 Z"/></g>
<g><path style="opacity:0.075" fill="#aaafb4" d="M 480.5,467.5 C 482.074,469.102 482.741,471.102 482.5,473.5C 481.262,471.786 480.595,469.786 480.5,467.5 Z"/></g>
<g><path style="opacity:0.961" fill="#a6a8ad" d="M 488.5,469.5 C 488.573,471.027 487.906,472.027 486.5,472.5C 486.427,470.973 487.094,469.973 488.5,469.5 Z"/></g>
<g><path style="opacity:0.098" fill="#b9bbbf" d="M 514.5,469.5 C 514.262,471.404 513.262,472.738 511.5,473.5C 511.738,471.596 512.738,470.262 514.5,469.5 Z"/></g>
<g><path style="opacity:0.624" fill="#9da2a8" d="M 218.5,470.5 C 218.741,472.898 218.074,474.898 216.5,476.5C 216.259,474.102 216.926,472.102 218.5,470.5 Z"/></g>
<g><path style="opacity:0.843" fill="#a8abb0" d="M 85.5,471.5 C 85.7678,473.099 85.4345,474.432 84.5,475.5C 84.0618,475.565 83.7284,475.399 83.5,475C 84.0848,473.698 84.7515,472.531 85.5,471.5 Z"/></g>
<g><path style="opacity:0.518" fill="#95989e" d="M 281.5,468.5 C 282.746,471.293 282.413,473.96 280.5,476.5C 279.957,476.44 279.624,476.107 279.5,475.5C 280.577,473.271 281.244,470.937 281.5,468.5 Z"/></g>
<g><path style="opacity:1" fill="#969aa0" d="M 304.5,471.5 C 304.706,474.495 304.04,477.162 302.5,479.5C 302.111,476.447 302.777,473.78 304.5,471.5 Z"/></g>
<g><path style="opacity:0.953" fill="#90969d" d="M 110.5,472.5 C 110.706,475.495 110.04,478.162 108.5,480.5C 108.111,477.447 108.777,474.78 110.5,472.5 Z"/></g>
<g><path style="opacity:0.827" fill="#8b8e95" d="M 231.5,472.5 C 231.923,474.781 231.256,476.448 229.5,477.5C 229.796,475.597 230.463,473.93 231.5,472.5 Z"/></g>
<g><path style="opacity:0.91" fill="#92959b" d="M 255.5,466.5 C 255.938,466.435 256.272,466.601 256.5,467C 255.321,471.643 253.988,476.143 252.5,480.5C 252.443,475.469 253.443,470.802 255.5,466.5 Z"/></g>
<g><path style="opacity:0.643" fill="#9ca1a7" d="M 314.5,470.5 C 314.741,472.898 314.074,474.898 312.5,476.5C 312.259,474.102 312.926,472.102 314.5,470.5 Z"/></g>
<g><path style="opacity:0.259" fill="#bbbec1" d="M 486.5,472.5 C 485.952,474.394 484.952,476.06 483.5,477.5C 482.571,476.311 482.238,474.978 482.5,473.5C 483.962,474.471 485.295,474.138 486.5,472.5 Z"/></g>
<g><path style="opacity:0.043" fill="#cacccf" d="M 511.5,473.5 C 511.573,475.027 510.906,476.027 509.5,476.5C 509.427,474.973 510.094,473.973 511.5,473.5 Z"/></g>
<g><path style="opacity:0.518" fill="#8d9197" d="M 192.5,471.5 C 192.829,474.228 192.163,476.562 190.5,478.5C 189.894,475.964 190.56,473.63 192.5,471.5 Z"/></g>
<g><path style="opacity:0.29" fill="#979ca2" d="M 402.5,471.5 C 402.889,474.553 402.223,477.22 400.5,479.5C 400.294,476.505 400.96,473.838 402.5,471.5 Z"/></g>
<g><path style="opacity:0.816" fill="#8a8e95" d="M 390.5,474.5 C 390.706,477.495 390.04,480.162 388.5,482.5C 388.294,479.505 388.96,476.838 390.5,474.5 Z"/></g>
<g><path style="opacity:0.075" fill="#a3a6ab" d="M 456.5,473.5 C 458.41,476.452 459.41,479.786 459.5,483.5C 458.025,480.674 456.692,477.674 455.5,474.5C 455.624,473.893 455.957,473.56 456.5,473.5 Z"/></g>
<g><path style="opacity:0.125" fill="#80858c" d="M 146.5,472.5 C 146.5,473.5 146.5,474.5 146.5,475.5C 146.5,480.833 146.5,486.167 146.5,491.5C 145.107,489.489 144.44,487.155 144.5,484.5C 144.852,480.306 145.518,476.306 146.5,472.5 Z"/></g>
<g><path style="opacity:0.761" fill="#989ba1" d="M 190.5,478.5 C 190.741,480.898 190.074,482.898 188.5,484.5C 188.595,482.214 189.262,480.214 190.5,478.5 Z"/></g>
<g><path style="opacity:0.502" fill="#adb1b6" d="M 216.5,476.5 C 216.741,478.898 216.074,480.898 214.5,482.5C 214.595,480.214 215.262,478.214 216.5,476.5 Z"/></g>
<g><path style="opacity:0.22" fill="#b1b4b8" d="M 507.5,478.5 C 507.573,480.027 506.906,481.027 505.5,481.5C 505.427,479.973 506.094,478.973 507.5,478.5 Z"/></g>
<g><path style="opacity:0.627" fill="#999ea4" d="M 424.5,476.5 C 425.043,476.56 425.376,476.893 425.5,477.5C 422.93,487.98 420.264,498.313 417.5,508.5C 418.921,497.499 421.254,486.832 424.5,476.5 Z"/></g>
<g><path style="opacity:0.91" fill="#92959b" d="M 84.5,476.5 C 84.8294,479.228 84.1628,481.562 82.5,483.5C 82.4095,480.848 83.0762,478.515 84.5,476.5 Z"/></g>
<g><path style="opacity:0.188" fill="#95999f" d="M 312.5,477.5 C 312.785,480.829 312.118,483.829 310.5,486.5C 310.42,483.219 311.087,480.219 312.5,477.5 Z"/></g>
<g><path style="opacity:0.035" fill="#d4d5d8" d="M 505.5,481.5 C 505.573,483.027 504.906,484.027 503.5,484.5C 503.427,482.973 504.094,481.973 505.5,481.5 Z"/></g>
<g><path style="opacity:0.255" fill="#7d8289" d="M 120.5,470.5 C 119.218,479.836 119.218,489.169 120.5,498.5C 118.975,494.272 118.308,489.772 118.5,485C 118.344,479.91 119.01,475.077 120.5,470.5 Z"/></g>
<g><path style="opacity:0.624" fill="#abb2b8" d="M 214.5,482.5 C 214.741,484.898 214.074,486.898 212.5,488.5C 212.259,486.102 212.926,484.102 214.5,482.5 Z"/></g>
<g><path style="opacity:0.459" fill="#898c93" d="M 280.5,477.5 C 280.706,480.495 280.04,483.162 278.5,485.5C 278.062,485.565 277.728,485.399 277.5,485C 278.282,482.328 279.282,479.828 280.5,477.5 Z"/></g>
<g><path style="opacity:1" fill="#858991" d="M 302.5,480.5 C 302.706,483.495 302.04,486.162 300.5,488.5C 300.111,485.447 300.777,482.78 302.5,480.5 Z"/></g>
<g><path style="opacity:0.961" fill="#8c9096" d="M 108.5,481.5 C 108.706,484.495 108.04,487.162 106.5,489.5C 106.111,486.447 106.777,483.78 108.5,481.5 Z"/></g>
<g><path style="opacity:0.318" fill="#b1b3b8" d="M 459.5,483.5 C 460.738,485.214 461.405,487.214 461.5,489.5C 459.926,487.898 459.259,485.898 459.5,483.5 Z"/></g>
<g><path style="opacity:0.325" fill="#858990" d="M 388.5,483.5 C 389.625,484.348 389.625,485.348 388.5,486.5C 387.167,485.5 387.167,484.5 388.5,483.5 Z"/></g>
<g><path style="opacity:0.243" fill="#a4a6ab" d="M 400.5,481.5 C 400.59,484.152 399.924,486.485 398.5,488.5C 398.171,485.772 398.837,483.438 400.5,481.5 Z"/></g>
<g><path style="opacity:0.906" fill="#91979e" d="M 188.5,485.5 C 188.741,487.898 188.074,489.898 186.5,491.5C 186.595,489.214 187.262,487.214 188.5,485.5 Z"/></g>
<g><path style="opacity:0.973" fill="#868a91" d="M 229.5,478.5 C 230.139,479.097 230.472,479.93 230.5,481C 229.906,486.051 228.906,490.885 227.5,495.5C 227.437,489.736 228.103,484.07 229.5,478.5 Z"/></g>
<g><path style="opacity:0.192" fill="#dfe0e1" d="M 388.5,487.5 C 370.864,489.487 352.864,490.153 334.5,489.5C 352.402,488.821 370.402,488.154 388.5,487.5 Z"/></g>
<g><path style="opacity:0.012" fill="#b8b9bd" d="M 300.5,489.5 C 301.043,489.56 301.376,489.893 301.5,490.5C 301.006,492.026 300.339,493.359 299.5,494.5C 299.216,492.585 299.549,490.919 300.5,489.5 Z"/></g>
<g><path style="opacity:0.078" fill="#bfc7cb" d="M 501.5,487.5 C 501.446,489.632 500.446,490.965 498.5,491.5C 498.738,489.596 499.738,488.262 501.5,487.5 Z"/></g>
<g><path style="opacity:0.22" fill="#979ba2" d="M 278.5,486.5 C 278.829,489.228 278.163,491.562 276.5,493.5C 276.41,490.848 277.076,488.515 278.5,486.5 Z"/></g>
<g><path style="opacity:0.208" fill="#90959c" d="M 82.5,484.5 C 82.8412,488.16 82.1745,491.493 80.5,494.5C 80.322,490.878 80.9886,487.544 82.5,484.5 Z"/></g>
<g><path style="opacity:0.675" fill="#94979d" d="M 212.5,488.5 C 212.598,490.553 211.931,492.22 210.5,493.5C 210.402,491.447 211.069,489.78 212.5,488.5 Z"/></g>
<g><path style="opacity:0.365" fill="#b1b3b7" d="M 398.5,490.5 C 398.843,492.483 398.176,493.817 396.5,494.5C 396.66,492.847 397.326,491.514 398.5,490.5 Z"/></g>
<g><path style="opacity:0.965" fill="#868c93" d="M 106.5,490.5 C 106.829,493.228 106.163,495.562 104.5,497.5C 104.171,494.772 104.837,492.438 106.5,490.5 Z"/></g>
<g><path style="opacity:0.412" fill="#b0b3b8" d="M 186.5,492.5 C 186.59,495.152 185.924,497.485 184.5,499.5C 184.171,496.772 184.837,494.438 186.5,492.5 Z"/></g>
<g><path style="opacity:0.02" fill="#e0e1e2" d="M 498.5,491.5 C 498.715,493.179 498.048,494.179 496.5,494.5C 496.932,493.29 497.599,492.29 498.5,491.5 Z"/></g>
<g><path style="opacity:1" fill="#94979e" d="M 147.5,493.5 C 148.833,494.167 149.833,495.167 150.5,496.5C 148.5,496.5 147.5,495.5 147.5,493.5 Z"/></g>
<g><path style="opacity:0.69" fill="#b1b8bd" d="M 210.5,493.5 C 211.326,495.548 210.659,497.215 208.5,498.5C 208.796,496.597 209.463,494.93 210.5,493.5 Z"/></g>
<g><path style="opacity:0.816" fill="#a6a9ad" d="M 461.5,490.5 C 463.118,493.171 463.785,496.171 463.5,499.5C 462.087,496.781 461.42,493.781 461.5,490.5 Z"/></g>
<g><path style="opacity:0.122" fill="#9ba0a6" d="M 310.5,488.5 C 310.889,491.553 310.223,494.22 308.5,496.5C 308.565,493.572 309.232,490.905 310.5,488.5 Z"/></g>
<g><path style="opacity:0.404" fill="#a6a8ad" d="M 334.5,491.5 C 334.448,493.903 334.781,496.236 335.5,498.5C 334.007,497.688 333.34,496.355 333.5,494.5C 333.52,493.274 333.853,492.274 334.5,491.5 Z"/></g>
<g><path style="opacity:0.678" fill="#999ea3" d="M 150.5,496.5 C 152.5,497.167 154.5,497.833 156.5,498.5C 154.085,499.648 152.085,498.982 150.5,496.5 Z"/></g>
<g><path style="opacity:0.094" fill="#d3d5d8" d="M 496.5,495.5 C 496.573,497.027 495.906,498.027 494.5,498.5C 494.427,496.973 495.094,495.973 496.5,495.5 Z"/></g>
<g><path style="opacity:0.443" fill="#9ea0a6" d="M 80.5,495.5 C 80.9746,498.082 80.3079,500.082 78.5,501.5C 78.8751,499.302 79.5418,497.302 80.5,495.5 Z"/></g>
<g><path style="opacity:0.039" fill="#abafb4" d="M 104.5,498.5 C 105.043,498.56 105.376,498.893 105.5,499.5C 105.006,501.026 104.339,502.359 103.5,503.5C 103.216,501.585 103.549,499.919 104.5,498.5 Z"/></g>
<g><path style="opacity:0.765" fill="#b9bcc0" d="M 120.5,498.5 C 121.738,500.214 122.405,502.214 122.5,504.5C 120.583,502.72 119.916,500.72 120.5,498.5 Z"/></g>
<g><path style="opacity:0.251" fill="#9a9ea3" d="M 276.5,495.5 C 276.5,497.167 276.5,498.833 276.5,500.5C 268.316,500.826 260.316,500.492 252.5,499.5C 259.863,499.831 267.197,499.497 274.5,498.5C 274.942,497.261 275.609,496.261 276.5,495.5 Z"/></g>
<g><path style="opacity:0.788" fill="#aeb2b7" d="M 298.5,498.5 C 299.043,498.56 299.376,498.893 299.5,499.5C 298.972,501.336 298.306,503.003 297.5,504.5C 297.205,502.265 297.539,500.265 298.5,498.5 Z"/></g>
<g><path style="opacity:0.749" fill="#747980" d="M 335.5,498.5 C 336.609,498.557 337.609,498.89 338.5,499.5C 337.221,500.715 336.221,500.382 335.5,498.5 Z"/></g>
<g><path style="opacity:1" fill="#353c47" d="M 161.5,499.5 C 169.167,499.5 176.833,499.5 184.5,499.5C 181.062,500.823 177.229,501.49 173,501.5C 168.771,501.49 164.938,500.823 161.5,499.5 Z"/></g>
<g><path style="opacity:1" fill="#7b8087" d="M 339.5,499.5 C 340.492,499.328 341.158,499.662 341.5,500.5C 340.377,501.757 339.711,501.424 339.5,499.5 Z"/></g>
<g><path style="opacity:0.039" fill="#9a9ea3" d="M 367.5,500.5 C 372.833,500.5 378.167,500.5 383.5,500.5C 383.841,504.16 383.175,507.493 381.5,510.5C 381.575,507.794 381.908,505.127 382.5,502.5C 377.5,501.833 372.5,501.167 367.5,500.5 Z"/></g>
<g><path style="opacity:0.275" fill="#9ca0a5" d="M 396.5,495.5 C 397.917,498.34 397.584,501.007 395.5,503.5C 394.957,503.44 394.624,503.107 394.5,502.5C 395.946,500.382 396.613,498.049 396.5,495.5 Z"/></g>
<g><path style="opacity:1" fill="#9b9fa4" d="M 218.5,500.5 C 220.851,501.916 220.851,503.583 218.5,505.5C 218.5,503.833 218.5,502.167 218.5,500.5 Z"/></g>
<g><path style="opacity:0.914" fill="#565c65" d="M 358.5,500.5 C 361.5,500.5 364.5,500.5 367.5,500.5C 372.5,501.167 377.5,501.833 382.5,502.5C 374.097,503.134 366.097,502.467 358.5,500.5 Z"/></g>
<g><path style="opacity:0.616" fill="#c4c7ca" d="M 493.5,500.5 C 491.203,506.416 488.537,512.082 485.5,517.5C 486.848,511.14 489.515,505.473 493.5,500.5 Z"/></g>
<g><path style="opacity:0.424" fill="#b1b9c0" d="M 123.5,506.5 C 124.906,506.973 125.573,507.973 125.5,509.5C 123.952,509.179 123.285,508.179 123.5,506.5 Z"/></g>
<g><path style="opacity:0.843" fill="#95999f" d="M 297.5,504.5 C 297.58,507.781 296.913,510.781 295.5,513.5C 295.215,510.171 295.882,507.171 297.5,504.5 Z"/></g>
<g><path style="opacity:1" fill="#8d9399" d="M 78.5,502.5 C 79.9961,506.178 79.3294,509.511 76.5,512.5C 77.1667,509.167 77.8333,505.833 78.5,502.5 Z"/></g>
<g><path style="opacity:0.102" fill="#afb2b7" d="M 308.5,503.5 C 310.536,506.579 312.202,509.912 313.5,513.5C 310.711,510.844 309.044,507.511 308.5,503.5 Z"/></g>
<g><path style="opacity:0.922" fill="#696d76" d="M 102.5,507.5 C 103.043,507.56 103.376,507.893 103.5,508.5C 102.544,510.075 101.877,511.742 101.5,513.5C 101.167,513.5 100.833,513.5 100.5,513.5C 100.259,511.102 100.926,509.102 102.5,507.5 Z"/></g>
<g><path style="opacity:0.031" fill="#d6d9dc" d="M 227.5,504.5 C 228.871,506.936 229.871,509.603 230.5,512.5C 228.018,510.497 227.018,507.831 227.5,504.5 Z"/></g>
<g><path style="opacity:0.106" fill="#a2a5aa" d="M 125.5,509.5 C 128.526,512.195 131.526,514.862 134.5,517.5C 130.233,516.232 127.233,513.565 125.5,509.5 Z"/></g>
<g><path style="opacity:0.69" fill="#868a91" d="M 395.5,504.5 C 395.889,507.553 395.223,510.22 393.5,512.5C 393.565,509.572 394.232,506.905 395.5,504.5 Z"/></g>
<g><path style="opacity:1" fill="#898f95" d="M 417.5,509.5 C 417.706,512.495 417.04,515.162 415.5,517.5C 415.111,514.447 415.777,511.78 417.5,509.5 Z"/></g>
<g><path style="opacity:0.125" fill="#9ca1a7" d="M 463.5,508.5 C 463.829,511.228 463.163,513.562 461.5,515.5C 461.41,512.848 462.076,510.515 463.5,508.5 Z"/></g>
<g><path style="opacity:0.129" fill="#b6bcc1" d="M 100.5,513.5 C 100.833,513.5 101.167,513.5 101.5,513.5C 101.59,516.152 100.924,518.485 99.5,520.5C 99.448,518.097 99.7814,515.764 100.5,513.5 Z"/></g>
<g><path style="opacity:0.937" fill="#c4c8cb" d="M 76.5,513.5 C 76.7678,515.099 76.4345,516.432 75.5,517.5C 74.5291,516.038 74.8624,514.705 76.5,513.5 Z"/></g>
<g><path style="opacity:0.11" fill="#999ea4" d="M 218.5,506.5 C 217.786,512.094 216.453,517.427 214.5,522.5C 214.454,516.702 215.787,511.369 218.5,506.5 Z"/></g>
<g><path style="opacity:0.059" fill="#94979e" d="M 231.5,514.5 C 233.754,515.124 235.421,516.457 236.5,518.5C 234.205,517.864 232.539,516.531 231.5,514.5 Z"/></g>
<g><path style="opacity:0.871" fill="#9b9ea4" d="M 295.5,514.5 C 295.435,517.428 294.768,520.095 293.5,522.5C 293.111,519.447 293.777,516.78 295.5,514.5 Z"/></g>
<g><path style="opacity:1" fill="#71777f" d="M 381.5,511.5 C 381.658,514.545 380.991,517.379 379.5,520C 380.566,521.159 380.233,521.992 378.5,522.5C 378.126,518.353 379.126,514.686 381.5,511.5 Z"/></g>
<g><path style="opacity:0.482" fill="#d9dadd" d="M 461.5,515.5 C 461.567,516.959 461.234,518.292 460.5,519.5C 460.167,519.5 459.833,519.5 459.5,519.5C 459.66,517.847 460.326,516.514 461.5,515.5 Z"/></g>
<g><path style="opacity:0.498" fill="#737880" d="M 136.5,518.5 C 139.461,518.464 141.794,519.464 143.5,521.5C 140.843,521.065 138.509,520.065 136.5,518.5 Z"/></g>
<g><path style="opacity:0.671" fill="#7f838a" d="M 236.5,518.5 C 239.105,518.621 241.105,519.621 242.5,521.5C 240.113,521.088 238.113,520.088 236.5,518.5 Z"/></g>
<g><path style="opacity:0.671" fill="#a2a5a9" d="M 319.5,518.5 C 321.38,518.229 322.713,518.896 323.5,520.5C 321.847,520.34 320.514,519.674 319.5,518.5 Z"/></g>
<g><path style="opacity:0.898" fill="#545a64" d="M 243.5,521.5 C 244.449,520.848 245.615,520.514 247,520.5C 248.681,520.608 249.848,521.275 250.5,522.5C 248.05,522.702 245.717,522.369 243.5,521.5 Z"/></g>
<g><path style="opacity:0.898" fill="#6d7279" d="M 485.5,517.5 C 486.517,519.472 485.85,520.805 483.5,521.5C 475.097,522.134 467.097,521.467 459.5,519.5C 459.833,519.5 460.167,519.5 460.5,519.5C 468.316,520.492 476.316,520.826 484.5,520.5C 484.263,519.209 484.596,518.209 485.5,517.5 Z"/></g>
<g><path style="opacity:0.027" fill="#676c75" d="M 153.5,522.5 C 150.615,522.806 147.948,522.473 145.5,521.5C 146.622,520.844 147.955,520.511 149.5,520.5C 151.333,520.585 152.666,521.252 153.5,522.5 Z"/></g>
<g><path style="opacity:0.027" fill="#666a73" d="M 332.5,522.5 C 330.585,522.784 328.919,522.451 327.5,521.5C 328.097,520.861 328.93,520.528 330,520.5C 331.376,520.684 332.209,521.351 332.5,522.5 Z"/></g>
<g><path style="opacity:0.027" fill="#6a6f78" d="M 393.5,513.5 C 393.708,515.92 393.374,518.253 392.5,520.5C 399.476,521.664 406.476,521.831 413.5,521C 414.066,520.005 414.733,519.172 415.5,518.5C 415.926,519.528 415.926,520.861 415.5,522.5C 407.5,522.5 399.5,522.5 391.5,522.5C 391.42,519.219 392.087,516.219 393.5,513.5 Z"/></g>
<g><path style="opacity:0.027" fill="#9ca0a5" d="M 459.5,519.5 C 467.097,521.467 475.097,522.134 483.5,521.5C 475.35,522.493 467.017,522.826 458.5,522.5C 458.263,521.209 458.596,520.209 459.5,519.5 Z"/></g>
<g><path style="opacity:0.698" fill="#9ea3a9" d="M 75.5,518.5 C 75.2078,522.066 73.8744,525.066 71.5,527.5C 72.3892,524.23 73.7225,521.23 75.5,518.5 Z"/></g>
<g><path style="opacity:0.035" fill="#b3bbc0" d="M 99.5,520.5 C 99.8294,523.228 99.1628,525.562 97.5,527.5C 97.4095,524.848 98.0762,522.515 99.5,520.5 Z"/></g>
<g><path style="opacity:0.212" fill="#c8ced2" d="M 71.5,527.5 C 71.3404,529.153 70.6737,530.486 69.5,531.5C 69.2291,529.62 69.8958,528.287 71.5,527.5 Z"/></g>
<g><path style="opacity:1" fill="#a0a7ae" d="M 69.5,531.5 C 69.1788,533.048 68.1788,533.715 66.5,533.5C 67.2905,532.599 68.2905,531.932 69.5,531.5 Z"/></g>
<g><path style="opacity:1" fill="#6c7178" d="M 59.5,533.5 C 58.7886,535.201 57.4553,536.201 55.5,536.5C 55.6941,534.088 57.0274,533.088 59.5,533.5 Z"/></g>
<g><path style="opacity:0.294" fill="#aeb2b7" d="M 96.5,533.5 C 96.2927,536.241 95.2927,538.574 93.5,540.5C 93.7073,537.759 94.7073,535.426 96.5,533.5 Z"/></g>
<g><path style="opacity:0.569" fill="#95989e" d="M 55.5,537.5 C 55.8294,540.228 55.1628,542.562 53.5,544.5C 53.4095,541.848 54.0762,539.515 55.5,537.5 Z"/></g>
<g><path style="opacity:0.404" fill="#b3b7bb" d="M 93.5,540.5 C 93.539,543.089 92.539,545.089 90.5,546.5C 90.9925,544.181 91.9925,542.181 93.5,540.5 Z"/></g>
<g><path style="opacity:0.937" fill="#6e737b" d="M 53.5,545.5 C 53.2962,548.518 52.9629,551.518 52.5,554.5C 54.4147,554.216 56.0813,554.549 57.5,555.5C 55.5,555.5 53.5,555.5 51.5,555.5C 51.3359,552.813 51.5026,550.146 52,547.5C 52.2784,546.584 52.7784,545.918 53.5,545.5 Z"/></g>
</svg>
