<?xml version="1.0" encoding="UTF-8"?>
<!DOCTYPE svg PUBLIC "-//W3C//DTD SVG 1.1//EN" "http://www.w3.org/Graphics/SVG/1.1/DTD/svg11.dtd">
<svg xmlns="http://www.w3.org/2000/svg" version="1.1" width="1550px" height="500px" style="shape-rendering:geometricPrecision; text-rendering:geometricPrecision; image-rendering:optimizeQuality; fill-rule:evenodd; clip-rule:evenodd" xmlns:xlink="http://www.w3.org/1999/xlink">
<g><path style="opacity:0.994" fill="#5cb04f" d="M 160.5,50.5 C 163.314,79.7331 164.648,109.066 164.5,138.5C 164.5,158.5 164.5,178.5 164.5,198.5C 164.5,198.833 164.5,199.167 164.5,199.5C 164.664,202.187 164.497,204.854 164,207.5C 151.431,169.291 138.598,131.291 125.5,93.5C 134.462,82.7045 144.295,72.7045 155,63.5C 157.271,58.6729 159.105,54.3396 160.5,50.5 Z"/></g>
<g><path style="opacity:0.984" fill="#45a147" d="M 160.5,50.5 C 164.448,59.0588 168.948,67.3921 174,75.5C 191.404,91.7147 205.904,110.048 217.5,130.5C 199.782,132.842 182.115,135.509 164.5,138.5C 164.648,109.066 163.314,79.7331 160.5,50.5 Z"/></g>
<g><path style="opacity:0.996" fill="#54ab4c" d="M 125.5,93.5 C 138.598,131.291 151.431,169.291 164,207.5C 164.497,204.854 164.664,202.187 164.5,199.5C 165.77,232.342 165.77,265.342 164.5,298.5C 144.463,240.055 124.796,181.389 105.5,122.5C 110.936,111.955 117.602,102.288 125.5,93.5 Z"/></g>
<g><path style="opacity:0.997" fill="#4da749" d="M 105.5,122.5 C 124.796,181.389 144.463,240.055 164.5,298.5C 164.5,301.5 164.5,304.5 164.5,307.5C 163.784,321.524 162.784,335.524 161.5,349.5C 161.234,358.058 160.234,366.391 158.5,374.5C 135.411,303.233 111.744,232.233 87.5,161.5C 91.6324,147.573 97.6324,134.573 105.5,122.5 Z"/></g>
<g><path style="opacity:0.993" fill="#449d46" d="M 217.5,130.5 C 228.204,147.918 236.204,166.585 241.5,186.5C 215.781,190.175 190.115,194.175 164.5,198.5C 164.5,178.5 164.5,158.5 164.5,138.5C 182.115,135.509 199.782,132.842 217.5,130.5 Z"/></g>
<g><path style="opacity:0.994" fill="#46a448" d="M 87.5,161.5 C 111.744,232.233 135.411,303.233 158.5,374.5C 157.955,377.813 157.455,381.146 157,384.5C 156.647,387.152 155.48,389.152 153.5,390.5C 146.221,385.554 139.554,379.887 133.5,373.5C 115.27,316.475 96.2696,259.808 76.5,203.5C 78.9337,189.095 82.6004,175.095 87.5,161.5 Z"/></g>
<g><path style="opacity:0.994" fill="#429945" d="M 241.5,186.5 C 251.323,220.277 251.99,254.277 243.5,288.5C 217.5,292.5 191.5,296.5 165.5,300.5C 165.802,303.059 165.468,305.393 164.5,307.5C 164.5,304.5 164.5,301.5 164.5,298.5C 165.77,265.342 165.77,232.342 164.5,199.5C 164.5,199.167 164.5,198.833 164.5,198.5C 190.115,194.175 215.781,190.175 241.5,186.5 Z"/></g>
<g><path style="opacity:0.963" fill="#c0bfbc" d="M 1123.5,200.5 C 1159.17,200.333 1194.83,200.5 1230.5,201C 1278.05,209.056 1302.72,237.223 1304.5,285.5C 1303.7,329.787 1282.36,358.954 1240.5,373C 1231.64,375.421 1222.64,377.088 1213.5,378C 1183.82,378.719 1154.16,378.552 1124.5,377.5C 1124.18,373.306 1125.18,369.473 1127.5,366C 1132.68,365.298 1137.68,363.964 1142.5,362C 1144.49,360.681 1145.65,358.848 1146,356.5C 1147.63,312.862 1147.96,269.195 1147,225.5C 1146.69,221.035 1144.52,217.868 1140.5,216C 1133.64,213.967 1126.64,212.801 1119.5,212.5C 1119.71,208.096 1121.04,204.096 1123.5,200.5 Z M 1186.5,213.5 C 1206.47,212.213 1225.14,216.379 1242.5,226C 1263.69,241.841 1274.03,263.175 1273.5,290C 1274.3,313.945 1266.3,334.278 1249.5,351C 1234,362.635 1216.67,366.635 1197.5,363C 1188.71,362.201 1182.21,358.034 1178,350.5C 1176.35,306.546 1176.02,262.546 1177,218.5C 1179.45,215.357 1182.62,213.691 1186.5,213.5 Z"/></g>
<g><path style="opacity:0.959" fill="#c0bfbc" d="M 1326.5,200.5 C 1357.84,200.333 1389.17,200.5 1420.5,201C 1436.11,202.048 1448.28,208.882 1457,221.5C 1466.78,246.265 1459.95,264.931 1436.5,277.5C 1467,285.839 1479.17,305.506 1473,336.5C 1465.71,353.792 1453.21,365.626 1435.5,372C 1427.13,375.26 1418.46,377.26 1409.5,378C 1380.5,378.579 1351.5,378.413 1322.5,377.5C 1322.74,373.29 1324.07,369.456 1326.5,366C 1333.12,365.344 1339.46,363.677 1345.5,361C 1346.83,358.34 1347.67,355.506 1348,352.5C 1348.67,308.5 1348.67,264.5 1348,220.5C 1346.75,217.619 1344.58,215.786 1341.5,215C 1335.52,213.907 1329.52,212.907 1323.5,212C 1322.98,211.439 1322.64,210.772 1322.5,210C 1323.45,206.609 1324.78,203.442 1326.5,200.5 Z M 1379.5,214.5 C 1389.96,213.99 1400.29,214.823 1410.5,217C 1426.41,222.981 1433.58,234.481 1432,251.5C 1430.12,265.376 1422.29,273.21 1408.5,275C 1398.26,275.819 1388.09,275.652 1378,274.5C 1377.33,255.5 1377.33,236.5 1378,217.5C 1378.51,216.473 1379.01,215.473 1379.5,214.5 Z M 1381.5,288.5 C 1394.37,288.442 1407.04,289.942 1419.5,293C 1442.02,303.52 1449.19,320.687 1441,344.5C 1437.04,353.124 1430.54,358.958 1421.5,362C 1409.42,365.158 1397.42,364.825 1385.5,361C 1381.62,358.072 1379.12,354.239 1378,349.5C 1377.5,329.503 1377.33,309.503 1377.5,289.5C 1379.1,289.768 1380.43,289.434 1381.5,288.5 Z"/></g>
<g><path style="opacity:0.983" fill="#42a347" d="M 76.5,203.5 C 96.2696,259.808 115.27,316.475 133.5,373.5C 85.8054,326.751 66.8054,270.085 76.5,203.5 Z"/></g>
<g><path style="opacity:0.963" fill="#474747" d="M 720.5,258.5 C 721.75,258.577 722.583,259.244 723,260.5C 723.333,266.167 723.667,271.833 724,277.5C 734.998,266.752 748.165,260.418 763.5,258.5C 785.053,260.886 797.22,272.886 800,294.5C 800.232,316.515 800.898,338.515 802,360.5C 802.5,362.333 803.667,363.5 805.5,364C 810.1,365.483 814.767,366.65 819.5,367.5C 820.745,371.214 820.579,374.88 819,378.5C 798.906,378.214 778.739,378.547 758.5,379.5C 758.176,375.445 758.509,371.445 759.5,367.5C 763.993,366.929 768.326,365.763 772.5,364C 773.893,362.829 774.727,361.329 775,359.5C 775.901,338.803 775.567,318.136 774,297.5C 768.788,283.304 758.621,277.471 743.5,280C 738.172,281.163 733.172,283.163 728.5,286C 726.19,287.637 724.69,289.804 724,292.5C 723.088,315.529 723.421,338.529 725,361.5C 725.5,363.333 726.667,364.5 728.5,365C 733.136,366.067 737.802,366.9 742.5,367.5C 742.605,371.548 742.272,375.548 741.5,379.5C 723.5,378.284 705.5,378.284 687.5,379.5C 684.713,379.426 682.213,378.76 680,377.5C 679.333,374.5 679.333,371.5 680,368.5C 684.67,366.739 689.503,365.239 694.5,364C 695.893,362.829 696.727,361.329 697,359.5C 698.809,335.121 698.809,310.788 697,286.5C 691.178,283.007 685.012,280.174 678.5,278C 675.735,275.034 676.068,272.367 679.5,270C 693.768,267.853 707.434,264.02 720.5,258.5 Z"/></g>
<g><path style="opacity:0.951" fill="#474747" d="M 342.5,259.5 C 343.496,259.414 344.329,259.748 345,260.5C 345.17,266.196 345.67,271.862 346.5,277.5C 358.212,267.563 371.712,261.563 387,259.5C 392.855,259.737 398.355,261.237 403.5,264C 409.049,268.048 413.715,272.881 417.5,278.5C 428.464,269.685 440.797,263.518 454.5,260C 476.53,258.683 490.03,268.849 495,290.5C 496.259,313.801 496.926,337.135 497,360.5C 498.109,362.815 499.943,364.315 502.5,365C 506.728,366.412 511.061,367.246 515.5,367.5C 515.751,370.909 515.417,374.242 514.5,377.5C 494.85,377.209 475.184,377.542 455.5,378.5C 455.335,375.15 455.502,371.817 456,368.5C 460.555,367.235 465.055,365.735 469.5,364C 470.863,362.055 471.697,359.888 472,357.5C 472.667,339.833 472.667,322.167 472,304.5C 470.721,288.721 462.221,280.055 446.5,278.5C 437.037,279.485 428.537,282.818 421,288.5C 421.239,312.816 421.573,337.149 422,361.5C 427.013,365.716 432.846,367.716 439.5,367.5C 439.577,371.215 439.244,374.881 438.5,378.5C 418.598,377.532 398.765,377.199 379,377.5C 378.259,374.438 378.425,371.438 379.5,368.5C 384.18,367.397 388.847,366.23 393.5,365C 395.768,363.442 396.934,361.276 397,358.5C 397.667,339.167 397.667,319.833 397,300.5C 390.878,278.776 377.378,272.609 356.5,282C 352.56,283.886 349.06,286.386 346,289.5C 344.027,313.501 344.027,337.501 346,361.5C 346.833,363 348,364.167 349.5,365C 354.031,366.171 358.531,367.338 363,368.5C 363.388,371.849 363.221,375.183 362.5,378.5C 342.5,377.167 322.5,377.167 302.5,378.5C 302.335,375.15 302.502,371.817 303,368.5C 308.254,367.381 313.421,365.881 318.5,364C 319.717,362.352 320.55,360.519 321,358.5C 322.418,334.488 322.418,310.488 321,286.5C 315.252,281.876 308.752,278.71 301.5,277C 300.424,275.274 300.257,273.441 301,271.5C 312.142,268.802 323.308,265.969 334.5,263C 337.476,262.295 340.142,261.129 342.5,259.5 Z"/></g>
<g><path style="opacity:0.954" fill="#474747" d="M 591.5,259.5 C 624.575,258.266 645.075,273.599 653,305.5C 657.362,350.97 636.862,376.303 591.5,381.5C 553.538,378.702 534.205,358.202 533.5,320C 533.875,293.574 546.208,275.241 570.5,265C 577.509,262.666 584.509,260.833 591.5,259.5 Z M 584.5,272.5 C 599.726,272.256 611.226,278.59 619,291.5C 628.211,310.496 629.878,330.163 624,350.5C 616.812,365.837 604.978,371.003 588.5,366C 572.667,358.54 563.5,346.04 561,328.5C 558.519,315.64 559.186,302.974 563,290.5C 567.322,281.005 574.488,275.005 584.5,272.5 Z"/></g>
<g><path style="opacity:0.95" fill="#474747" d="M 892.5,259.5 C 905.369,259.3 917.702,261.8 929.5,267C 936.842,268.95 944.176,268.95 951.5,267C 954.579,265.752 957.246,263.919 959.5,261.5C 963.301,279.535 955.968,287.035 937.5,284C 943.856,314.28 932.189,333.947 902.5,343C 896.484,343.927 890.484,344.927 884.5,346C 878.748,349.181 878.081,353.181 882.5,358C 884.087,358.862 885.754,359.529 887.5,360C 901.518,361.144 915.518,362.477 929.5,364C 951.763,367.353 961.263,380.186 958,402.5C 955.835,411.165 951.835,418.831 946,425.5C 921.569,448.254 893.402,454.421 861.5,444C 845.948,436.725 838.782,424.558 840,407.5C 840.806,404.554 842.139,401.888 844,399.5C 851.713,392.947 859.546,386.614 867.5,380.5C 859.442,377.276 853.942,371.609 851,363.5C 850.333,361.833 850.333,360.167 851,358.5C 858.268,354.387 865.101,349.72 871.5,344.5C 849.628,335.432 840.794,319.099 845,295.5C 848.963,280.203 858.463,270.036 873.5,265C 879.828,262.673 886.162,260.84 892.5,259.5 Z M 885.5,271.5 C 901.242,270.951 911.075,278.284 915,293.5C 917.475,304.32 916.141,314.653 911,324.5C 903.256,332.834 894.089,334.667 883.5,330C 872.617,322.234 867.284,311.567 867.5,298C 867.505,284.756 873.505,275.922 885.5,271.5 Z M 882.5,383.5 C 892.208,383.256 901.874,383.756 911.5,385C 920.368,385.685 927.868,389.185 934,395.5C 940.09,408.963 936.924,419.796 924.5,428C 909.786,434.511 894.786,435.178 879.5,430C 868.006,425.204 862.173,416.704 862,404.5C 865.651,394.35 872.484,387.35 882.5,383.5 Z"/></g>
<g><path style="opacity:0.952" fill="#474747" d="M 1036.5,259.5 C 1076.21,258.999 1097.21,278.499 1099.5,318C 1097.32,357.019 1076.65,378.186 1037.5,381.5C 998.908,379.053 979.241,358.386 978.5,319.5C 979.648,292.189 992.982,273.689 1018.5,264C 1024.55,262.153 1030.55,260.653 1036.5,259.5 Z M 1029.5,272.5 C 1052.38,273.867 1066.21,285.867 1071,308.5C 1074.94,325.431 1073.27,341.764 1066,357.5C 1058.41,366.251 1048.91,369.418 1037.5,367C 1027.77,364.552 1020.27,359.052 1015,350.5C 1004.87,331.734 1002.54,312.068 1008,291.5C 1011.97,281.35 1019.14,275.016 1029.5,272.5 Z"/></g>
<g><path style="opacity:0.99" fill="#3f9444" d="M 243.5,288.5 C 232.533,329.42 210.2,362.42 176.5,387.5C 174.589,386.925 172.922,385.925 171.5,384.5C 169.559,380.952 167.893,377.286 166.5,373.5C 164.686,365.947 163.519,358.28 163,350.5C 162.617,349.944 162.117,349.611 161.5,349.5C 162.784,335.524 163.784,321.524 164.5,307.5C 165.468,305.393 165.802,303.059 165.5,300.5C 191.5,296.5 217.5,292.5 243.5,288.5 Z"/></g>
<g><path style="opacity:0.974" fill="#a6a887" d="M 161.5,349.5 C 162.117,349.611 162.617,349.944 163,350.5C 163.519,358.28 164.686,365.947 166.5,373.5C 165.883,373.611 165.383,373.944 165,374.5C 162.432,382.712 159.598,390.712 156.5,398.5C 155.129,396.064 154.129,393.397 153.5,390.5C 155.48,389.152 156.647,387.152 157,384.5C 157.455,381.146 157.955,377.813 158.5,374.5C 160.234,366.391 161.234,358.058 161.5,349.5 Z"/></g>
<g><path style="opacity:0.966" fill="#b3b296" d="M 166.5,373.5 C 167.893,377.286 169.559,380.952 171.5,384.5C 170.13,384.856 169.13,385.69 168.5,387C 165.794,396.215 162.46,405.049 158.5,413.5C 157.725,408.516 157.058,403.516 156.5,398.5C 159.598,390.712 162.432,382.712 165,374.5C 165.383,373.944 165.883,373.611 166.5,373.5 Z"/></g>
<g><path style="opacity:0.758" fill="#c7c5af" d="M 171.5,384.5 C 172.922,385.925 174.589,386.925 176.5,387.5C 172.379,394.189 170.379,401.522 170.5,409.5C 166.599,417.856 163.266,426.523 160.5,435.5C 159.689,428.322 159.022,420.988 158.5,413.5C 162.46,405.049 165.794,396.215 168.5,387C 169.13,385.69 170.13,384.856 171.5,384.5 Z"/></g>
<g><path style="opacity:1" fill="#d9d7c5" d="M 170.5,409.5 C 170.385,419.584 170.552,429.584 171,439.5C 167.382,438.231 163.882,436.898 160.5,435.5C 163.266,426.523 166.599,417.856 170.5,409.5 Z"/></g>
</svg>
