<?xml version="1.0" encoding="UTF-8"?>
<!DOCTYPE svg PUBLIC "-//W3C//DTD SVG 1.1//EN" "http://www.w3.org/Graphics/SVG/1.1/DTD/svg11.dtd">
<svg xmlns="http://www.w3.org/2000/svg" version="1.1" width="3000px" height="1811px" style="shape-rendering:geometricPrecision; text-rendering:geometricPrecision; image-rendering:optimizeQuality; fill-rule:evenodd; clip-rule:evenodd" xmlns:xlink="http://www.w3.org/1999/xlink">
<g><path style="opacity:0.968" fill="#000000" d="M 2292.5,-0.5 C 2292.83,-0.5 2293.17,-0.5 2293.5,-0.5C 2091.1,293.949 1888.43,588.283 1685.5,882.5C 1789.83,1027.17 1894.17,1171.83 1998.5,1316.5C 1977.17,1317.83 1955.83,1317.83 1934.5,1316.5C 1839.83,1185.5 1745.17,1054.5 1650.5,923.5C 1555.01,1054.5 1459.67,1185.67 1364.5,1317C 1343.83,1317.83 1323.16,1317.67 1302.5,1316.5C 1407.5,1171.83 1512.5,1027.17 1617.5,882.5C 1519.5,745.833 1421.5,609.167 1323.5,472.5C 1343.83,471.334 1364.16,471.167 1384.5,472C 1473,595.33 1561.67,718.496 1650.5,841.5C 1741.55,718.612 1832.05,595.278 1922,471.5C 2045.75,314.318 2169.25,156.985 2292.5,-0.5 Z"/></g>
<g><path style="opacity:0.973" fill="#000000" d="M -0.5,471.5 C 21.5101,471.167 43.5101,471.5 65.5,472.5C 331.333,870.167 597.167,1267.83 863,1665.5C 895.351,1713.55 927.184,1761.88 958.5,1810.5C 958.167,1810.5 957.833,1810.5 957.5,1810.5C 834.829,1645.84 711.662,1481.51 588,1317.5C 410.724,1057.89 233.057,798.559 55,539.5C 53.5521,798.832 52.3854,1058.17 51.5,1317.5C 34.1667,1317.5 16.8333,1317.5 -0.5,1317.5C -0.5,1035.5 -0.5,753.5 -0.5,471.5 Z"/></g>
<g><path style="opacity:0.977" fill="#000000" d="M 706.5,471.5 C 895.5,471.5 1084.5,471.5 1273.5,471.5C 1273.5,486.833 1273.5,502.167 1273.5,517.5C 1102.17,517.5 930.833,517.5 759.5,517.5C 759.5,630.167 759.5,742.833 759.5,855.5C 920.833,855.5 1082.17,855.5 1243.5,855.5C 1243.5,870.833 1243.5,886.167 1243.5,901.5C 1082.17,901.5 920.833,901.5 759.5,901.5C 759.5,1024.83 759.5,1148.17 759.5,1271.5C 932.833,1271.5 1106.17,1271.5 1279.5,1271.5C 1279.5,1286.83 1279.5,1302.17 1279.5,1317.5C 1088.5,1317.5 897.5,1317.5 706.5,1317.5C 706.5,1035.5 706.5,753.5 706.5,471.5 Z"/></g>
<g><path style="opacity:0.978" fill="#000000" d="M 2020.5,471.5 C 2235.5,471.5 2450.5,471.5 2665.5,471.5C 2665.5,486.833 2665.5,502.167 2665.5,517.5C 2566.5,517.5 2467.5,517.5 2368.5,517.5C 2368.5,784.167 2368.5,1050.83 2368.5,1317.5C 2350.83,1317.5 2333.17,1317.5 2315.5,1317.5C 2315.5,1050.83 2315.5,784.167 2315.5,517.5C 2217.17,517.5 2118.83,517.5 2020.5,517.5C 2020.5,502.167 2020.5,486.833 2020.5,471.5 Z"/></g>
<g><path style="opacity:0.954" fill="#000000" d="M 2999.5,1192.5 C 2999.5,1200.17 2999.5,1207.83 2999.5,1215.5C 2992.21,1241.7 2974.87,1256.53 2947.5,1260C 2923.08,1264.27 2900.41,1259.93 2879.5,1247C 2866.56,1236.62 2859.89,1223.12 2859.5,1206.5C 2869.17,1206.5 2878.83,1206.5 2888.5,1206.5C 2891.53,1220.7 2900.2,1229.53 2914.5,1233C 2931.81,1237.77 2947.81,1235.1 2962.5,1225C 2974.43,1210.77 2972.76,1198.44 2957.5,1188C 2953.5,1186.33 2949.5,1184.67 2945.5,1183C 2929.04,1179.14 2912.71,1174.8 2896.5,1170C 2869.77,1158.38 2859.6,1138.21 2866,1109.5C 2872.24,1090.93 2884.74,1078.76 2903.5,1073C 2927.46,1066.45 2950.46,1068.79 2972.5,1080C 2987.08,1089.99 2995.42,1103.82 2997.5,1121.5C 2987.86,1122.5 2978.19,1122.83 2968.5,1122.5C 2965.08,1106.92 2955.41,1098.08 2939.5,1096C 2923.37,1093.01 2909.54,1097.18 2898,1108.5C 2889.96,1125.26 2894.79,1136.76 2912.5,1143C 2927.37,1147.47 2942.37,1151.47 2957.5,1155C 2972.45,1158.71 2984.61,1166.54 2994,1178.5C 2996.16,1183.16 2997.99,1187.83 2999.5,1192.5 Z"/></g>
<g><path style="opacity:0.961" fill="#000000" d="M 2794.5,1073.5 C 2804.17,1073.5 2813.83,1073.5 2823.5,1073.5C 2823.67,1119.5 2823.5,1165.5 2823,1211.5C 2820.95,1237.88 2807.11,1254.05 2781.5,1260C 2761.32,1264.03 2742.98,1260.03 2726.5,1248C 2715.51,1237.18 2710.18,1224.01 2710.5,1208.5C 2720.17,1208.5 2729.83,1208.5 2739.5,1208.5C 2740.11,1221.61 2746.77,1229.77 2759.5,1233C 2780.32,1236.17 2791.82,1227.33 2794,1206.5C 2794.5,1162.17 2794.67,1117.83 2794.5,1073.5 Z"/></g>
<g><path style="opacity:0.935" fill="#000000" d="M 2654.5,1220.5 C 2673.47,1219.77 2681.3,1228.77 2678,1247.5C 2671.68,1258.64 2662.52,1261.81 2650.5,1257C 2641.51,1250.17 2639.01,1241.34 2643,1230.5C 2645.79,1225.87 2649.63,1222.53 2654.5,1220.5 Z"/></g>
</svg>
