<?xml version="1.0" encoding="UTF-8"?>
<!DOCTYPE svg PUBLIC "-//W3C//DTD SVG 1.1//EN" "http://www.w3.org/Graphics/SVG/1.1/DTD/svg11.dtd">
<svg xmlns="http://www.w3.org/2000/svg" version="1.1" width="2214px" height="1122px" style="shape-rendering:geometricPrecision; text-rendering:geometricPrecision; image-rendering:optimizeQuality; fill-rule:evenodd; clip-rule:evenodd" xmlns:xlink="http://www.w3.org/1999/xlink">
<g><path style="opacity:0.996" fill="#2e568e" d="M 1039.5,-0.5 C 1084.17,-0.5 1128.83,-0.5 1173.5,-0.5C 1328.92,4.05483 1481.92,26.2215 1632.5,66C 1746.64,96.2568 1854.64,140.923 1956.5,200C 2018.87,236.815 2074.37,282.315 2123,336.5C 2160,378.476 2186.67,426.476 2203,480.5C 2207.88,498.717 2211.38,517.05 2213.5,535.5C 2213.5,552.167 2213.5,568.833 2213.5,585.5C 2207.54,640.198 2189.38,690.531 2159,736.5C 2120.96,792.208 2074.46,839.708 2019.5,879C 1933.07,940.05 1839.41,987.717 1738.5,1022C 1590.48,1072.34 1438.48,1103.34 1282.5,1115C 1246.04,1117.77 1209.71,1119.93 1173.5,1121.5C 1128.83,1121.5 1084.17,1121.5 1039.5,1121.5C 871.74,1116.75 707.073,1091.25 545.5,1045C 443.941,1015.49 347.608,974.159 256.5,921C 194.131,884.185 138.631,838.685 90,784.5C 53,742.524 26.3333,694.524 10,640.5C 5.12175,622.282 1.62175,603.949 -0.5,585.5C -0.5,568.833 -0.5,552.167 -0.5,535.5C 5.45592,480.802 23.6226,430.469 54,384.5C 92.0405,328.792 138.541,281.292 193.5,242C 280.813,180.341 375.48,132.341 477.5,98C 624.586,48.2493 775.586,17.5826 930.5,6C 966.958,3.25749 1003.29,1.09082 1039.5,-0.5 Z M 974.5,131.5 C 1017.84,131.167 1061.17,131.5 1104.5,132.5C 1093.52,186.047 1083.19,239.714 1073.5,293.5C 1123.17,293.333 1172.83,293.5 1222.5,294C 1249.48,295.107 1275.81,299.774 1301.5,308C 1349.49,325.356 1373.15,359.689 1372.5,411C 1372.19,418.18 1371.69,425.347 1371,432.5C 1352.31,533.616 1332.98,634.616 1313,735.5C 1291.05,736.828 1268.88,737.495 1246.5,737.5C 1224.5,737.167 1202.5,736.833 1180.5,736.5C 1198.19,646.884 1215.69,557.218 1233,467.5C 1235.78,452.546 1236.12,437.546 1234,422.5C 1231.5,410.669 1224.67,402.502 1213.5,398C 1197.32,392.394 1180.66,389.727 1163.5,390C 1126.93,389.171 1090.43,389.337 1054,390.5C 1031.69,505.884 1009.19,621.218 986.5,736.5C 943.167,737.833 899.833,737.833 856.5,736.5C 895.834,534.828 935.168,333.161 974.5,131.5 Z M 423.5,293.5 C 517.167,293.333 610.834,293.5 704.5,294C 736.252,295.616 766.585,302.949 795.5,316C 851.072,345.595 879.905,392.095 882,455.5C 882.523,563.807 837.356,646.641 746.5,704C 720.534,718.322 692.867,727.655 663.5,732C 647.594,734.567 631.594,736.234 615.5,737C 566.497,737.167 517.497,737.667 468.5,738.5C 457.892,792.039 447.226,845.539 436.5,899C 392.833,899.667 349.167,899.667 305.5,899C 345.099,697.246 384.432,495.412 423.5,293.5 Z M 1456.5,293.5 C 1550.17,293.333 1643.83,293.5 1737.5,294C 1774.92,295.77 1809.92,305.77 1842.5,324C 1886.18,352.498 1910.02,392.998 1914,445.5C 1918.73,547.842 1880.57,629.675 1799.5,691C 1766.42,714.032 1729.75,728.032 1689.5,733C 1675.89,734.928 1662.22,736.261 1648.5,737C 1599.17,737.5 1549.83,737.667 1500.5,737.5C 1490.42,791.548 1480.09,845.548 1469.5,899.5C 1425.83,899.5 1382.17,899.5 1338.5,899.5C 1377.45,697.397 1416.79,495.397 1456.5,293.5 Z"/></g>
<g><path style="opacity:0.992" fill="#2e568e" d="M 536.5,387.5 C 570.168,387.333 603.835,387.5 637.5,388C 660.121,388.041 682.121,391.707 703.5,399C 727.8,409.084 741.3,427.251 744,453.5C 746.303,491.654 739.969,528.321 725,563.5C 709.877,598.624 684.044,621.79 647.5,633C 623.968,639.608 599.968,642.942 575.5,643C 545.828,643.833 516.161,643.667 486.5,642.5C 503.275,557.515 519.942,472.515 536.5,387.5 Z"/></g>
<g><path style="opacity:0.991" fill="#2e568e" d="M 1568.5,387.5 C 1608.51,387.126 1648.51,387.626 1688.5,389C 1708.88,390.074 1728.21,395.074 1746.5,404C 1762.01,413.161 1771.51,426.661 1775,444.5C 1780.83,495.189 1770.83,542.523 1745,586.5C 1727.97,610.502 1705.14,626.335 1676.5,634C 1654.22,639.897 1631.56,642.897 1608.5,643C 1578.84,643.5 1549.17,643.667 1519.5,643.5C 1535.83,558.165 1552.17,472.832 1568.5,387.5 Z"/></g>
</svg>
