<?xml version="1.0" encoding="UTF-8"?>
<!DOCTYPE svg PUBLIC "-//W3C//DTD SVG 1.1//EN" "http://www.w3.org/Graphics/SVG/1.1/DTD/svg11.dtd">
<svg xmlns="http://www.w3.org/2000/svg" version="1.1" width="1439px" height="810px" style="shape-rendering:geometricPrecision; text-rendering:geometricPrecision; image-rendering:optimizeQuality; fill-rule:evenodd; clip-rule:evenodd" xmlns:xlink="http://www.w3.org/1999/xlink">
<g><path style="opacity:0.929" fill="#030303" d="M 786.5,23.5 C 822.422,21.816 856.422,28.9827 888.5,45C 909.907,57.7399 927.407,74.5732 941,95.5C 945.236,113.252 946.57,131.252 945,149.5C 944.216,160.241 942.883,170.907 941,181.5C 927.991,242.312 905.491,299.146 873.5,352C 880.433,353.506 887.433,353.839 894.5,353C 906.26,351.748 917.926,349.915 929.5,347.5C 942.131,348.63 948.798,355.464 949.5,368C 945.642,389.183 934.642,405.517 916.5,417C 902.374,424.193 887.374,428.526 871.5,430C 865.814,430.311 860.147,430.811 854.5,431.5C 848.467,430.927 842.467,430.26 836.5,429.5C 835.914,429.709 835.414,430.043 835,430.5C 831.357,463.667 826.69,496.667 821,529.5C 815.942,549.876 804.442,565.376 786.5,576C 764.444,587.015 741.11,592.015 716.5,591C 690.678,588.015 672.178,574.848 661,551.5C 657.694,537.999 655.361,524.333 654,510.5C 652.37,488.507 650.87,466.507 649.5,444.5C 643.777,448.348 637.444,450.515 630.5,451C 609.742,452.262 589.409,449.929 569.5,444C 562.787,441.897 556.954,438.397 552,433.5C 532.588,451.526 512.755,452.026 492.5,435C 478.573,420.739 467.406,404.573 459,386.5C 430.971,321.037 411.638,253.037 401,182.5C 398.098,152.614 401.764,123.614 412,95.5C 425.596,65.2407 448.43,45.7407 480.5,37C 512.462,29.8689 544.462,29.8689 576.5,37C 589.051,39.9612 601.551,43.1279 614,46.5C 638.11,33.2878 663.944,28.1211 691.5,31C 702.858,31.1489 714.025,32.6489 725,35.5C 745.202,29.2756 765.702,25.2756 786.5,23.5 Z"/></g>
<g><path style="opacity:1" fill="#b4b4b4" d="M 811.5,42.5 C 797.484,42.349 783.484,42.6823 769.5,43.5C 777.441,41.9649 785.608,41.2983 794,41.5C 800.01,41.5005 805.843,41.8338 811.5,42.5 Z"/></g>
<g><path style="opacity:0.998" fill="#f9fafb" d="M 811.5,42.5 C 847.388,44.623 878.722,57.4563 905.5,81C 909.299,85.8006 913.466,90.3006 918,94.5C 925.373,104.951 929.373,116.618 930,129.5C 930.386,149.402 928.553,169.069 924.5,188.5C 923.215,191.589 922.549,194.922 922.5,198.5C 921.082,206.662 919.082,214.662 916.5,222.5C 914.057,227.5 912.39,232.834 911.5,238.5C 897.06,281.312 877.727,321.812 853.5,360C 854.751,362.303 856.751,363.636 859.5,364C 863.598,365.006 867.764,365.506 872,365.5C 882.561,365.023 893.061,364.023 903.5,362.5C 910.153,361.946 916.82,361.612 923.5,361.5C 931.269,364.031 934.103,369.365 932,377.5C 926.115,387.718 917.949,395.551 907.5,401C 882.181,414.297 855.348,418.797 827,414.5C 823.078,415.102 821.578,417.435 822.5,421.5C 820.564,430.257 819.564,439.257 819.5,448.5C 817.783,451.845 817.116,455.511 817.5,459.5C 815.02,478.525 812.354,497.525 809.5,516.5C 808.076,518.515 807.41,520.848 807.5,523.5C 802.23,543.277 790.23,557.444 771.5,566C 763.785,569.429 755.785,571.929 747.5,573.5C 744.455,573.508 741.455,573.841 738.5,574.5C 728.719,574.95 719.052,574.284 709.5,572.5C 697.223,568.401 687.723,560.735 681,549.5C 672.772,532.807 668.606,515.14 668.5,496.5C 668.238,482.325 667.572,468.325 666.5,454.5C 666.5,452.5 666.5,450.5 666.5,448.5C 666.832,439.143 666.498,429.81 665.5,420.5C 664.893,420.624 664.56,420.957 664.5,421.5C 641.863,438.275 616.863,442.775 589.5,435C 582.389,433.183 576.222,429.683 571,424.5C 564.669,416.833 565.169,409.667 572.5,403C 575.608,400.894 578.941,399.228 582.5,398C 593.769,395.956 604.769,392.956 615.5,389C 620.961,384.891 625.628,380.057 629.5,374.5C 630.404,373.791 630.737,372.791 630.5,371.5C 627.167,371.5 623.833,371.5 620.5,371.5C 618.485,370.076 616.152,369.41 613.5,369.5C 608.666,368.054 604,366.554 599.5,365C 584.588,380.574 570.422,396.741 557,413.5C 539.759,433.628 520.592,435.795 499.5,420C 492.49,412.802 486.323,404.969 481,396.5C 463.613,363.721 450.113,329.388 440.5,293.5C 440.59,290.848 439.924,288.515 438.5,286.5C 434.979,272.753 431.646,259.086 428.5,245.5C 428.58,242.219 427.913,239.219 426.5,236.5C 423.191,220.261 420.358,203.928 418,187.5C 414.706,159.649 418.039,132.649 428,106.5C 441.802,75.2053 465.636,56.872 499.5,51.5C 504.122,51.8439 508.455,51.1773 512.5,49.5C 516.653,48.8343 520.987,48.5009 525.5,48.5C 536.495,49.2771 547.495,49.9437 558.5,50.5C 560.838,52.0395 563.505,52.7062 566.5,52.5C 579.684,54.7126 592.684,57.7126 605.5,61.5C 607.515,62.9238 609.848,63.5905 612.5,63.5C 615.314,65.096 618.314,65.596 621.5,65C 641.598,52.0686 663.598,46.2353 687.5,47.5C 697.718,48.5548 708.052,49.5548 718.5,50.5C 724.978,53.3369 731.312,53.0036 737.5,49.5C 747.906,46.2333 758.572,44.2333 769.5,43.5C 783.484,42.6823 797.484,42.349 811.5,42.5 Z"/></g>
<g><path style="opacity:0.961" fill="#a8a8a8" d="M 512.5,49.5 C 508.455,51.1773 504.122,51.8439 499.5,51.5C 503.567,49.9462 507.9,49.2796 512.5,49.5 Z"/></g>
<g><path style="opacity:1" fill="#717171" d="M 558.5,50.5 C 561.428,50.5651 564.095,51.2318 566.5,52.5C 563.505,52.7062 560.838,52.0395 558.5,50.5 Z"/></g>
<g><path style="opacity:1" fill="#9b9b9b" d="M 737.5,49.5 C 731.312,53.0036 724.978,53.3369 718.5,50.5C 721.35,50.6361 724.183,50.9695 727,51.5C 730.489,50.7243 733.989,50.0577 737.5,49.5 Z"/></g>
<g><path style="opacity:1" fill="#326192" d="M 913.5,129.5 C 913.627,140.852 913.294,152.185 912.5,163.5C 901.7,228.752 878.367,289.085 842.5,344.5C 841.28,344.113 840.613,343.28 840.5,342C 850.724,322.724 854.557,302.224 852,280.5C 848.822,261.617 847.822,242.617 849,223.5C 851.231,215.316 852.398,206.983 852.5,198.5C 853.656,190.677 853.823,182.677 853,174.5C 852.434,172.277 851.6,170.277 850.5,168.5C 832.954,120.615 801.287,85.2816 755.5,62.5C 762.61,60.1245 769.944,58.6245 777.5,58C 805.485,55.666 832.485,59.666 858.5,70C 879.556,79.3836 896.723,93.5503 910,112.5C 911.953,118.006 913.12,123.672 913.5,129.5 Z"/></g>
<g><path style="opacity:1" fill="#5a5a5a" d="M 605.5,61.5 C 608.152,61.4095 610.485,62.0762 612.5,63.5C 609.848,63.5905 607.515,62.9238 605.5,61.5 Z"/></g>
<g><path style="opacity:1" fill="#6387ac" d="M 699.5,64.5 C 687.817,64.3981 676.15,64.7314 664.5,65.5C 671.27,63.9993 678.27,63.3326 685.5,63.5C 690.346,63.5008 695.012,63.8341 699.5,64.5 Z"/></g>
<g><path style="opacity:1" fill="#6f90b2" d="M 539.5,65.5 C 528.482,65.3808 517.482,65.7141 506.5,66.5C 512.936,65.0126 519.602,64.3459 526.5,64.5C 531.013,64.5009 535.347,64.8343 539.5,65.5 Z"/></g>
<g><path style="opacity:1" fill="#316192" d="M 699.5,64.5 C 743.351,69.0085 779.185,88.3418 807,122.5C 818.823,137.809 828.323,154.476 835.5,172.5C 827.231,172.552 818.897,172.719 810.5,173C 778.692,178.121 765.025,196.621 769.5,228.5C 769.734,234.545 771.067,240.212 773.5,245.5C 778.115,258.729 783.282,271.729 789,284.5C 798.24,301.31 807.24,318.31 816,335.5C 820.264,343.028 825.264,350.028 831,356.5C 831.483,357.448 831.649,358.448 831.5,359.5C 820.298,362.2 813.131,369.2 810,380.5C 807.225,410.528 804.058,440.528 800.5,470.5C 798.206,481.612 796.539,492.945 795.5,504.5C 794.085,520.935 787.419,534.768 775.5,546C 757.571,556.649 738.238,560.982 717.5,559C 707.256,555.425 699.423,548.925 694,539.5C 691.471,533.579 689.137,527.579 687,521.5C 684.825,506.911 683.492,492.244 683,477.5C 682.667,446.5 682.333,415.5 682,384.5C 677.236,367.567 666.069,359.234 648.5,359.5C 652.247,343.097 658.08,327.43 666,312.5C 678.538,274.573 678.538,236.573 666,198.5C 659.249,186.422 649.083,178.922 635.5,176C 614.992,174.752 595.825,179.252 578,189.5C 578.612,155.997 588.612,125.663 608,98.5C 621.149,82.0311 637.983,71.1977 658.5,66C 660.473,65.5045 662.473,65.3379 664.5,65.5C 676.15,64.7314 687.817,64.3981 699.5,64.5 Z"/></g>
<g><path style="opacity:1" fill="#316192" d="M 539.5,65.5 C 561.828,66.8989 583.495,71.2323 604.5,78.5C 577.669,109.289 563.336,145.289 561.5,186.5C 560.719,209.666 560.719,232.999 561.5,256.5C 560.728,260.452 560.395,264.452 560.5,268.5C 558.999,275.27 558.333,282.27 558.5,289.5C 558.284,296.08 558.951,302.413 560.5,308.5C 563.859,326.719 572.525,341.886 586.5,354C 570.167,372.333 553.833,390.667 537.5,409C 531.118,414.838 524.118,415.838 516.5,412C 506.709,404.928 498.875,396.095 493,385.5C 488.333,376.167 483.667,366.833 479,357.5C 474.926,346.444 470.76,335.444 466.5,324.5C 464.943,316.832 462.609,309.499 459.5,302.5C 449.121,266.32 440.955,229.653 435,192.5C 431.131,165.904 433.464,139.904 442,114.5C 454.792,86.8843 476.292,70.8843 506.5,66.5C 517.482,65.7141 528.482,65.3808 539.5,65.5 Z"/></g>
<g><path style="opacity:1" fill="#c2d0df" d="M 913.5,129.5 C 914.166,133.82 914.499,138.32 914.5,143C 914.661,150.064 913.994,156.897 912.5,163.5C 913.294,152.185 913.627,140.852 913.5,129.5 Z"/></g>
<g><path style="opacity:1" fill="#aec0d4" d="M 850.5,168.5 C 851.6,170.277 852.434,172.277 853,174.5C 853.823,182.677 853.656,190.677 852.5,198.5C 852.96,188.386 852.293,178.386 850.5,168.5 Z"/></g>
<g><path style="opacity:1" fill="#346293" d="M 834.5,216.5 C 832.956,223.599 832.29,230.932 832.5,238.5C 832.501,244.011 832.834,249.344 833.5,254.5C 833.673,264.55 834.506,274.55 836,284.5C 836.667,291.833 836.667,299.167 836,306.5C 834.49,312.872 832.824,319.205 831,325.5C 830.586,325.957 830.086,326.291 829.5,326.5C 818.401,305.969 807.568,285.302 797,264.5C 794.007,255.843 791.007,247.176 788,238.5C 784.929,228.701 783.929,218.701 785,208.5C 789.612,195.763 798.778,189.263 812.5,189C 820.849,188.427 829.182,188.593 837.5,189.5C 836.428,198.486 835.428,207.486 834.5,216.5 Z"/></g>
<g><path style="opacity:1" fill="#949494" d="M 924.5,188.5 C 924.678,192.122 924.011,195.456 922.5,198.5C 922.549,194.922 923.215,191.589 924.5,188.5 Z"/></g>
<g><path style="opacity:1" fill="#326192" d="M 619.5,191.5 C 627.997,190.508 635.997,192.008 643.5,196C 649.984,200.796 653.484,207.296 654,215.5C 664.479,255.25 660.145,293.25 641,329.5C 637.782,337.983 635.282,346.65 633.5,355.5C 607.168,354.224 589.001,341.224 579,316.5C 577.039,311.323 575.706,305.99 575,300.5C 576.897,269.819 577.73,239.152 577.5,208.5C 590.248,199.45 604.248,193.783 619.5,191.5 Z"/></g>
<g><path style="opacity:1" fill="#f8f9fb" d="M 804.5,196.5 C 809.959,196.103 815.292,196.603 820.5,198C 822.787,200.243 822.953,202.743 821,205.5C 813.266,214.277 805.266,214.61 797,206.5C 796.333,204.833 796.333,203.167 797,201.5C 799.479,199.686 801.979,198.019 804.5,196.5 Z"/></g>
<g><path style="opacity:1" fill="#f9fafb" d="M 621.5,200.5 C 629.995,199.326 637.828,200.992 645,205.5C 646.929,209.851 645.762,213.351 641.5,216C 629.176,222 621.176,218.5 617.5,205.5C 618.127,203.213 619.46,201.546 621.5,200.5 Z"/></g>
<g><path style="opacity:1" fill="#5f5f5f" d="M 916.5,222.5 C 915.61,228.166 913.943,233.5 911.5,238.5C 912.39,232.834 914.057,227.5 916.5,222.5 Z"/></g>
<g><path style="opacity:1" fill="#c4d1df" d="M 561.5,186.5 C 562.176,210.002 562.176,233.336 561.5,256.5C 560.719,232.999 560.719,209.666 561.5,186.5 Z"/></g>
<g><path style="opacity:1" fill="#c3d1df" d="M 834.5,216.5 C 833.707,229.15 833.374,241.817 833.5,254.5C 832.834,249.344 832.501,244.011 832.5,238.5C 832.29,230.932 832.956,223.599 834.5,216.5 Z"/></g>
<g><path style="opacity:1" fill="#85a0be" d="M 769.5,228.5 C 771.196,233.963 772.529,239.629 773.5,245.5C 771.067,240.212 769.734,234.545 769.5,228.5 Z"/></g>
<g><path style="opacity:1" fill="#626262" d="M 426.5,236.5 C 427.913,239.219 428.58,242.219 428.5,245.5C 427.087,242.781 426.42,239.781 426.5,236.5 Z"/></g>
<g><path style="opacity:1" fill="#adbfd3" d="M 560.5,268.5 C 559.218,281.837 559.218,295.171 560.5,308.5C 558.951,302.413 558.284,296.08 558.5,289.5C 558.333,282.27 558.999,275.27 560.5,268.5 Z"/></g>
<g><path style="opacity:1" fill="#595959" d="M 438.5,286.5 C 439.924,288.515 440.59,290.848 440.5,293.5C 439.076,291.485 438.41,289.152 438.5,286.5 Z"/></g>
<g><path style="opacity:1" fill="#bbcada" d="M 459.5,302.5 C 462.609,309.499 464.943,316.832 466.5,324.5C 463.391,317.501 461.057,310.168 459.5,302.5 Z"/></g>
<g><path style="opacity:1" fill="#aeaeae" d="M 923.5,361.5 C 916.82,361.612 910.153,361.946 903.5,362.5C 907.406,361.06 911.573,360.394 916,360.5C 918.69,360.503 921.19,360.836 923.5,361.5 Z"/></g>
<g><path style="opacity:1" fill="#898989" d="M 613.5,369.5 C 616.152,369.41 618.485,370.076 620.5,371.5C 617.848,371.59 615.515,370.924 613.5,369.5 Z"/></g>
<g><path style="opacity:1" fill="#838383" d="M 620.5,371.5 C 623.833,371.5 627.167,371.5 630.5,371.5C 630.737,372.791 630.404,373.791 629.5,374.5C 626.797,372.89 623.797,371.89 620.5,371.5 Z"/></g>
<g><path style="opacity:1" fill="#366494" d="M 838.5,372.5 C 845.643,376.39 853.31,379.223 861.5,381C 869.5,381.667 877.5,381.667 885.5,381C 893.871,379.848 902.204,378.848 910.5,378C 895.536,390.659 878.203,397.659 858.5,399C 850.5,399.667 842.5,399.667 834.5,399C 831.204,398.543 828.037,397.709 825,396.5C 822.541,384.405 827.041,376.405 838.5,372.5 Z"/></g>
<g><path style="opacity:1" fill="#366494" d="M 633.5,419.5 C 622.551,421.595 611.551,421.928 600.5,420.5C 594.636,420.157 589.303,418.323 584.5,415C 584.833,414.667 585.167,414.333 585.5,414C 595.777,411.13 606.111,408.463 616.5,406C 625.069,402.444 632.235,396.944 638,389.5C 641.714,383.119 646.714,378.119 653,374.5C 663.854,377.543 668.02,384.543 665.5,395.5C 657.571,407.433 646.904,415.433 633.5,419.5 Z"/></g>
<g><path style="opacity:1" fill="#bbcadb" d="M 633.5,419.5 C 632.737,420.268 631.737,420.768 630.5,421C 625.039,421.919 619.539,422.419 614,422.5C 609.228,422.692 604.728,422.025 600.5,420.5C 611.551,421.928 622.551,421.595 633.5,419.5 Z"/></g>
<g><path style="opacity:1" fill="#5a5a5a" d="M 664.5,421.5 C 664.56,420.957 664.893,420.624 665.5,420.5C 666.498,429.81 666.832,439.143 666.5,448.5C 665.833,439.5 665.167,430.5 664.5,421.5 Z"/></g>
<g><path style="opacity:1" fill="#565656" d="M 822.5,421.5 C 822.143,430.712 821.143,439.712 819.5,448.5C 819.564,439.257 820.564,430.257 822.5,421.5 Z"/></g>
<g><path style="opacity:1" fill="#8f8f8f" d="M 819.5,448.5 C 819.354,452.387 818.687,456.054 817.5,459.5C 817.116,455.511 817.783,451.845 819.5,448.5 Z"/></g>
<g><path style="opacity:1" fill="#a2a2a2" d="M 666.5,454.5 C 667.572,468.325 668.238,482.325 668.5,496.5C 666.839,482.702 666.172,468.702 666.5,454.5 Z"/></g>
<g><path style="opacity:1" fill="#aebfd3" d="M 800.5,470.5 C 799.748,482.098 798.082,493.431 795.5,504.5C 796.539,492.945 798.206,481.612 800.5,470.5 Z"/></g>
<g><path style="opacity:1" fill="#5f5f5f" d="M 809.5,516.5 C 809.59,519.152 808.924,521.485 807.5,523.5C 807.41,520.848 808.076,518.515 809.5,516.5 Z"/></g>
<g><path style="opacity:1" fill="#c3c3c3" d="M 709.5,572.5 C 719.052,574.284 728.719,574.95 738.5,574.5C 738.5,574.833 738.5,575.167 738.5,575.5C 730.826,575.666 723.159,575.5 715.5,575C 713.277,574.434 711.277,573.6 709.5,572.5 Z"/></g>
<g><path style="opacity:1" fill="#737373" d="M 747.5,573.5 C 744.727,574.657 741.727,575.324 738.5,575.5C 738.5,575.167 738.5,574.833 738.5,574.5C 741.455,573.841 744.455,573.508 747.5,573.5 Z"/></g>
<g><path style="opacity:0.928" fill="#306191" d="M 818.5,662.5 C 828.192,662.472 837.859,662.972 847.5,664C 866.314,668.972 875.314,681.139 874.5,700.5C 869.821,700.666 865.155,700.499 860.5,700C 858.819,682.661 849.152,673.994 831.5,674C 823.084,673.439 814.751,674.106 806.5,676C 794.537,683.561 791.704,693.728 798,706.5C 801.677,710.423 806.177,712.923 811.5,714C 827.138,717.826 842.805,721.493 858.5,725C 871.793,729.98 878.46,739.646 878.5,754C 878.579,765.166 874.579,774.5 866.5,782C 851.114,789.941 834.781,792.608 817.5,790C 804.312,788.987 793.146,783.82 784,774.5C 778.341,766.047 776.174,756.713 777.5,746.5C 781.846,746.334 786.179,746.501 790.5,747C 791.254,761.846 798.587,771.846 812.5,777C 827.408,781.23 841.741,779.897 855.5,773C 863.343,764.782 865.177,755.282 861,744.5C 858.188,740.338 854.355,737.505 849.5,736C 829.698,732.642 810.365,727.642 791.5,721C 781.597,711.952 778.097,700.785 781,687.5C 784.235,674.599 792.402,666.766 805.5,664C 810.019,663.825 814.353,663.325 818.5,662.5 Z"/></g>
<g><path style="opacity:0.927" fill="#306191" d="M 931.5,662.5 C 958.868,657.997 980.701,666.664 997,688.5C 1008.55,712.219 1009.21,736.219 999,760.5C 995.917,765.588 992.083,770.088 987.5,774C 993.342,779.011 999.009,784.177 1004.5,789.5C 1002.4,794.12 999.07,796.953 994.5,798C 988.741,793.043 982.907,788.209 977,783.5C 962.174,790.072 946.674,792.239 930.5,790C 896.093,783.102 878.76,761.935 878.5,726.5C 877.762,699.115 889.428,679.282 913.5,667C 919.407,664.53 925.407,663.03 931.5,662.5 Z M 936.5,673.5 C 963.981,671.522 981.814,683.522 990,709.5C 992.179,722.563 991.846,735.563 989,748.5C 977.242,773.117 957.742,782.95 930.5,778C 909.949,772.113 897.782,758.613 894,737.5C 891.606,722.296 893.94,707.962 901,694.5C 909.829,682.177 921.663,675.177 936.5,673.5 Z"/></g>
<g><path style="opacity:0.94" fill="#306191" d="M 1013.5,664.5 C 1018,663.945 1022.16,664.611 1026,666.5C 1026.5,702.832 1026.67,739.165 1026.5,775.5C 1051.5,775.5 1076.5,775.5 1101.5,775.5C 1101.5,779.5 1101.5,783.5 1101.5,787.5C 1071.83,787.5 1042.17,787.5 1012.5,787.5C 1012.17,746.428 1012.51,705.428 1013.5,664.5 Z"/></g>
<g><path style="opacity:0.87" fill="#191919" d="M 312.5,679.5 C 332.879,679.06 353.212,679.56 373.5,681C 382.984,684.149 388.484,690.649 390,700.5C 394.633,724.134 385.133,736.967 361.5,739C 349.171,739.5 336.838,739.667 324.5,739.5C 324.667,753.504 324.5,767.504 324,781.5C 320.27,782.46 316.437,782.793 312.5,782.5C 312.5,748.167 312.5,713.833 312.5,679.5 Z M 324.5,689.5 C 339.239,689.05 353.905,689.55 368.5,691C 375.856,694.872 379.189,701.039 378.5,709.5C 379.283,718.449 375.617,724.615 367.5,728C 353.226,729.43 338.892,729.93 324.5,729.5C 324.5,716.167 324.5,702.833 324.5,689.5 Z"/></g>
<g><path style="opacity:0.866" fill="#191919" d="M 550.5,692.5 C 553.833,692.5 557.167,692.5 560.5,692.5C 560.5,699.833 560.5,707.167 560.5,714.5C 565.833,714.5 571.167,714.5 576.5,714.5C 576.777,717.448 576.444,720.281 575.5,723C 570.511,723.499 565.511,723.666 560.5,723.5C 560.063,739.224 560.563,754.891 562,770.5C 562.833,771.333 563.667,772.167 564.5,773C 568.167,773.333 571.833,773.667 575.5,774C 578.229,781.921 575.396,784.755 567,782.5C 558.52,783.938 553.187,780.604 551,772.5C 550.5,756.17 550.333,739.837 550.5,723.5C 546.833,723.5 543.167,723.5 539.5,723.5C 539.5,720.5 539.5,717.5 539.5,714.5C 543.167,714.5 546.833,714.5 550.5,714.5C 550.5,707.167 550.5,699.833 550.5,692.5 Z"/></g>
<g><path style="opacity:0.859" fill="#191919" d="M 423.5,711.5 C 449.489,710.31 463.156,722.643 464.5,748.5C 463.488,772.016 451.321,783.682 428,783.5C 410.841,784.933 399.508,777.6 394,761.5C 389.008,744.633 392.841,730.133 405.5,718C 411.169,714.503 417.169,712.336 423.5,711.5 Z M 421.5,721.5 C 442.387,718.232 453.053,727.065 453.5,748C 453.758,765.331 445.258,774.498 428,775.5C 411.24,774.071 402.74,764.905 402.5,748C 402.643,734.404 408.976,725.571 421.5,721.5 Z"/></g>
<g><path style="opacity:0.851" fill="#191919" d="M 495.5,711.5 C 504.881,710.841 513.881,712.341 522.5,716C 529.39,720.617 532.39,727.117 531.5,735.5C 528.167,735.5 524.833,735.5 521.5,735.5C 521.233,731.426 519.9,727.759 517.5,724.5C 506.97,719.533 496.304,719.366 485.5,724C 480.455,731.027 481.788,736.361 489.5,740C 502.329,742.026 514.996,744.693 527.5,748C 534.037,753.755 536.203,760.922 534,769.5C 531.737,776.097 527.237,780.264 520.5,782C 508.506,783.934 496.506,783.934 484.5,782C 474.469,778.465 469.469,771.298 469.5,760.5C 473.122,759.341 476.789,759.175 480.5,760C 481.278,763.147 482.111,766.313 483,769.5C 494.687,776.479 506.853,777.313 519.5,772C 524.765,766.593 524.765,761.26 519.5,756C 506.157,753.131 492.824,750.131 479.5,747C 472.286,742.037 469.786,735.203 472,726.5C 474.141,720.359 478.307,716.193 484.5,714C 488.312,713.205 491.979,712.371 495.5,711.5 Z"/></g>
<g><path style="opacity:0.862" fill="#191919" d="M 620.5,809.5 C 614.167,809.5 607.833,809.5 601.5,809.5C 587.022,808.691 579.022,801.024 577.5,786.5C 580.841,785.995 584.174,785.828 587.5,786C 589.237,794.735 594.571,799.735 603.5,801C 626.889,803.943 637.389,793.776 635,770.5C 627.747,777.874 618.914,781.54 608.5,781.5C 586.317,780.317 574.983,768.651 574.5,746.5C 575.338,723.809 587.171,712.143 610,711.5C 620.492,711.247 628.825,715.247 635,723.5C 635.212,720.242 635.712,717.076 636.5,714C 639.5,713.333 642.5,713.333 645.5,714C 646.66,736.094 646.827,758.261 646,780.5C 645.32,797.265 636.82,806.932 620.5,809.5 Z M 604.5,721.5 C 629.434,720.944 639.267,732.944 634,757.5C 631.215,762.619 627.382,766.786 622.5,770C 612.9,772.457 603.567,771.791 594.5,768C 588.295,762.229 585.295,755.063 585.5,746.5C 585.385,732.992 591.719,724.659 604.5,721.5 Z"/></g>
<g><path style="opacity:0.852" fill="#191919" d="M 685.5,711.5 C 688.777,711.216 691.943,711.549 695,712.5C 695.667,715.833 695.667,719.167 695,722.5C 679.457,719.444 670.457,725.777 668,741.5C 667.5,755.163 667.333,768.829 667.5,782.5C 664.167,782.5 660.833,782.5 657.5,782.5C 657.5,759.833 657.5,737.167 657.5,714.5C 660.833,714.5 664.167,714.5 667.5,714.5C 667.336,717.187 667.503,719.854 668,722.5C 671.575,715.134 677.409,711.468 685.5,711.5 Z"/></g>
<g><path style="opacity:0.856" fill="#191919" d="M 729.5,711.5 C 753.786,713.12 766.12,726.12 766.5,750.5C 746.167,750.5 725.833,750.5 705.5,750.5C 706.189,766.689 714.689,775.022 731,775.5C 742.452,775.035 750.285,769.535 754.5,759C 758.362,758.087 762.028,758.42 765.5,760C 760.249,776.906 748.749,784.739 731,783.5C 722.571,784.069 714.738,782.236 707.5,778C 705.037,774.535 702.204,771.369 699,768.5C 692.713,754.003 693.046,739.67 700,725.5C 707.807,716.344 717.64,711.678 729.5,711.5 Z M 726.5,720.5 C 743.037,719.731 752.37,727.398 754.5,743.5C 738.153,743.833 721.82,743.499 705.5,742.5C 707.128,729.875 714.128,722.541 726.5,720.5 Z"/></g>
</svg>
