<?xml version="1.0" encoding="UTF-8"?>
<!DOCTYPE svg PUBLIC "-//W3C//DTD SVG 1.1//EN" "http://www.w3.org/Graphics/SVG/1.1/DTD/svg11.dtd">
<svg xmlns="http://www.w3.org/2000/svg" version="1.1" width="4096px" height="4096px" style="shape-rendering:geometricPrecision; text-rendering:geometricPrecision; image-rendering:optimizeQuality; fill-rule:evenodd; clip-rule:evenodd" xmlns:xlink="http://www.w3.org/1999/xlink">
<g><path style="opacity:0.999" fill="#d72c20" d="M 1534.5,1694.5 C 1529.67,1705.19 1522.33,1714.02 1512.5,1721C 1486.16,1738 1458.5,1752.67 1429.5,1765C 1278.25,1830.86 1126.92,1896.53 975.5,1962C 938.802,1978.52 902.469,1995.85 866.5,2014C 839.025,2026.63 810.192,2033.8 780,2035.5C 758.063,2035.31 736.897,2031.15 716.5,2023C 675.4,2004.45 634.067,1986.45 592.5,1969C 440.59,1906.25 288.923,1842.92 137.5,1779C 111.675,1768.42 87.0083,1755.76 63.5,1741C 53.5941,1734.28 46.5941,1725.45 42.5,1714.5C 42.7641,1709.45 44.2641,1704.78 47,1700.5C 55.8272,1690.67 66.3272,1683.17 78.5,1678C 287.166,1595 496.499,1513.67 706.5,1434C 734.487,1423.5 763.153,1415.5 792.5,1410C 823.935,1406.16 854.602,1409.49 884.5,1420C 896.833,1424.33 909.167,1428.67 921.5,1433C 1115.17,1508.67 1308.83,1584.33 1502.5,1660C 1513.58,1664.77 1523.08,1671.61 1531,1680.5C 1533.94,1684.71 1535.11,1689.38 1534.5,1694.5 Z"/></g>
<g><path style="opacity:1" fill="#fefdfd" d="M 982.5,1596.5 C 980.5,1597.17 978.5,1597.83 976.5,1598.5C 935.841,1602.72 895.174,1606.72 854.5,1610.5C 845.296,1633.91 835.796,1657.25 826,1680.5C 810.5,1654.83 795,1629.17 779.5,1603.5C 730.538,1598.67 681.538,1594.17 632.5,1590C 631.366,1588.98 631.699,1588.32 633.5,1588C 669.576,1575.2 705.576,1562.2 741.5,1549C 730.246,1529.16 719.246,1509.16 708.5,1489C 743.111,1501.54 777.611,1514.71 812,1528.5C 844.809,1517.56 877.642,1507.06 910.5,1497C 901.566,1517.54 892.9,1538.2 884.5,1559C 916.675,1572.56 949.342,1585.06 982.5,1596.5 Z"/></g>
<g><path style="opacity:0.998" fill="#626365" d="M 3260.5,1517.5 C 3297.65,1516.31 3320.81,1533.64 3330,1569.5C 3330.67,1799.17 3330.67,2028.83 3330,2258.5C 3322.62,2291.38 3302.12,2309.04 3268.5,2311.5C 3237.53,2309.02 3217.36,2293.02 3208,2263.5C 3128.34,2315.27 3043.84,2324.77 2954.5,2292C 2863.8,2251.94 2807.3,2183.44 2785,2086.5C 2766.67,1979.82 2796.17,1888.99 2873.5,1814C 2947.56,1750.32 3032.23,1730.32 3127.5,1754C 3155.48,1762.16 3181.48,1774.33 3205.5,1790.5C 3206.02,1715.13 3206.85,1639.8 3208,1564.5C 3216.29,1538.36 3233.79,1522.7 3260.5,1517.5 Z M 3042.5,1868.5 C 3112.88,1867.75 3163.04,1899.08 3193,1962.5C 3215.31,2019.77 3209.31,2073.77 3175,2124.5C 3132.61,2178.3 3078.11,2196.8 3011.5,2180C 2957.06,2159.89 2922.56,2121.73 2908,2065.5C 2897.29,2014.02 2907.63,1967.35 2939,1925.5C 2965.93,1892.78 3000.43,1873.78 3042.5,1868.5 Z"/></g>
<g><path style="opacity:0.993" fill="#626365" d="M 3476.5,1517.5 C 3506.27,1515.12 3527.77,1527.12 3541,1553.5C 3543.77,1560.23 3545.43,1567.23 3546,1574.5C 3546.84,1588.2 3546.5,1601.87 3545,1615.5C 3538.38,1642.45 3521.55,1658.95 3494.5,1665C 3457.48,1667.64 3433.98,1651.14 3424,1615.5C 3421.75,1597.77 3422.09,1580.1 3425,1562.5C 3433.38,1537.28 3450.54,1522.28 3476.5,1517.5 Z"/></g>
<g><path style="opacity:1" fill="#e87d73" d="M 982.5,1596.5 C 983.043,1596.56 983.376,1596.89 983.5,1597.5C 981.257,1598.47 978.924,1598.81 976.5,1598.5C 978.5,1597.83 980.5,1597.17 982.5,1596.5 Z"/></g>
<g><path style="opacity:1" fill="#ad2014" d="M 1138.5,1617.5 C 1137.5,1670.66 1137.17,1724 1137.5,1777.5C 1129.56,1781.47 1121.22,1784.3 1112.5,1786C 1045.39,1759.52 978.387,1732.85 911.5,1706C 986.587,1675.97 1061.75,1646.14 1137,1616.5C 1137.76,1616.57 1138.26,1616.9 1138.5,1617.5 Z"/></g>
<g><path style="opacity:1" fill="#7a0c00" d="M 1138.5,1617.5 C 1205.67,1643.78 1272.67,1670.44 1339.5,1697.5C 1272.38,1724.73 1205.05,1751.4 1137.5,1777.5C 1137.17,1724 1137.5,1670.66 1138.5,1617.5 Z"/></g>
<g><path style="opacity:1" fill="#fefefe" d="M 454.5,1636.5 C 495.912,1634.56 536.912,1637.73 577.5,1646C 602.993,1651.38 626.659,1661.05 648.5,1675C 674.8,1696.22 675.133,1717.88 649.5,1740C 631.924,1751.62 612.924,1760.29 592.5,1766C 516.544,1784.97 440.877,1783.97 365.5,1763C 342.795,1756.74 323.295,1745.24 307,1728.5C 296.379,1713.3 297.045,1698.63 309,1684.5C 325.708,1668.89 345.208,1658.06 367.5,1652C 396.05,1643.58 425.05,1638.41 454.5,1636.5 Z"/></g>
<g><path style="opacity:0.999" fill="#a41e11" d="M 1534.5,1694.5 C 1534.99,1746.23 1534.49,1797.89 1533,1849.5C 1527.93,1859.24 1520.77,1867.07 1511.5,1873C 1496.63,1882.6 1481.3,1891.44 1465.5,1899.5C 1315.22,1965.81 1164.55,2031.31 1013.5,2096C 963.019,2118.24 913.019,2141.57 863.5,2166C 836.943,2178.1 809.11,2184.6 780,2185.5C 757.321,2185.69 735.487,2181.53 714.5,2173C 681.367,2157.95 648.034,2143.29 614.5,2129C 447.004,2059.41 279.671,1989.58 112.5,1919.5C 95.1244,1911.65 78.4578,1902.48 62.5,1892C 55.6253,1886.79 49.7919,1880.63 45,1873.5C 44.3333,1871.5 43.6667,1869.5 43,1867.5C 42.5,1816.5 42.3333,1765.5 42.5,1714.5C 46.5941,1725.45 53.5941,1734.28 63.5,1741C 87.0083,1755.76 111.675,1768.42 137.5,1779C 288.923,1842.92 440.59,1906.25 592.5,1969C 634.067,1986.45 675.4,2004.45 716.5,2023C 736.897,2031.15 758.063,2035.31 780,2035.5C 810.192,2033.8 839.025,2026.63 866.5,2014C 902.469,1995.85 938.802,1978.52 975.5,1962C 1126.92,1896.53 1278.25,1830.86 1429.5,1765C 1458.5,1752.67 1486.16,1738 1512.5,1721C 1522.33,1714.02 1529.67,1705.19 1534.5,1694.5 Z"/></g>
<g><path style="opacity:0.998" fill="#626365" d="M 2456.5,1744.5 C 2551,1738.53 2629.16,1770.86 2691,1841.5C 2732.96,1894.36 2753.62,1954.7 2753,2022.5C 2747.64,2048.53 2731.81,2063.69 2705.5,2068C 2581.5,2068.33 2457.5,2068.67 2333.5,2069C 2345.19,2121.03 2375.52,2157.69 2424.5,2179C 2476.88,2200.19 2528.88,2199.19 2580.5,2176C 2590.38,2170.9 2599.38,2164.56 2607.5,2157C 2629.86,2145.21 2652.53,2144.55 2675.5,2155C 2694.99,2170.82 2702.16,2190.98 2697,2215.5C 2695.61,2219.29 2693.94,2222.95 2692,2226.5C 2655.16,2265.52 2610.32,2291.02 2557.5,2303C 2481.49,2321 2409.49,2311 2341.5,2273C 2262.06,2222.71 2216.56,2150.54 2205,2056.5C 2197.93,1962.02 2228.09,1881.85 2295.5,1816C 2341.32,1774.76 2394.98,1750.93 2456.5,1744.5 Z M 2474.5,1852.5 C 2536.63,1855.82 2587.13,1881.48 2626,1929.5C 2635.77,1942.05 2642.61,1956.05 2646.5,1971.5C 2540.5,1971.5 2434.5,1971.5 2328.5,1971.5C 2338.44,1931.46 2360.77,1900.3 2395.5,1878C 2419.96,1863.35 2446.29,1854.85 2474.5,1852.5 Z"/></g>
<g><path style="opacity:0.998" fill="#626365" d="M 3828.5,1743.5 C 3875.72,1744.14 3919.72,1756.3 3960.5,1780C 3974.77,1788.61 3988.77,1797.61 4002.5,1807C 4026.35,1826.89 4033.52,1851.72 4024,1881.5C 4011.31,1907.43 3990.48,1919.27 3961.5,1917C 3956.01,1916.29 3950.68,1914.96 3945.5,1913C 3931.67,1904.92 3918,1896.58 3904.5,1888C 3881.69,1874.23 3857.02,1866.39 3830.5,1864.5C 3804.78,1864.92 3781.44,1872.42 3760.5,1887C 3754.87,1891.63 3750.37,1897.13 3747,1903.5C 3743.55,1914.44 3746.72,1922.94 3756.5,1929C 3772.05,1938.52 3788.72,1945.52 3806.5,1950C 3825.88,1954.47 3845.21,1958.81 3864.5,1963C 3908.64,1972.24 3949.64,1988.91 3987.5,2013C 4040.1,2052.45 4060.27,2104.62 4048,2169.5C 4035.77,2212.71 4010.94,2246.54 3973.5,2271C 3907.92,2310.51 3837.92,2320.84 3763.5,2302C 3710.4,2287.46 3663.57,2261.96 3623,2225.5C 3604.48,2198.36 3605.15,2171.69 3625,2145.5C 3644.76,2125.55 3667.93,2120.38 3694.5,2130C 3709.89,2141.06 3725.56,2151.72 3741.5,2162C 3769.18,2178.23 3799.01,2187.39 3831,2189.5C 3859.55,2189.07 3886.05,2181.57 3910.5,2167C 3917.52,2161.32 3923.02,2154.49 3927,2146.5C 3932.62,2133.4 3929.78,2122.57 3918.5,2114C 3897.09,2099.74 3873.75,2089.74 3848.5,2084C 3814.32,2077.7 3780.65,2069.37 3747.5,2059C 3704.11,2044.92 3669.28,2019.42 3643,1982.5C 3612.48,1920.49 3619.48,1863.15 3664,1810.5C 3695.42,1777.87 3733.59,1757.37 3778.5,1749C 3795.2,1746.03 3811.86,1744.2 3828.5,1743.5 Z"/></g>
<g><path style="opacity:0.995" fill="#626365" d="M 1937.5,1745.5 C 1982.84,1743.22 2007.67,1764.56 2012,1809.5C 2019.23,1801.6 2027.07,1794.43 2035.5,1788C 2081.47,1757.17 2132.14,1743.17 2187.5,1746C 2207.81,1749.4 2222.64,1760.23 2232,1778.5C 2244.08,1811.14 2235.91,1837.31 2207.5,1857C 2201.47,1860.18 2195.14,1862.51 2188.5,1864C 2156.38,1862.52 2127.71,1871.52 2102.5,1891C 2083.78,1905.38 2068.28,1922.54 2056,1942.5C 2036.81,1970.54 2022.15,2000.87 2012,2033.5C 2011.67,2107.17 2011.33,2180.83 2011,2254.5C 2008.54,2277.6 1997.04,2294.44 1976.5,2305C 1943.51,2317.88 1916.68,2310.05 1896,2281.5C 1891.32,2273.45 1888.65,2264.79 1888,2255.5C 1887.33,2103.5 1887.33,1951.5 1888,1799.5C 1892.23,1770.11 1908.73,1752.11 1937.5,1745.5 Z"/></g>
<g><path style="opacity:0.988" fill="#626465" d="M 3473.5,1745.5 C 3502.16,1741.97 3523.99,1752.3 3539,1776.5C 3542.89,1784.74 3545.23,1793.41 3546,1802.5C 3546.67,1953.17 3546.67,2103.83 3546,2254.5C 3540.88,2289.99 3520.38,2308.99 3484.5,2311.5C 3448.6,2308.43 3428.1,2289.1 3423,2253.5C 3422.33,2103.5 3422.33,1953.5 3423,1803.5C 3426.2,1772.14 3443.04,1752.81 3473.5,1745.5 Z"/></g>
<g><path style="opacity:1" fill="#fefdfd" d="M 915.5,1782.5 C 917.857,1782.34 920.19,1782.5 922.5,1783C 887.543,1833.75 852.71,1884.58 818,1935.5C 737.876,1901.85 657.709,1868.35 577.5,1835C 690.332,1817.62 802.998,1800.12 915.5,1782.5 Z"/></g>
<g><path style="opacity:1" fill="#d72b1f" d="M 1465.5,1899.5 C 1476.41,1903.95 1487.41,1908.45 1498.5,1913C 1511.41,1918.52 1522.57,1926.35 1532,1936.5C 1534.05,1940.59 1534.89,1944.92 1534.5,1949.5C 1531.06,1958.47 1525.39,1965.97 1517.5,1972C 1503.5,1982 1488.84,1991 1473.5,1999C 1456.41,2006.81 1439.41,2014.81 1422.5,2023C 1285.62,2082.61 1148.62,2141.94 1011.5,2201C 959.442,2224.2 907.776,2248.2 856.5,2273C 831.933,2283.61 806.266,2289.45 779.5,2290.5C 757.01,2289.96 735.344,2285.46 714.5,2277C 679.617,2261.39 644.617,2246.06 609.5,2231C 451.27,2165.55 293.27,2099.55 135.5,2033C 111.503,2023.17 88.5029,2011.5 66.5,1998C 60.0725,1993.58 54.2392,1988.41 49,1982.5C 45.9748,1978.12 43.8081,1973.46 42.5,1968.5C 44.009,1958.48 49.009,1950.65 57.5,1945C 74.7055,1934.1 93.0388,1925.6 112.5,1919.5C 279.671,1989.58 447.004,2059.41 614.5,2129C 648.034,2143.29 681.367,2157.95 714.5,2173C 735.487,2181.53 757.321,2185.69 780,2185.5C 809.11,2184.6 836.943,2178.1 863.5,2166C 913.019,2141.57 963.019,2118.24 1013.5,2096C 1164.55,2031.31 1315.22,1965.81 1465.5,1899.5 Z"/></g>
<g><path style="opacity:0.999" fill="#a41e11" d="M 1534.5,1949.5 C 1534.67,2000.17 1534.5,2050.83 1534,2101.5C 1530.04,2110.46 1524.21,2117.96 1516.5,2124C 1503.44,2133.53 1489.77,2142.03 1475.5,2149.5C 1438.98,2166.26 1402.32,2182.76 1365.5,2199C 1237.34,2253.94 1109.34,2309.28 981.5,2365C 940.804,2383.18 900.471,2402.18 860.5,2422C 834.5,2433.46 807.333,2439.63 779,2440.5C 755.936,2440.46 733.769,2435.96 712.5,2427C 681.617,2413.06 650.617,2399.39 619.5,2386C 482.5,2329 345.5,2272 208.5,2215C 172.763,2199.59 137.096,2184.09 101.5,2168.5C 81.7623,2160.55 64.2623,2149.22 49,2134.5C 46.5584,2131.95 44.8917,2128.95 44,2125.5C 42.5176,2073.21 42.0176,2020.88 42.5,1968.5C 43.8081,1973.46 45.9748,1978.12 49,1982.5C 54.2392,1988.41 60.0725,1993.58 66.5,1998C 88.5029,2011.5 111.503,2023.17 135.5,2033C 293.27,2099.55 451.27,2165.55 609.5,2231C 644.617,2246.06 679.617,2261.39 714.5,2277C 735.344,2285.46 757.01,2289.96 779.5,2290.5C 806.266,2289.45 831.933,2283.61 856.5,2273C 907.776,2248.2 959.442,2224.2 1011.5,2201C 1148.62,2141.94 1285.62,2082.61 1422.5,2023C 1439.41,2014.81 1456.41,2006.81 1473.5,1999C 1488.84,1991 1503.5,1982 1517.5,1972C 1525.39,1965.97 1531.06,1958.47 1534.5,1949.5 Z"/></g>
<g><path style="opacity:1" fill="#d72b1f" d="M 1475.5,2149.5 C 1492.43,2155.46 1508.43,2163.3 1523.5,2173C 1531.63,2178.76 1535.3,2186.6 1534.5,2196.5C 1531.1,2204.1 1526.1,2210.6 1519.5,2216C 1507.35,2225.58 1494.35,2233.91 1480.5,2241C 1459.62,2251.27 1438.62,2261.27 1417.5,2271C 1272.17,2334 1126.83,2397 981.5,2460C 942.576,2477.75 903.91,2496.09 865.5,2515C 843.077,2524.92 819.744,2531.59 795.5,2535C 768.613,2537.56 742.613,2533.89 717.5,2524C 682.617,2508.39 647.617,2493.06 612.5,2478C 445.094,2408.98 278.094,2338.98 111.5,2268C 97.851,2261.51 84.5177,2254.51 71.5,2247C 63.7532,2241.92 56.5865,2236.09 50,2229.5C 46.3939,2224.95 43.8939,2219.95 42.5,2214.5C 43.139,2206.06 46.8057,2199.22 53.5,2194C 68.5467,2183.64 84.5467,2175.14 101.5,2168.5C 137.096,2184.09 172.763,2199.59 208.5,2215C 345.5,2272 482.5,2329 619.5,2386C 650.617,2399.39 681.617,2413.06 712.5,2427C 733.769,2435.96 755.936,2440.46 779,2440.5C 807.333,2439.63 834.5,2433.46 860.5,2422C 900.471,2402.18 940.804,2383.18 981.5,2365C 1109.34,2309.28 1237.34,2253.94 1365.5,2199C 1402.32,2182.76 1438.98,2166.26 1475.5,2149.5 Z"/></g>
<g><path style="opacity:0.997" fill="#a41e10" d="M 1534.5,2196.5 C 1534.67,2246.5 1534.5,2296.5 1534,2346.5C 1530.88,2355.64 1525.38,2363.14 1517.5,2369C 1498.81,2382.69 1478.81,2394.35 1457.5,2404C 1438.42,2412.47 1419.42,2421.14 1400.5,2430C 1261.17,2490.33 1121.83,2550.67 982.5,2611C 941.137,2629.51 900.137,2648.85 859.5,2669C 807.881,2692.63 756.214,2692.96 704.5,2670C 677.618,2657.73 650.618,2645.73 623.5,2634C 463.719,2567.61 304.052,2500.94 144.5,2434C 119.071,2423.53 94.404,2411.53 70.5,2398C 60.41,2391.88 51.91,2384.04 45,2374.5C 44.1779,2372.21 43.5112,2369.88 43,2367.5C 42.5,2316.5 42.3333,2265.5 42.5,2214.5C 43.8939,2219.95 46.3939,2224.95 50,2229.5C 56.5865,2236.09 63.7532,2241.92 71.5,2247C 84.5177,2254.51 97.851,2261.51 111.5,2268C 278.094,2338.98 445.094,2408.98 612.5,2478C 647.617,2493.06 682.617,2508.39 717.5,2524C 742.613,2533.89 768.613,2537.56 795.5,2535C 819.744,2531.59 843.077,2524.92 865.5,2515C 903.91,2496.09 942.576,2477.75 981.5,2460C 1126.83,2397 1272.17,2334 1417.5,2271C 1438.62,2261.27 1459.62,2251.27 1480.5,2241C 1494.35,2233.91 1507.35,2225.58 1519.5,2216C 1526.1,2210.6 1531.1,2204.1 1534.5,2196.5 Z"/></g>
</svg>
