<?xml version="1.0" encoding="UTF-8"?>
<!DOCTYPE svg PUBLIC "-//W3C//DTD SVG 1.1//EN" "http://www.w3.org/Graphics/SVG/1.1/DTD/svg11.dtd">
<svg xmlns="http://www.w3.org/2000/svg" version="1.1" width="800px" height="800px" style="shape-rendering:geometricPrecision; text-rendering:geometricPrecision; image-rendering:optimizeQuality; fill-rule:evenodd; clip-rule:evenodd" xmlns:xlink="http://www.w3.org/1999/xlink">
<g><path style="opacity:0.972" fill="#7549bb" d="M 391.5,104.5 C 441.441,105.556 482.274,125.222 514,163.5C 545.129,204.806 561.963,251.473 564.5,303.5C 550.842,299.503 537.175,295.503 523.5,291.5C 518.456,251.839 503.956,216.173 480,184.5C 446.839,146.417 406.339,135.917 358.5,153C 335.655,160.494 316.488,173.328 301,191.5C 265.508,239.544 250.174,293.544 255,353.5C 257.781,402.168 271.614,447.334 296.5,489C 328.063,488.225 345.73,503.559 349.5,535C 346.921,563.079 331.588,578.246 303.5,580.5C 283.908,579.409 269.742,570.076 261,552.5C 255.96,539.086 256.46,525.92 262.5,513C 239.984,473.119 224.818,430.619 217,385.5C 206.908,318.566 217.575,255.233 249,195.5C 281.401,141.548 328.901,111.215 391.5,104.5 Z"/></g>
<g><path style="opacity:0.972" fill="#754abb" d="M 350.5,288.5 C 372.199,285.852 388.866,293.685 400.5,312C 480.418,309.383 552.751,331.049 617.5,377C 644.833,397.663 667.999,422.163 687,450.5C 716.49,496.615 724.823,546.282 712,599.5C 704.315,622.366 691.481,641.866 673.5,658C 625.488,697.004 570.822,711.004 509.5,700C 487.044,695.626 465.544,688.459 445,678.5C 444.833,678.167 444.667,677.833 444.5,677.5C 445.981,676.52 447.315,675.353 448.5,674C 459.668,665.659 470.668,657.159 481.5,648.5C 516.22,663.343 552.22,667.843 589.5,662C 633.32,650.179 662.154,622.679 676,579.5C 682.047,552.637 679.38,526.637 668,501.5C 651.975,464.808 627.808,434.642 595.5,411C 537.62,369.321 472.954,350.155 401.5,353.5C 387.873,376.641 368.206,384.141 342.5,376C 316.632,362.078 308.799,341.244 319,313.5C 326.075,300.728 336.575,292.395 350.5,288.5 Z"/></g>
<g><path style="opacity:0.972" fill="#7549bc" d="M 180.5,382.5 C 181.75,382.577 182.583,383.244 183,384.5C 185.877,398.007 189.377,411.34 193.5,424.5C 160.686,449.129 138.519,481.129 127,520.5C 119.052,566.661 132.552,605.161 167.5,636C 193.299,653.08 221.799,661.246 253,660.5C 292.433,659.767 329.266,649.6 363.5,630C 398.364,611.483 428.864,587.316 455,557.5C 466.87,542.271 477.37,526.104 486.5,509C 475.355,496.888 471.522,482.721 475,466.5C 483.93,441.278 501.763,430.111 528.5,433C 551.694,439.048 564.027,454.048 565.5,478C 563.352,503.648 549.686,519.148 524.5,524.5C 474.243,622.343 394.577,680.176 285.5,698C 237.774,705.226 193.107,696.893 151.5,673C 114.722,648.467 93.8882,613.967 89,569.5C 84.2869,521.346 95.9535,477.679 124,438.5C 130.333,430.833 136.667,423.167 143,415.5C 154.804,403.518 167.304,392.518 180.5,382.5 Z"/></g>
</svg>
