<?xml version="1.0" encoding="UTF-8"?>
<!DOCTYPE svg PUBLIC "-//W3C//DTD SVG 1.1//EN" "http://www.w3.org/Graphics/SVG/1.1/DTD/svg11.dtd">
<svg xmlns="http://www.w3.org/2000/svg" version="1.1" width="1000px" height="360px" style="shape-rendering:geometricPrecision; text-rendering:geometricPrecision; image-rendering:optimizeQuality; fill-rule:evenodd; clip-rule:evenodd" xmlns:xlink="http://www.w3.org/1999/xlink">
<g><path style="opacity:0.939" fill="#553e7d" d="M 233.5,27.5 C 244.838,27.3335 256.172,27.5001 267.5,28C 315.458,34.2443 331.625,60.0777 316,105.5C 296.09,141.229 265.59,161.062 224.5,165C 214.5,165.667 204.5,165.667 194.5,165C 181.798,163.404 171.632,157.571 164,147.5C 161.969,144.46 161.469,141.293 162.5,138C 163.899,137.405 165.232,137.572 166.5,138.5C 173.455,145.997 182.122,150.164 192.5,151C 230.252,151.869 261.752,138.369 287,110.5C 294.498,101.505 298.665,91.1717 299.5,79.5C 299.465,68.2734 294.132,60.7734 283.5,57C 260.028,50.6849 236.695,51.3515 213.5,59C 175.314,71.1644 142.148,91.331 114,119.5C 106.04,129.256 101.54,140.422 100.5,153C 101.029,163.596 104.862,172.763 112,180.5C 129,195.167 146,209.833 163,224.5C 175.913,217.627 188.747,210.627 201.5,203.5C 210.64,190.431 222.973,182.097 238.5,178.5C 245.666,178.836 249.833,182.503 251,189.5C 251.333,194.167 251.667,198.833 252,203.5C 255.821,202.019 259.488,202.352 263,204.5C 263.923,206.034 264.423,207.701 264.5,209.5C 261.232,222.138 258.065,234.805 255,247.5C 253.908,251.797 253.575,256.131 254,260.5C 258.703,252.416 263.036,244.082 267,235.5C 277.555,212.567 287.388,189.4 296.5,166C 303.433,164.494 310.433,164.161 317.5,165C 318.416,165.374 319.25,165.874 320,166.5C 318.123,174.527 316.623,182.694 315.5,191C 315.178,199.262 317.345,206.762 322,213.5C 329.736,200.085 337.069,186.418 344,172.5C 345.514,166.777 347.18,161.11 349,155.5C 350.648,154.283 352.481,153.45 354.5,153C 360.167,152.333 365.833,152.333 371.5,153C 373.223,153.775 374.223,155.108 374.5,157C 366.734,174.717 368.234,191.55 379,207.5C 401.744,197.088 424.578,196.922 447.5,207C 466.596,218.021 473.429,234.188 468,255.5C 463.46,263.542 456.627,268.209 447.5,269.5C 447.343,268.127 447.51,266.793 448,265.5C 465.551,252.144 465.718,238.311 448.5,224C 432.001,214.56 414.334,211.56 395.5,215C 391.118,215.591 387.118,217.091 383.5,219.5C 389.517,233.934 386.517,246.1 374.5,256C 368.004,261.248 360.67,264.915 352.5,267C 343.393,268.887 338.726,265.221 338.5,256C 339.738,246.026 343.571,237.192 350,229.5C 353.833,225.667 357.667,221.833 361.5,218C 356.418,208.757 352.918,198.924 351,188.5C 344.422,201.329 337.089,213.662 329,225.5C 338.736,253.197 329.569,271.03 301.5,279C 295.135,280.806 288.801,280.806 282.5,279C 279.03,275.663 278.53,271.83 281,267.5C 290.739,256.264 299.905,244.597 308.5,232.5C 302.982,222.447 299.149,211.781 297,200.5C 286.797,226.906 274.463,252.239 260,276.5C 257.5,279 255,281.5 252.5,284C 241.952,287.631 236.118,283.798 235,272.5C 234.667,268.167 234.333,263.833 234,259.5C 230.429,270.482 224.929,280.315 217.5,289C 206.112,294.093 197.945,290.927 193,279.5C 187.894,267.315 186.227,254.648 188,241.5C 189.02,235.743 190.02,230.077 191,224.5C 184.213,228.138 177.713,232.138 171.5,236.5C 181.096,265.948 174.763,291.448 152.5,313C 134.541,327.823 114.541,331.49 92.5,324C 82.221,312.444 79.721,299.277 85,284.5C 91.679,270.82 101.512,259.987 114.5,252C 125.01,244.909 136.01,238.575 147.5,233C 132.167,222 116.833,211 101.5,200C 86.3309,188.838 75.8309,174.338 70,156.5C 68.8747,143.2 71.8747,130.867 79,119.5C 93.258,97.908 111.425,80.408 133.5,67C 164.392,47.3778 197.725,34.2111 233.5,27.5 Z M 235.5,195.5 C 238.734,195.237 240.068,196.737 239.5,200C 234.902,218.696 228.736,236.863 221,254.5C 219.118,259.044 216.451,263.044 213,266.5C 209.567,261.609 208.067,256.109 208.5,250C 208.946,233.997 213.779,219.497 223,206.5C 226.742,202.253 230.908,198.586 235.5,195.5 Z M 366.5,227.5 C 369.791,239.587 365.458,248.254 353.5,253.5C 353.167,253 352.833,252.5 352.5,252C 354.995,242.501 359.661,234.334 366.5,227.5 Z M 156.5,242.5 C 162.251,263.101 156.917,280.601 140.5,295C 133.877,300.228 126.377,303.395 118,304.5C 113.8,304.902 110.8,303.235 109,299.5C 107.717,290.681 109.717,282.681 115,275.5C 119.167,270 124,265.167 129.5,261C 138.404,254.58 147.404,248.413 156.5,242.5 Z M 313.5,246.5 C 314.043,246.56 314.376,246.893 314.5,247.5C 311.337,255.832 305.837,262.165 298,266.5C 297.333,265.833 297.333,265.167 298,264.5C 303.884,259.028 309.051,253.028 313.5,246.5 Z"/></g>
<g><path style="opacity:0.96" fill="#553e7d" d="M 562.5,93.5 C 578.167,93.5 593.833,93.5 609.5,93.5C 609.333,137.835 609.5,182.168 610,226.5C 610.69,229.196 612.19,231.363 614.5,233C 617.905,234.544 621.405,235.711 625,236.5C 624.393,243.484 623.56,250.484 622.5,257.5C 614.254,257.959 606.254,256.792 598.5,254C 592.277,250.777 587.777,245.943 585,239.5C 583.522,197.881 583.022,156.214 583.5,114.5C 578.156,114.334 572.823,114.501 567.5,115C 561.21,117.292 558.043,121.792 558,128.5C 557.667,143.5 557.333,158.5 557,173.5C 555.505,181.499 551.672,188.165 545.5,193.5C 551.942,199.049 555.775,206.049 557,214.5C 557.333,229.5 557.667,244.5 558,259.5C 558.51,265.678 561.677,269.845 567.5,272C 571.491,272.642 575.491,273.142 579.5,273.5C 579.5,280.167 579.5,286.833 579.5,293.5C 567.463,294.859 556.13,292.692 545.5,287C 538.362,281.224 534.529,273.724 534,264.5C 533.667,249.5 533.333,234.5 533,219.5C 531.496,209.66 525.829,204.327 516,203.5C 515.5,196.842 515.334,190.175 515.5,183.5C 525.189,182.976 531.023,177.976 533,168.5C 533.333,153.167 533.667,137.833 534,122.5C 536.317,105.683 545.817,96.0165 562.5,93.5 Z"/></g>
<g><path style="opacity:0.958" fill="#553e7d" d="M 874.5,93.5 C 886.548,92.1433 897.882,94.31 908.5,100C 915.635,105.769 919.468,113.269 920,122.5C 920.333,137.833 920.667,153.167 921,168.5C 922.977,177.976 928.811,182.976 938.5,183.5C 938.666,190.175 938.5,196.842 938,203.5C 928.171,204.327 922.504,209.66 921,219.5C 920.667,234.5 920.333,249.5 920,264.5C 918.643,279.191 910.81,288.358 896.5,292C 889.229,293.3 881.896,293.8 874.5,293.5C 874.5,286.833 874.5,280.167 874.5,273.5C 882.082,273.944 888.582,271.611 894,266.5C 894.92,263.899 895.587,261.232 896,258.5C 896.333,243.833 896.667,229.167 897,214.5C 898.225,206.049 902.058,199.049 908.5,193.5C 902.328,188.165 898.495,181.499 897,173.5C 896.667,158.5 896.333,143.5 896,128.5C 895.957,121.792 892.79,117.292 886.5,115C 882.509,114.358 878.509,113.858 874.5,113.5C 874.5,106.833 874.5,100.167 874.5,93.5 Z"/></g>
<g><path style="opacity:0.954" fill="#553e7d" d="M 664.5,144.5 C 698.584,140.774 717.751,155.774 722,189.5C 722.5,196.158 722.666,202.825 722.5,209.5C 698.491,209.167 674.491,209.5 650.5,210.5C 652.246,222.076 658.579,229.909 669.5,234C 683.834,236.75 697.834,235.584 711.5,230.5C 713.047,237.117 714.381,243.783 715.5,250.5C 715.182,251.647 714.516,252.481 713.5,253C 697.154,258.387 680.487,259.72 663.5,257C 641.806,251.972 628.973,238.472 625,216.5C 622.162,200.2 624.162,184.533 631,169.5C 638.631,156.361 649.798,148.028 664.5,144.5 Z M 673.5,165.5 C 688.393,167.064 696.06,175.397 696.5,190.5C 681.5,190.5 666.5,190.5 651.5,190.5C 652.556,176.454 659.889,168.12 673.5,165.5 Z"/></g>
<g><path style="opacity:0.947" fill="#553e7d" d="M 756.5,144.5 C 771.13,143.445 785.463,144.945 799.5,149C 800.022,149.561 800.355,150.228 800.5,151C 798.716,157.421 797.383,163.921 796.5,170.5C 786.205,166.507 775.538,165.007 764.5,166C 752.889,168.542 750.556,174.542 757.5,184C 767.418,188.528 777.418,192.861 787.5,197C 802.496,204.608 808.329,216.774 805,233.5C 802.738,244.432 796.238,251.598 785.5,255C 765.568,260.215 745.901,259.382 726.5,252.5C 726.167,251.667 725.833,250.833 725.5,250C 726.772,243.472 728.106,236.972 729.5,230.5C 742.681,235.768 756.347,237.601 770.5,236C 780.868,232.115 782.202,226.115 774.5,218C 762.227,212.863 750.227,207.196 738.5,201C 729.258,192.889 725.758,182.723 728,170.5C 729.357,162.154 733.523,155.654 740.5,151C 745.603,147.938 750.936,145.771 756.5,144.5 Z"/></g>
<g><path style="opacity:0.947" fill="#553e7d" d="M 837.5,144.5 C 851.029,143.699 864.362,144.865 877.5,148C 879.286,148.196 880.619,149.029 881.5,150.5C 879.811,156.779 878.311,163.112 877,169.5C 876.586,169.957 876.086,170.291 875.5,170.5C 862.95,164.72 850.283,164.22 837.5,169C 833.301,174.281 833.634,179.281 838.5,184C 850.286,189.059 861.953,194.393 873.5,200C 884.131,208.211 888.298,219.045 886,232.5C 884.816,240.378 880.983,246.545 874.5,251C 860.573,257.705 845.906,260.038 830.5,258C 822.34,257.436 814.506,255.602 807,252.5C 806.921,244.819 808.421,237.486 811.5,230.5C 825.394,236.41 839.728,237.91 854.5,235C 861.654,230.55 862.32,225.217 856.5,219C 845.372,213.288 834.039,207.954 822.5,203C 810.421,194.994 805.921,183.828 809,169.5C 810.554,161.557 814.72,155.39 821.5,151C 826.603,147.938 831.936,145.771 837.5,144.5 Z"/></g>
</svg>
